<svg width="420" height="280" viewBox="0 0 420 280" fill="none" xmlns="http://www.w3.org/2000/svg">
<path d="M406.755 113.957C397.29 71.0166 364.35 37.123 319.495 25.7724C307.702 22.7882 295.159 21.2802 282.678 22.5634C231.668 27.8091 170.817 62.0964 139.245 69.2842C107.673 76.472 70.6516 47.7208 28.6651 91.8747C-13.3209 136.029 -3.62119 238.198 80.3318 258.221C164.284 278.244 211.013 228.956 248.304 239.738C285.595 250.52 352.357 245.899 391.779 214.067C415.155 195.192 414.97 151.225 406.755 113.957Z" fill="#6CD8FF"/>
<path opacity="0.8" d="M406.755 113.957C397.29 71.0166 364.35 37.123 319.495 25.7724C307.702 22.7882 295.159 21.2802 282.678 22.5634C231.668 27.8091 170.817 62.0964 139.245 69.2842C107.673 76.472 70.6516 47.7208 28.6651 91.8747C-13.3209 136.029 -3.62119 238.198 80.3318 258.221C164.284 278.244 211.013 228.956 248.304 239.738C285.595 250.52 352.357 245.899 391.779 214.067C415.155 195.192 414.97 151.225 406.755 113.957Z" fill="white"/>
<path opacity="0.2" d="M227.154 123.909H209.864V130.9H227.154V123.909Z" fill="black"/>
<path opacity="0.2" d="M220.567 99.0312H203.277V106.022H220.567V99.0312Z" fill="black"/>
<path opacity="0.2" d="M157.994 123.703H140.704V130.693H157.994V123.703Z" fill="black"/>
<path opacity="0.2" d="M183.106 75.0625H165.816V82.0529H183.106V75.0625Z" fill="black"/>
<path opacity="0.2" d="M202.043 75.0625H184.753V82.0529H202.043V75.0625Z" fill="black"/>
<path opacity="0.2" d="M128.353 175.396H111.063V182.386H128.353V175.396Z" fill="black"/>
<path opacity="0.2" d="M119.297 184.031H102.007V191.022H119.297V184.031Z" fill="black"/>
<path opacity="0.1" d="M211.099 108.694H193.809V115.685H211.099V108.694Z" fill="black"/>
<path opacity="0.1" d="M237.034 147.964H219.744V154.955H237.034V147.964Z" fill="black"/>
<path opacity="0.1" d="M135.764 158.656H118.474V165.646H135.764V158.656Z" fill="black"/>
<path opacity="0.1" d="M155.524 158.656H138.234V165.646H155.524V158.656Z" fill="black"/>
<path opacity="0.1" d="M157.17 148.787H139.88V155.777H157.17V148.787Z" fill="black"/>
<path opacity="0.1" d="M230.859 108.694H213.569V115.685H230.859V108.694Z" fill="black"/>
<path opacity="0.2" d="M222.167 53.0254H204.877V60.0158H222.167V53.0254Z" fill="black"/>
<path opacity="0.2" d="M215.58 28.1475H198.29V35.1378H215.58V28.1475Z" fill="black"/>
<path opacity="0.1" d="M206.112 37.811H188.822V44.8014H206.112V37.811Z" fill="black"/>
<path opacity="0.1" d="M225.872 37.811H208.582V44.8014H225.872V37.811Z" fill="black"/>
<path opacity="0.2" d="M179.401 183.328H162.111V190.318H179.401V183.328Z" fill="black"/>
<path opacity="0.1" d="M169.933 192.991H152.643V199.982H169.933V192.991Z" fill="black"/>
<path opacity="0.1" d="M189.692 192.991H172.402V199.982H189.692V192.991Z" fill="black"/>
<path opacity="0.2" d="M95.5815 96.3218H78.2915V103.312H95.5815V96.3218Z" fill="black"/>
<path opacity="0.1" d="M86.1132 105.985H68.8232V112.976H86.1132V105.985Z" fill="black"/>
<path opacity="0.1" d="M105.873 105.985H88.5835V112.976H105.873V105.985Z" fill="black"/>
<path opacity="0.2" d="M88.8335 148.375H71.5435V155.366H88.8335V148.375Z" fill="black"/>
<path opacity="0.1" d="M165.404 114.949H148.114V121.94H165.404V114.949Z" fill="black"/>
<path opacity="0.1" d="M139.469 183.62H122.179V190.61H139.469V183.62Z" fill="black"/>
<path opacity="0.1" d="M192.986 66.4277H175.696V73.4181H192.986V66.4277Z" fill="black"/>
<path opacity="0.2" d="M78.9536 125.229H61.6636V132.219H78.9536V125.229Z" fill="black"/>
<path opacity="0.1" d="M88.8335 116.594H71.5435V123.585H88.8335V116.594Z" fill="black"/>
<path opacity="0.1" d="M132.882 74.5649H115.592V81.5553H132.882V74.5649Z" fill="black"/>
<path opacity="0.2" d="M192.986 123.909H175.696V130.9H192.986V123.909Z" fill="black"/>
<path opacity="0.2" d="M268.883 130.899H286.173V123.909H268.883V130.899Z" fill="black"/>
<path opacity="0.2" d="M275.47 106.022H292.76V99.0316H275.47V106.022Z" fill="black"/>
<path opacity="0.2" d="M338.043 130.694H355.333V123.704H338.043V130.694Z" fill="black"/>
<path opacity="0.2" d="M312.931 82.0532H330.221V75.0628H312.931V82.0532Z" fill="black"/>
<path opacity="0.2" d="M293.995 82.0532H311.285V75.0628H293.995V82.0532Z" fill="black"/>
<path opacity="0.1" d="M284.938 115.686H302.228V108.695H284.938V115.686Z" fill="black"/>
<path opacity="0.1" d="M259.003 154.955H276.293V147.964H259.003V154.955Z" fill="black"/>
<path opacity="0.1" d="M360.273 165.646H377.563V158.656H360.273V165.646Z" fill="black"/>
<path opacity="0.1" d="M340.513 165.646H357.803V158.656H340.513V165.646Z" fill="black"/>
<path opacity="0.1" d="M338.867 155.777H356.157V148.787H338.867V155.777Z" fill="black"/>
<path opacity="0.1" d="M265.178 115.686H282.468V108.695H265.178V115.686Z" fill="black"/>
<path opacity="0.2" d="M130.336 218.131H147.626V211.141H130.336V218.131Z" fill="black"/>
<path opacity="0.1" d="M139.804 227.794H157.094V220.804H139.804V227.794Z" fill="black"/>
<path opacity="0.1" d="M120.044 227.794H137.334V220.804H120.044V227.794Z" fill="black"/>
<path opacity="0.2" d="M46.6421 218.131H63.9321V211.141H46.6421V218.131Z" fill="black"/>
<path opacity="0.1" d="M56.1104 227.794H73.4004V220.804H56.1104V227.794Z" fill="black"/>
<path opacity="0.1" d="M36.3501 227.794H53.6401V220.804H36.3501V227.794Z" fill="black"/>
<path opacity="0.2" d="M316.636 190.318H333.926V183.328H316.636V190.318Z" fill="black"/>
<path opacity="0.1" d="M326.105 199.981H343.395V192.991H326.105V199.981Z" fill="black"/>
<path opacity="0.1" d="M306.345 199.981H323.635V192.991H306.345V199.981Z" fill="black"/>
<path opacity="0.1" d="M330.633 121.939H347.923V114.949H330.633V121.939Z" fill="black"/>
<path opacity="0.1" d="M356.568 190.61H373.858V183.62H356.568V190.61Z" fill="black"/>
<path opacity="0.1" d="M272.226 200.439H289.516V193.449H272.226V200.439Z" fill="black"/>
<path opacity="0.1" d="M252.465 200.439H269.755V193.449H252.465V200.439Z" fill="black"/>
<path opacity="0.2" d="M228.589 225.11H245.879V218.12H228.589V225.11Z" fill="black"/>
<path opacity="0.1" d="M376.301 234.774H393.591V227.784H376.301V234.774Z" fill="black"/>
<path opacity="0.1" d="M376.301 216.895H393.591V209.904H376.301V216.895Z" fill="black"/>
<path opacity="0.1" d="M385.162 225.593H402.452V218.602H385.162V225.593Z" fill="black"/>
<path opacity="0.1" d="M365.327 225.593H382.617V218.602H365.327V225.593Z" fill="black"/>
<path opacity="0.1" d="M268.521 225.403H285.811V218.412H268.521V225.403Z" fill="black"/>
<path opacity="0.2" d="M308.466 241.597H291.176V248.587H308.466V241.597Z" fill="black"/>
<path opacity="0.1" d="M298.997 251.26H281.707V258.25H298.997V251.26Z" fill="black"/>
<path opacity="0.1" d="M318.757 251.26H301.467V258.25H318.757V251.26Z" fill="black"/>
<path opacity="0.2" d="M366.036 235.429H348.746V242.419H366.036V235.429Z" fill="black"/>
<path opacity="0.1" d="M356.567 251.26H339.277V258.25H356.567V251.26Z" fill="black"/>
<path opacity="0.1" d="M376.328 251.26H359.038V258.25H376.328V251.26Z" fill="black"/>
<path opacity="0.1" d="M56.0942 258.24H38.8042V265.23H56.0942V258.24Z" fill="black"/>
<path opacity="0.1" d="M112.813 249.058H95.5234V256.048H112.813V249.058Z" fill="black"/>
<path opacity="0.1" d="M80.8838 240.36H63.5938V247.351H80.8838V240.36Z" fill="black"/>
<path opacity="0.1" d="M72.0234 249.058H54.7334V256.048H72.0234V249.058Z" fill="black"/>
<path opacity="0.1" d="M91.8588 249.058H74.5688V256.048H91.8588V249.058Z" fill="black"/>
<path opacity="0.1" d="M303.051 73.4175H320.341V66.4271H303.051V73.4175Z" fill="black"/>
<path opacity="0.1" d="M293.859 43.9409H311.149V36.9505H293.859V43.9409Z" fill="black"/>
<path opacity="0.1" d="M363.155 81.5552H380.445V74.5648H363.155V81.5552Z" fill="black"/>
<path opacity="0.2" d="M303.051 130.899H320.341V123.909H303.051V130.899Z" fill="black"/>
<path opacity="0.2" d="M127.157 27.1011H109.867V34.0914H127.157V27.1011Z" fill="black"/>
<path opacity="0.1" d="M57.3007 76.6338H40.0107V83.6242H57.3007V76.6338Z" fill="black"/>
<path opacity="0.1" d="M78.8613 82.6636H61.5713V89.6539H78.8613V82.6636Z" fill="black"/>
<path opacity="0.1" d="M36.6025 89.5557H19.3125V96.546H36.6025V89.5557Z" fill="black"/>
<path opacity="0.1" d="M67.8383 89.8662H50.5483V96.8566H67.8383V89.8662Z" fill="black"/>
<path opacity="0.2" d="M116.577 36.9033H99.2866V43.8937H116.577V36.9033Z" fill="black"/>
<path opacity="0.2" d="M301.801 27.1011H284.511V34.0914H301.801V27.1011Z" fill="black"/>
<path opacity="0.2" d="M291.221 36.9033H273.931V43.8937H291.221V36.9033Z" fill="black"/>
<path d="M51.0755 119.358H6.47656V112.086H47.4355V6.82617H54.7155V115.722C54.7155 117.73 53.0859 119.358 51.0755 119.358Z" fill="white" stroke="#263238" stroke-miterlimit="10" stroke-linecap="round" stroke-linejoin="round"/>
<path d="M388.782 4.33008V45.9635H54.561V53.2352H377.086V228.987H291.059C289.049 228.987 287.419 230.615 287.419 232.623V259.395H294.699V236.258H377.086V260.855H384.366V53.2347H392.422C394.432 53.2347 396.062 51.6069 396.062 49.5988V4.33008H388.782Z" fill="white" stroke="#263238" stroke-miterlimit="10" stroke-linecap="round" stroke-linejoin="round"/>
<path d="M396 26.7373H388.888V30.0376H396V26.7373Z" fill="white" stroke="#263238" stroke-miterlimit="10" stroke-linecap="round" stroke-linejoin="round"/>
<path d="M320.377 236.206V229.103H317.073V236.206H320.377Z" fill="white" stroke="#263238" stroke-miterlimit="10" stroke-linecap="round" stroke-linejoin="round"/>
<path d="M327.572 236.206V229.103H324.268V236.206H327.572Z" fill="white" stroke="#263238" stroke-miterlimit="10" stroke-linecap="round" stroke-linejoin="round"/>
<path d="M134.164 242.242H16.7681V249.514H134.164V242.242Z" fill="white" stroke="#263238" stroke-miterlimit="10" stroke-linecap="round" stroke-linejoin="round"/>
<path d="M134.164 232.222H16.7681V239.493H134.164V232.222Z" fill="white" stroke="#263238" stroke-miterlimit="10" stroke-linecap="round" stroke-linejoin="round"/>
<path d="M71.8724 232.357H66.8521V239.424H71.8724V232.357Z" fill="white" stroke="#263238" stroke-miterlimit="10" stroke-linecap="round" stroke-linejoin="round"/>
<path d="M82.331 232.357H77.3105V239.424H82.331V232.357Z" fill="white" stroke="#263238" stroke-miterlimit="10" stroke-linecap="round" stroke-linejoin="round"/>
<path d="M71.8724 242.378H66.8521V249.444H71.8724V242.378Z" fill="white" stroke="#263238" stroke-miterlimit="10" stroke-linecap="round" stroke-linejoin="round"/>
<path d="M82.331 242.378H77.3105V249.444H82.331V242.378Z" fill="white" stroke="#263238" stroke-miterlimit="10" stroke-linecap="round" stroke-linejoin="round"/>
<path d="M150.124 96.4833V86.8925H144.276C143.994 85.2865 143.581 83.7259 143.035 82.2285L148.087 79.3148L143.287 71.0088L138.222 73.9292C137.185 72.6958 136.042 71.5547 134.808 70.5193L137.73 65.4633L129.415 60.6678L126.496 65.7172C124.996 65.1718 123.434 64.7596 121.826 64.4788V58.6401H112.224V64.481C110.616 64.7624 109.054 65.1752 107.555 65.7211L104.638 60.674L96.3222 65.4694L99.2459 70.5277C98.0111 71.5637 96.8693 72.7053 95.8322 73.9387L90.7703 71.0194L85.9695 79.3254L91.0246 82.2408C90.4786 83.7388 90.0659 85.2994 89.7847 86.9053H83.9395V96.4962H89.787C90.0687 98.1021 90.4819 99.6628 91.0285 101.16L85.9756 104.074L90.7765 112.38L95.8406 109.459C96.8777 110.693 98.0207 111.834 99.2555 112.869L96.3328 117.925L104.648 122.721L107.567 117.671C109.067 118.217 110.629 118.629 112.237 118.91V124.749H121.839V118.908C123.446 118.626 125.009 118.213 126.508 117.668L129.425 122.715L137.74 117.919L134.817 112.861C136.051 111.825 137.194 110.683 138.23 109.45L143.292 112.369L148.093 104.063L143.038 101.148C143.584 99.6499 143.997 98.0893 144.278 96.4833H150.124ZM117.032 109.565C107.151 109.565 99.1412 101.565 99.1412 91.6952C99.1412 81.8258 107.151 73.8252 117.032 73.8252C126.913 73.8252 134.923 81.8258 134.923 91.6952C134.922 101.565 126.913 109.565 117.032 109.565Z" fill="white" stroke="#263238" stroke-miterlimit="10" stroke-linecap="round" stroke-linejoin="round"/>
<path d="M106.472 184.542V174.951H100.624C100.342 173.345 99.9292 171.785 99.3826 170.287L104.436 167.373L99.6346 159.067L94.5706 161.988C93.5334 160.754 92.3905 159.613 91.1557 158.578L94.0783 153.522L85.7629 148.726L82.8442 153.776C81.3445 153.23 79.7821 152.818 78.1743 152.537V146.699H68.5726V152.54C66.9648 152.821 65.4024 153.234 63.9033 153.78L60.9862 148.733L52.6708 153.528L55.5946 158.586C54.3598 159.622 53.2174 160.764 52.1808 161.997L47.119 159.078L42.3181 167.384L47.3732 170.299C46.8272 171.797 46.4145 173.358 46.1334 174.964H40.2881V184.555H46.1356C46.4173 186.161 46.8306 187.721 47.3771 189.219L42.3242 192.132L47.1251 200.438L52.1892 197.518C53.2263 198.751 54.3693 199.892 55.6041 200.928L52.6814 205.984L60.9969 210.779L63.9156 205.73C65.4153 206.275 66.9777 206.688 68.5854 206.968V212.807H78.1872V206.966C79.795 206.685 81.3568 206.272 82.8565 205.726L85.7735 210.773L94.089 205.978L91.1652 200.92C92.4 199.884 93.5418 198.742 94.579 197.509L99.6408 200.428L104.442 192.122L99.3866 189.206C99.9326 187.708 100.345 186.148 100.626 184.542H106.472ZM73.3802 197.624C63.4995 197.624 55.4893 189.623 55.4893 179.753C55.4893 169.883 63.499 161.883 73.3802 161.883C83.2608 161.883 91.2705 169.884 91.2705 179.753C91.2705 189.623 83.2608 197.624 73.3802 197.624Z" fill="white" stroke="#263238" stroke-miterlimit="10" stroke-linecap="round" stroke-linejoin="round"/>
<path d="M350.136 183.17V176.696H346.188C345.998 175.611 345.719 174.558 345.35 173.547L348.761 171.58L345.52 165.973L342.102 167.944C341.401 167.112 340.63 166.342 339.796 165.643L341.769 162.229L336.156 158.992L334.185 162.401C333.173 162.033 332.118 161.754 331.033 161.565V157.624H324.551V161.567C323.466 161.757 322.411 162.036 321.399 162.404L319.429 158.997L313.816 162.234L315.79 165.649C314.957 166.348 314.186 167.119 313.486 167.952L310.068 165.981L306.828 171.589L310.24 173.556C309.872 174.568 309.593 175.621 309.404 176.705H305.458V183.18H309.405C309.596 184.264 309.875 185.317 310.244 186.328L306.833 188.296L310.074 193.903L313.492 191.931C314.192 192.763 314.964 193.534 315.798 194.233L313.825 197.646L319.438 200.883L321.408 197.474C322.421 197.842 323.475 198.121 324.561 198.31V202.251H331.043V198.308C332.128 198.118 333.182 197.839 334.195 197.471L336.164 200.878L341.778 197.641L339.804 194.226C340.637 193.526 341.408 192.756 342.108 191.923L345.525 193.894L348.766 188.287L345.354 186.319C345.722 185.307 346.001 184.254 346.19 183.17H350.136ZM327.796 192.001C321.126 192.001 315.719 186.6 315.719 179.938C315.719 173.275 321.126 167.874 327.796 167.874C334.467 167.874 339.874 173.275 339.874 179.938C339.874 186.6 334.467 192.001 327.796 192.001Z" fill="white" stroke="#263238" stroke-miterlimit="10" stroke-linecap="round" stroke-linejoin="round"/>
<path d="M318.454 91.4641V84.9895H314.506C314.316 83.9054 314.037 82.8521 313.668 81.8408L317.079 79.8735L313.838 74.2665L310.419 76.2382C309.719 75.4059 308.947 74.6351 308.113 73.9364L310.086 70.5232L304.473 67.2862L302.503 70.6949C301.49 70.3269 300.436 70.0483 299.351 69.8592V65.918H292.869V69.8609C291.783 70.0511 290.729 70.3297 289.716 70.6983L287.747 67.2912L282.133 70.5282L284.107 73.9432C283.274 74.6429 282.503 75.4132 281.803 76.2461L278.386 74.2754L275.145 79.8825L278.558 81.8503C278.189 82.8617 277.91 83.9149 277.721 84.999H273.775V91.4736H277.723C277.913 92.5577 278.192 93.6109 278.561 94.6223L275.15 96.5895L278.391 102.197L281.81 100.225C282.51 101.057 283.282 101.827 284.116 102.527L282.143 105.94L287.756 109.177L289.726 105.768C290.739 106.136 291.793 106.415 292.879 106.604V110.545H299.361V106.602C300.446 106.412 301.5 106.133 302.513 105.765L304.482 109.172L310.096 105.935L308.122 102.52C308.955 101.82 309.726 101.05 310.426 100.217L313.843 102.188L317.084 96.5806L313.671 94.6128C314.04 93.6014 314.319 92.5482 314.508 91.4641H318.454ZM296.114 100.295C289.444 100.295 284.037 94.8941 284.037 88.2315C284.037 81.569 289.444 76.1678 296.114 76.1678C302.785 76.1678 308.192 81.569 308.192 88.2315C308.192 94.8941 302.785 100.295 296.114 100.295Z" fill="white" stroke="#263238" stroke-miterlimit="10" stroke-linecap="round" stroke-linejoin="round"/>
<path d="M83.7439 218.384V173.534H25.3018V144.821L75.429 26.1714H118.191V145.533H136.722V173.535H118.191V218.384L83.7439 218.384ZM54.2851 145.533H83.7434V63.9021L54.2851 145.533Z" fill="#41BBE8"/>
<path d="M118.191 218.663H83.7441C83.5896 218.663 83.4641 218.538 83.4641 218.384V173.814H25.302C25.1474 173.814 25.022 173.688 25.022 173.534V144.821C25.022 144.784 25.0293 144.746 25.0444 144.712L75.1717 26.0628C75.2153 25.9593 75.3167 25.8916 75.4298 25.8916H118.192C118.347 25.8916 118.472 26.0169 118.472 26.1713V145.253H136.722C136.877 145.253 137.002 145.378 137.002 145.533V173.535C137.002 173.689 136.877 173.814 136.722 173.814H118.472V218.384C118.471 218.538 118.347 218.663 118.191 218.663ZM84.0241 218.104H117.911V173.534C117.911 173.38 118.037 173.254 118.191 173.254H136.442V145.812H118.191C118.037 145.812 117.911 145.687 117.911 145.532V26.451H75.6146L25.582 144.878V173.254H83.7441C83.8987 173.254 84.0241 173.38 84.0241 173.534V218.104ZM83.7441 145.812H54.2859C54.1946 145.812 54.1095 145.768 54.0569 145.693C54.0042 145.619 53.9919 145.523 54.0227 145.438L83.4815 63.8069C83.5274 63.6789 83.6607 63.6056 83.7929 63.6263C83.9267 63.6498 84.0247 63.7661 84.0247 63.902V145.533C84.0241 145.687 83.8993 145.812 83.7441 145.812ZM54.6841 145.253H83.4641V65.5024L54.6841 145.253Z" fill="#41BBE8"/>
<path d="M205.617 221.707C194.054 221.707 184.474 219.334 176.871 214.587C169.269 209.841 163.567 203.316 159.766 195.01C155.965 186.704 154.064 177.094 154.064 166.178V80.0387C154.064 68.8078 155.883 58.9597 159.528 50.4954C163.17 42.0339 168.794 35.4267 176.396 30.681C183.998 25.9354 193.739 23.562 205.617 23.562C217.336 23.562 226.957 25.9354 234.482 30.681C242.002 35.4267 247.585 42.0344 251.231 50.4954C254.872 58.9602 256.695 68.8084 256.695 80.0387V166.178C256.695 177.094 254.794 186.705 250.993 195.01C247.191 203.316 241.49 209.842 233.888 214.588C226.285 219.333 216.861 221.707 205.617 221.707ZM205.617 189.433C209.893 189.433 212.981 188.091 214.882 185.399C216.783 182.711 218.048 179.508 218.683 175.788C219.314 172.073 219.634 168.632 219.634 165.466V80.7502C219.634 77.2721 219.355 73.6312 218.802 69.8343C218.245 66.0373 217.02 62.7561 215.12 59.9867C213.219 57.2206 210.049 55.8339 205.617 55.8339C201.181 55.8339 197.974 57.2206 195.996 59.9867C194.014 62.7566 192.748 66.0378 192.194 69.8343C191.637 73.6312 191.363 77.2721 191.363 80.7502V165.466C191.363 168.632 191.678 172.074 192.313 175.788C192.944 179.507 194.291 182.711 196.352 185.399C198.408 188.092 201.496 189.433 205.617 189.433Z" fill="#41BBE8"/>
<path d="M205.617 221.986C194.056 221.986 184.334 219.576 176.723 214.823C169.109 210.07 163.318 203.443 159.512 195.126C155.712 186.822 153.785 177.083 153.785 166.177V80.0381C153.785 68.8156 155.63 58.8388 159.272 50.384C162.921 41.9063 168.632 35.1973 176.248 30.4433C183.86 25.6909 193.741 23.2817 205.617 23.2817C217.335 23.2817 227.097 25.6915 234.631 30.4438C242.164 35.1979 247.836 41.9063 251.487 50.384C255.128 58.8472 256.975 68.8246 256.975 80.0381V166.178C256.975 177.082 255.048 186.822 251.248 195.126C247.441 203.443 241.65 210.071 234.036 214.824C226.425 219.576 216.863 221.986 205.617 221.986ZM205.617 23.8411C193.848 23.8411 184.067 26.2218 176.545 30.9176C169.027 35.6107 163.389 42.2341 159.786 50.6055C156.175 58.9898 154.345 68.8928 154.345 80.0387V166.178C154.345 177.003 156.254 186.664 160.021 194.894C163.781 203.11 169.5 209.656 177.02 214.35C184.541 219.046 194.162 221.427 205.617 221.427C216.757 221.427 226.218 219.046 233.739 214.35C241.259 209.656 246.978 203.11 250.738 194.894C254.505 186.663 256.415 177.003 256.415 166.178V80.0381C256.415 68.9006 254.584 58.9982 250.973 50.605C247.367 42.233 241.767 35.6084 234.332 30.9165C226.888 26.2212 217.227 23.8411 205.617 23.8411ZM205.617 189.713C201.422 189.713 198.23 188.319 196.13 185.569C194.05 182.855 192.673 179.58 192.037 175.836C191.404 172.13 191.083 168.641 191.083 165.466V80.7508C191.083 77.2553 191.363 73.5691 191.917 69.7945C192.474 65.9712 193.77 62.6167 195.767 59.8244C197.794 56.9912 201.107 55.5542 205.617 55.5542C210.127 55.5542 213.402 56.9923 215.35 59.8289C217.263 62.6167 218.518 65.9696 219.078 69.7945C219.632 73.5948 219.913 77.281 219.913 80.7508V165.466C219.913 168.618 219.592 172.107 218.959 175.836C218.319 179.581 217.024 182.854 215.11 185.561C213.166 188.316 209.972 189.713 205.617 189.713ZM205.617 56.1136C201.299 56.1136 198.139 57.4712 196.224 60.1494C194.278 62.8685 193.016 66.1407 192.472 69.875C191.922 73.6233 191.643 77.2821 191.643 80.7508V165.466C191.643 168.609 191.962 172.067 192.589 175.742C193.21 179.396 194.55 182.589 196.574 185.23C198.564 187.834 201.606 189.154 205.617 189.154C209.779 189.154 212.819 187.837 214.653 185.239C216.519 182.6 217.782 179.405 218.408 175.742C219.035 172.044 219.353 168.587 219.353 165.466V80.7508C219.353 77.3079 219.075 73.6491 218.525 69.875C217.977 66.1357 216.753 62.8623 214.889 60.1449C213.051 57.47 209.932 56.1136 205.617 56.1136Z" fill="#41BBE8"/>
<path d="M335.091 218.384V173.534H276.65V144.821L326.777 26.1714H369.539V145.533H388.07V173.535H369.539V218.384L335.091 218.384ZM305.633 145.533H335.092V63.9021L305.633 145.533Z" fill="#41BBE8"/>
<path d="M369.54 218.663H335.092C334.937 218.663 334.812 218.538 334.812 218.384V173.814H276.65C276.496 173.814 276.37 173.688 276.37 173.534V144.821C276.37 144.784 276.378 144.746 276.392 144.712L326.519 26.0628C326.562 25.9593 326.664 25.8916 326.777 25.8916H369.54C369.694 25.8916 369.82 26.0169 369.82 26.1713V145.253H388.07C388.225 145.253 388.35 145.378 388.35 145.533V173.535C388.35 173.689 388.225 173.814 388.07 173.814H369.82V218.384C369.82 218.538 369.694 218.663 369.54 218.663ZM335.372 218.104H369.26V173.534C369.26 173.38 369.385 173.254 369.54 173.254H387.79V145.812H369.54C369.385 145.812 369.26 145.687 369.26 145.532V26.451H326.963L276.93 144.878V173.254H335.092C335.246 173.254 335.372 173.38 335.372 173.534V218.104ZM335.092 145.812H305.633C305.542 145.812 305.457 145.768 305.404 145.693C305.352 145.619 305.339 145.523 305.37 145.438L334.829 63.8069C334.875 63.6789 335.004 63.6028 335.14 63.6263C335.274 63.6498 335.372 63.7661 335.372 63.902V145.533C335.372 145.687 335.246 145.812 335.092 145.812ZM306.032 145.253H334.812V65.5029L306.032 145.253Z" fill="#41BBE8"/>
<path d="M163.378 261.386V232.405H173.873V234.516H166.136V245.393H172.44V247.396H166.136V259.346H173.945V261.385H163.378V261.386Z" fill="#41BBE8"/>
<path d="M177.67 261.386V232.405H184.225C186.039 232.405 187.467 232.698 188.505 233.282C189.544 233.866 190.29 234.713 190.744 235.822C191.197 236.931 191.424 238.249 191.424 239.775C191.424 240.848 191.304 241.862 191.066 242.817C190.827 243.771 190.421 244.582 189.848 245.25C189.275 245.917 188.462 246.359 187.412 246.573L191.854 261.385H189.203L184.941 247.146H180.392V261.385H177.67V261.386ZM180.392 245.143H184.081C185.299 245.143 186.242 244.941 186.911 244.535C187.579 244.129 188.057 243.533 188.344 242.746C188.631 241.959 188.774 240.969 188.774 239.775C188.774 237.987 188.463 236.651 187.843 235.769C187.222 234.887 185.992 234.445 184.154 234.445H180.393V245.143H180.392Z" fill="#41BBE8"/>
<path d="M196.009 261.386V232.405H202.564C204.378 232.405 205.805 232.698 206.844 233.282C207.883 233.866 208.629 234.713 209.083 235.822C209.537 236.931 209.763 238.249 209.763 239.775C209.763 240.848 209.644 241.862 209.405 242.817C209.166 243.771 208.761 244.582 208.187 245.25C207.614 245.917 206.802 246.359 205.751 246.573L210.193 261.385H207.543L203.28 247.146H198.731V261.386H196.009ZM198.731 245.143H202.42C203.638 245.143 204.581 244.941 205.25 244.535C205.918 244.129 206.396 243.533 206.683 242.746C206.97 241.959 207.113 240.969 207.113 239.775C207.113 237.987 206.802 236.651 206.182 235.769C205.561 234.887 204.331 234.445 202.492 234.445H198.732V245.143H198.731Z" fill="#41BBE8"/>
<path d="M221.189 261.744C219.279 261.744 217.781 261.368 216.694 260.617C215.607 259.865 214.844 258.816 214.402 257.468C213.96 256.121 213.739 254.576 213.739 252.835V240.814C213.739 239.049 213.972 237.516 214.438 236.216C214.904 234.916 215.679 233.908 216.766 233.193C217.852 232.478 219.327 232.12 221.189 232.12C223.076 232.12 224.562 232.478 225.649 233.193C226.735 233.908 227.505 234.916 227.959 236.216C228.412 237.516 228.639 239.048 228.639 240.814V252.871C228.639 254.612 228.418 256.151 227.976 257.487C227.534 258.823 226.776 259.866 225.702 260.618C224.628 261.368 223.124 261.744 221.189 261.744ZM221.189 259.561C222.479 259.561 223.458 259.305 224.127 258.792C224.795 258.279 225.255 257.564 225.506 256.645C225.757 255.727 225.882 254.659 225.882 253.443V240.312C225.882 239.095 225.756 238.035 225.506 237.128C225.255 236.222 224.795 235.524 224.127 235.035C223.458 234.546 222.479 234.302 221.189 234.302C219.923 234.302 218.951 234.547 218.27 235.035C217.59 235.523 217.124 236.222 216.873 237.128C216.622 238.035 216.497 239.096 216.497 240.312V253.443C216.497 254.659 216.622 255.727 216.873 256.645C217.124 257.564 217.589 258.279 218.27 258.792C218.951 259.305 219.923 259.561 221.189 259.561Z" fill="#41BBE8"/>
<path d="M233.153 261.386V232.405H239.708C241.522 232.405 242.949 232.698 243.988 233.282C245.027 233.866 245.774 234.713 246.227 235.822C246.681 236.931 246.908 238.249 246.908 239.775C246.908 240.848 246.788 241.862 246.549 242.817C246.31 243.771 245.905 244.582 245.331 245.25C244.758 245.917 243.946 246.359 242.895 246.573L247.337 261.385H244.687L240.424 247.146H235.875V261.385H233.153V261.386ZM235.875 245.143H239.564C240.782 245.143 241.725 244.941 242.394 244.535C243.062 244.129 243.54 243.533 243.827 242.746C244.114 241.959 244.257 240.969 244.257 239.775C244.257 237.987 243.946 236.651 243.326 235.769C242.705 234.887 241.475 234.445 239.637 234.445H235.876V245.143H235.875Z" fill="#41BBE8"/>
<path d="M154.087 122.381L156.165 152.312L143.174 146.256L139.883 159.405C139.883 159.405 167.77 174.976 170.541 174.457C173.312 173.938 166.384 113.384 166.384 113.384L154.087 122.381Z" fill="#7EEAB9" stroke="#263238" stroke-miterlimit="10" stroke-linecap="round" stroke-linejoin="round"/>
<path d="M172.809 194.589C172.809 194.589 187.768 189.452 193.612 184.549C199.456 179.646 168.835 120.344 168.835 120.344C168.835 120.344 169.303 174.743 172.809 194.589Z" fill="#92E3A9" stroke="#263238" stroke-miterlimit="10" stroke-linecap="round" stroke-linejoin="round"/>
<path d="M235.43 175.43L233.701 175.687C233.715 175.792 233.723 175.883 233.72 175.943C233.589 178.163 221.567 184.075 213.08 187.274C211.224 188.709 208.741 189.434 205.617 189.434C205.588 189.434 205.562 189.431 205.534 189.431C198.983 190.06 186.398 187.18 183.553 185.236L180.484 216.582L180.485 216.583C180.979 216.825 181.483 217.057 181.992 217.285C188.641 220.229 196.512 221.706 205.617 221.706C216.119 221.706 225.033 219.634 232.359 215.493C232.412 215.463 232.466 215.433 232.519 215.403C232.981 215.139 233.439 214.868 233.888 214.587C234.43 214.249 234.959 213.899 235.482 213.542C235.642 213.433 235.798 213.321 235.956 213.21C236.323 212.953 236.685 212.693 237.042 212.427C237.212 212.301 237.38 212.173 237.547 212.045C237.904 211.771 238.256 211.492 238.602 211.209C238.743 211.094 238.886 210.981 239.025 210.864C239.501 210.466 239.97 210.061 240.426 209.645C240.427 209.644 240.428 209.643 240.429 209.642C238.472 195.776 235.43 175.43 235.43 175.43Z" fill="#737373" stroke="#263238" stroke-miterlimit="10" stroke-linecap="round" stroke-linejoin="round"/>
<path d="M168.361 139.028C168.361 139.028 182.22 172.866 182.391 174.062C182.562 175.259 181.022 182.95 183.247 185C185.471 187.051 200.356 190.469 206.686 189.273C213.017 188.076 233.549 178.848 233.719 175.942C233.891 173.037 213.359 116.298 210.792 109.462C208.226 102.626 197.789 100.234 190.774 100.917C183.759 101.601 166.821 106.044 163.741 110.317C160.662 114.589 168.361 139.028 168.361 139.028Z" fill="white" stroke="#263238" stroke-miterlimit="10" stroke-linecap="round" stroke-linejoin="round"/>
<path d="M169.559 107.582C169.559 107.582 167.848 123.134 168.874 126.381C169.901 129.628 174.571 138.561 174.571 138.561C174.571 138.561 182.391 128.773 183.931 127.748C185.471 126.723 199.672 135.781 199.672 135.781C199.672 135.781 200.185 126.039 198.132 118.007C196.079 109.974 192.486 101.258 191.288 99.7201C190.09 98.1819 190.09 103.822 185.642 107.581C181.193 111.342 169.559 107.582 169.559 107.582Z" fill="white" stroke="#263238" stroke-miterlimit="10" stroke-linecap="round" stroke-linejoin="round"/>
<path d="M168.296 110.29C168.296 110.29 170.328 115.456 174.761 121.728C179.194 128.001 185.289 132.613 185.289 132.613C185.289 132.613 190.091 120.252 191.384 112.873C192.677 105.493 190.46 98.1143 190.46 98.1143C190.46 98.1143 189.537 109.184 185.658 111.397C181.778 113.611 168.296 110.29 168.296 110.29Z" fill="white" stroke="#263238" stroke-miterlimit="10" stroke-linecap="round" stroke-linejoin="round"/>
<path d="M178.438 112.018C173.547 111.584 168.296 110.291 168.296 110.291C168.296 110.291 170.328 115.456 174.761 121.729C175.188 122.334 175.634 122.918 176.086 123.49L183.727 114.66L178.438 112.018Z" fill="#263238" stroke="#263238" stroke-miterlimit="10" stroke-linecap="round" stroke-linejoin="round"/>
<path d="M190.459 98.1136C190.459 98.1136 196.079 120.57 198.131 137.489C200.184 154.409 205.147 204.483 205.147 204.483C205.147 204.483 220.545 200.039 228.587 194.228C236.628 188.418 239.195 184.487 239.195 184.487C239.195 184.487 226.02 126.893 226.02 126.039C226.02 125.184 227.389 116.639 227.389 116.639C227.389 116.639 250.658 105.701 259.555 99.0365C268.451 92.3712 266.227 88.7823 261.95 87.0734C257.672 85.3646 244.327 87.2446 236.97 89.2952C229.612 91.3458 225.849 92.7135 225.849 92.7135C225.849 92.7135 217.636 92.0299 210.108 93.7388C202.58 95.4482 190.459 98.1136 190.459 98.1136Z" fill="#7EEAB9" stroke="#263238" stroke-miterlimit="10" stroke-linecap="round" stroke-linejoin="round"/>
<path d="M202.277 155.571C202.005 156.423 201.709 157.337 201.382 158.34L202.277 155.571Z" fill="white"/>
<path d="M202.277 155.571C202.005 156.423 201.709 157.337 201.382 158.34" stroke="#263238" stroke-miterlimit="10" stroke-linecap="round" stroke-linejoin="round"/>
<path d="M204.914 117.532L207.542 119.203C207.542 119.203 206.676 132.819 205.489 141.42C204.774 146.601 204.148 149.443 202.991 153.278" stroke="#263238" stroke-miterlimit="10" stroke-linecap="round" stroke-linejoin="round"/>
<path d="M200.266 101.316C201.988 104.477 204.462 109.135 204.462 109.804C204.462 110.829 201.896 115.614 201.896 115.614L203.5 116.634" stroke="#263238" stroke-miterlimit="10" stroke-linecap="round" stroke-linejoin="round"/>
<path d="M198.642 98.3691C198.642 98.3691 198.914 98.8563 199.341 99.6305L198.642 98.3691Z" fill="white"/>
<path d="M198.642 98.3691C198.642 98.3691 198.914 98.8563 199.341 99.6305" stroke="#263238" stroke-miterlimit="10" stroke-linecap="round" stroke-linejoin="round"/>
<path d="M230.147 173.652C228.243 174.969 225.361 176.649 221.4 178.164C213.359 181.241 211.99 181.753 211.99 181.753L213.188 185.855C213.188 185.855 227.218 183.291 233.719 175.942" stroke="#263238" stroke-miterlimit="10" stroke-linecap="round" stroke-linejoin="round"/>
<path d="M233.035 171.328C233.035 171.328 232.662 171.719 231.886 172.352L233.035 171.328Z" fill="white"/>
<path d="M233.035 171.328C233.035 171.328 232.662 171.719 231.886 172.352" stroke="#263238" stroke-miterlimit="10" stroke-linecap="round" stroke-linejoin="round"/>
<path d="M230.457 107.565L227.389 116.64L234.575 105.873" stroke="#263238" stroke-miterlimit="10" stroke-linecap="round" stroke-linejoin="round"/>
<path d="M231.837 103.48L231.128 105.578" stroke="#263238" stroke-miterlimit="10" stroke-linecap="round" stroke-linejoin="round"/>
<path d="M169.559 107.582C169.559 107.582 171.27 138.686 173.152 153.896C175.034 169.106 178.114 206.705 178.114 206.705C178.114 206.705 172.125 206.192 168.19 201.407C164.255 196.621 162.373 193.033 162.373 193.033C162.373 193.033 162.373 160.562 162.373 159.194C162.373 157.827 159.635 142.275 157.069 134.584C154.502 126.893 150.738 118.007 152.962 114.247C155.187 110.487 162.201 104.847 164.768 104.164C167.335 103.481 169.388 104.164 169.559 107.582Z" fill="#7EEAB9" stroke="#263238" stroke-miterlimit="10" stroke-linecap="round" stroke-linejoin="round"/>
<path d="M168.599 146.647C169.566 149.666 170.505 152.348 171.27 154.068L168.599 146.647Z" fill="white"/>
<path d="M168.599 146.647C169.566 149.666 170.505 152.348 171.27 154.068" stroke="#263238" stroke-miterlimit="10" stroke-linecap="round" stroke-linejoin="round"/>
<path d="M162.749 113.506C162.46 115.725 162.322 117.444 162.544 117.666C163.228 118.349 165.966 120.742 165.966 120.742C165.966 120.742 162.544 125.015 163.057 127.237C163.395 128.696 165.652 137.166 167.938 144.548" stroke="#263238" stroke-miterlimit="10" stroke-linecap="round" stroke-linejoin="round"/>
<path d="M164.597 102.113C164.597 102.113 163.695 107.012 163.056 111.315L164.597 102.113Z" fill="white"/>
<path d="M164.597 102.113C164.597 102.113 163.695 107.012 163.056 111.315" stroke="#263238" stroke-miterlimit="10" stroke-linecap="round" stroke-linejoin="round"/>
<path d="M166.597 181.121L163.57 179.703" stroke="#263238" stroke-miterlimit="10" stroke-linecap="round" stroke-linejoin="round"/>
<path d="M163.57 175.088L171.954 178.506V183.633L168.119 181.835" stroke="#263238" stroke-miterlimit="10" stroke-linecap="round" stroke-linejoin="round"/>
<path d="M148.948 43.0864C146.977 41.2533 165.099 48.6279 169.488 66.5851L173.985 65.5689L173.885 64.2684C173.885 64.2684 172.7 38.449 193.344 33.4947C193.344 33.4947 194.043 39.1997 191.996 45.3217C191.996 45.3217 191.513 51.6665 191.73 53.5079C191.949 55.3486 187.08 63.2326 187.08 63.2326L184.7 68.2531C184.7 68.2531 189.134 69.7794 189.611 81.4711C189.611 81.4711 189.625 83.7965 190.75 85.6922C191.875 87.5879 192.086 93.3454 190.419 97.6298C189.041 101.175 182.798 105.629 180.077 106.594C179.424 106.825 178.752 106.985 178.063 107.071C175.612 107.378 168.312 105.684 164.346 102.262C164.346 102.262 161.213 98.5777 161.115 93.2562C161.018 87.9348 159.751 85.5259 159.751 85.5259C159.384 84.0707 158.616 81.0429 158.472 78.6909C158.183 73.9954 161.106 71.5023 161.106 71.5023C161.106 71.5023 148.475 66.9365 146.638 58.4496C144.804 49.9622 145.499 41.4836 145.499 41.4836L145.553 41.5022C156.025 44.9879 164.252 52.5752 168.016 62.3352C168.532 63.674 169.027 65.0925 169.488 66.5851" fill="#FEFEFE"/>
<path d="M148.948 43.0864C146.977 41.2533 165.099 48.6279 169.488 66.5851M169.488 66.5851L173.985 65.5689L173.885 64.2684C173.885 64.2684 172.7 38.449 193.344 33.4947C193.344 33.4947 194.043 39.1997 191.996 45.3217C191.996 45.3217 191.513 51.6665 191.73 53.5079C191.949 55.3486 187.08 63.2326 187.08 63.2326L184.7 68.2531C184.7 68.2531 189.134 69.7794 189.611 81.4711C189.611 81.4711 189.625 83.7965 190.75 85.6922C191.875 87.5879 192.086 93.3454 190.419 97.6298C189.041 101.175 182.798 105.629 180.077 106.594C179.424 106.825 178.752 106.985 178.063 107.071C175.612 107.378 168.312 105.684 164.346 102.262C164.346 102.262 161.213 98.5777 161.115 93.2562C161.018 87.9348 159.751 85.5259 159.751 85.5259C159.384 84.0707 158.616 81.0429 158.472 78.6909C158.183 73.9954 161.106 71.5023 161.106 71.5023C161.106 71.5023 148.475 66.9365 146.638 58.4496C144.804 49.9622 145.499 41.4836 145.499 41.4836L145.553 41.5022C156.025 44.9879 164.252 52.5752 168.016 62.3352C168.532 63.674 169.027 65.0925 169.488 66.5851Z" stroke="#231F20" stroke-width="0.4" stroke-miterlimit="10"/>
<path d="M170.443 92.8806C170.443 92.8806 168.903 102.127 172.752 105.725C176.601 109.323 180.051 107.075 180.689 106.722C181.329 106.369 186.957 103.424 179.724 91.0342C179.724 91.0342 178.847 95.2381 176.08 95.7433C173.31 96.2517 170.445 92.8773 170.445 92.8773L170.443 92.8806Z" fill="white" stroke="black" stroke-width="0.5" stroke-miterlimit="10"/>
<path d="M177.432 101.42C178.308 101.226 178.775 99.9713 178.475 98.6184C178.175 97.2654 177.222 96.3261 176.345 96.5203C175.469 96.7146 175.002 97.9689 175.302 99.3218C175.602 100.675 176.555 101.614 177.432 101.42Z" fill="#302312" stroke="black" stroke-miterlimit="10"/>
<path d="M170.247 94.4527C170.247 94.4527 170.255 99.7217 173.741 99.752C177.227 99.7823 176.128 95.9775 176.128 95.9775C176.128 95.9775 176.798 98.2241 177.378 98.5261C178.601 99.1582 183.97 100.313 180.083 91.7389" fill="white"/>
<path d="M170.247 94.4527C170.247 94.4527 170.255 99.7217 173.741 99.752C177.227 99.7823 176.128 95.9775 176.128 95.9775C176.128 95.9775 176.798 98.2241 177.378 98.5261C178.601 99.1582 183.97 100.313 180.083 91.7389" stroke="black" stroke-width="0.5" stroke-miterlimit="10"/>
<path d="M170.357 92.6823C170.068 92.2907 170.279 91.7272 170.743 91.6576C171.718 91.511 173.23 91.3619 174.407 91.59C176.295 91.9579 175.973 90.4342 178.427 90.0876C180.88 89.741 180.522 91.393 179.566 92.7859C178.645 94.1264 175.383 99.498 170.36 92.6817L170.357 92.6823Z" fill="#302312" stroke="black" stroke-miterlimit="10"/>
<path d="M161.413 80.9323C161.402 80.732 161.421 80.5193 161.465 80.3039C161.483 80.1945 161.52 80.0889 161.564 79.9874C161.608 79.8833 161.663 79.7822 161.716 79.6816C161.749 79.6325 161.783 79.586 161.817 79.5369L161.842 79.5008L161.854 79.4814L161.859 79.4775L161.928 79.3984C161.951 79.3682 161.97 79.3529 161.987 79.3408L162.04 79.2929C162.086 79.2606 162.124 79.2215 162.177 79.1959C162.366 79.0734 162.594 78.9895 162.842 78.9429C163.336 78.8445 163.882 78.8764 164.38 78.9577C164.883 79.0379 165.346 79.1768 165.734 79.3243C166.123 79.4743 166.436 79.6355 166.647 79.7637C166.667 79.7761 166.683 79.7864 166.702 79.7961C165.56 78.5739 162.81 78.1609 161.626 79.0763C160.597 79.8684 161.354 81.4927 161.631 82.0037C161.622 81.9752 161.614 81.9493 161.601 81.916C161.526 81.6797 161.433 81.3363 161.416 80.9344L161.413 80.9323Z" fill="black"/>
<path d="M166.469 89.3105C166.588 89.2953 166.706 89.2775 166.813 89.2593C166.922 89.2379 167.02 89.2077 167.115 89.184C167.303 89.1423 167.447 89.066 167.55 89.0293C167.557 89.0275 167.563 89.0263 167.567 89.0225C167.072 89.1407 165.091 89.5297 163.988 88.4185C163.988 88.4185 164 88.4464 164.027 88.4932C164.027 88.4959 164.03 88.4979 164.034 88.5026C164.115 88.5792 164.227 88.6961 164.387 88.8051C164.466 88.8625 164.556 88.915 164.653 88.9683C164.753 89.0184 164.857 89.0732 164.972 89.1145C165.085 89.1617 165.203 89.1965 165.327 89.2301C165.451 89.2638 165.58 89.2798 165.707 89.3043C165.837 89.3144 165.967 89.3245 166.093 89.3299C166.22 89.3268 166.347 89.3237 166.467 89.3138L166.469 89.3105Z" fill="black"/>
<path d="M166.984 86.1244C168.021 85.1948 167.969 83.4408 166.866 82.2068C165.763 80.9728 164.028 80.726 162.991 81.6556C161.953 82.5853 162.006 84.3392 163.108 85.5732C164.211 86.8073 165.946 87.054 166.984 86.1244Z" fill="white" stroke="black" stroke-width="0.5" stroke-miterlimit="10"/>
<path d="M166.473 86.1247C166.98 85.4665 166.83 84.4996 166.138 83.9651C165.446 83.4306 164.474 83.5309 163.968 84.1891C163.461 84.8473 163.611 85.8142 164.303 86.3487C164.995 86.8832 165.967 86.7829 166.473 86.1247Z" fill="black" stroke="black" stroke-miterlimit="10"/>
<path d="M166.252 85.7592C166.446 85.5118 166.382 85.1372 166.109 84.9224C165.836 84.7077 165.457 84.734 165.263 84.9814C165.069 85.2287 165.133 85.6033 165.406 85.8181C165.679 86.0329 166.058 86.0065 166.252 85.7592Z" fill="white"/>
<path d="M180.576 76.1185C180.654 75.9344 180.763 75.7491 180.897 75.5777C180.961 75.4886 181.04 75.4099 181.126 75.3352C181.213 75.2606 181.303 75.1933 181.397 75.128C181.449 75.0998 181.498 75.0722 181.55 75.044L181.59 75.0214L181.609 75.0087L181.614 75.0076L181.708 74.9673C181.743 74.9512 181.764 74.9465 181.788 74.9412L181.857 74.926C181.912 74.9137 181.964 74.8967 182.021 74.8923C182.246 74.8648 182.49 74.8912 182.729 74.9576C183.218 75.0854 183.691 75.353 184.106 75.6472C184.523 75.9382 184.877 76.271 185.162 76.5716C185.446 76.8755 185.654 77.1602 185.789 77.3692C185.801 77.3886 185.81 77.4033 185.823 77.4227C185.335 75.8248 183.048 74.2424 181.58 74.5427C180.309 74.8023 180.274 76.594 180.296 77.1724C180.3 77.141 180.303 77.1154 180.309 77.0807C180.347 76.8362 180.414 76.4879 180.576 76.1185Z" fill="black"/>
<path d="M183.382 85.7375C183.493 85.6852 183.595 85.632 183.695 85.5821C183.791 85.5301 183.877 85.4666 183.957 85.4155C184.122 85.318 184.234 85.1986 184.322 85.1319C184.326 85.1281 184.331 85.1242 184.338 85.1172C183.906 85.3852 182.144 86.3731 180.75 85.6626C180.75 85.6626 180.771 85.6856 180.81 85.7215C180.812 85.7209 180.816 85.7256 180.819 85.7277C180.919 85.7751 181.063 85.8515 181.25 85.9046C181.342 85.9341 181.445 85.9586 181.554 85.976C181.663 85.9935 181.779 86.015 181.901 86.0157C182.023 86.025 182.15 86.0218 182.275 86.0134C182.404 86.007 182.532 85.9815 182.659 85.9672C182.786 85.9364 182.912 85.9057 183.034 85.8702C183.155 85.8267 183.273 85.7839 183.385 85.7369L183.382 85.7375Z" fill="black"/>
<path d="M183.285 83.2289C184.627 82.8569 185.357 81.2631 184.915 79.6692C184.473 78.0753 183.028 77.0847 181.685 77.4567C180.343 77.8288 179.613 79.4225 180.055 81.0164C180.496 82.6104 181.942 83.6009 183.285 83.2289Z" fill="white" stroke="black" stroke-width="0.5" stroke-miterlimit="10"/>
<path d="M182.824 83.0192C183.572 82.6591 183.871 81.7279 183.492 80.9393C183.113 80.1508 182.199 79.8036 181.451 80.1638C180.703 80.5239 180.404 81.4551 180.783 82.2437C181.162 83.0322 182.076 83.3794 182.824 83.0192Z" fill="black" stroke="black" stroke-miterlimit="10"/>
<path d="M182.09 82.6907C182.373 82.5555 182.482 82.1916 182.333 81.8777C182.184 81.5639 181.833 81.419 181.549 81.5541C181.266 81.6893 181.157 82.0533 181.306 82.3671C181.455 82.681 181.806 82.8258 182.09 82.6907Z" fill="white"/>
<path d="M170.354 91.2304C170.354 91.2304 171.567 82.6731 171.142 81.4335C170.718 80.194 168.087 76.337 167.116 75.9605C166.145 75.584 169.435 77.0746 170.015 77.6852C170.594 78.2959 173.18 81.2764 172.803 83.58C172.426 85.8837 172.047 89.5212 172.047 89.5212L176.924 88.1428L176.032 83.4559L177.525 77.5012L176.863 83.8635L178.875 89.5582C178.875 89.5582 176.278 92.576 175.824 92.5295C175.37 92.4829 170.353 91.2251 170.353 91.2251L170.354 91.2304Z" fill="#EAEAEA"/>
<path d="M162.836 69.9955C162.836 69.9955 146.302 66.0198 147.49 47.5626C147.49 47.5626 156.048 46.7575 166.191 67.068L162.836 69.9955Z" fill="#D1D1D1"/>
<path d="M176.293 64.8926L182.181 67.2133L189.828 53.8372L189.99 44.2682L192.214 34.9144C192.214 34.9144 175.441 41.05 176.295 64.892L176.293 64.8926Z" fill="#D1D1D1"/>
<path d="M218.229 67.5825C218.229 67.5825 202.974 61.7088 201.968 61.5176C200.962 61.3264 188.774 61.2394 186.914 61.6288C185.054 62.0188 171.272 63.2641 171.396 64.1794C171.52 65.0951 173.045 65.6823 173.045 65.6823C173.045 65.6823 173.087 67.0283 177.575 68.4765C182.062 69.9242 193.109 70.5377 193.061 71.5695C193.014 72.6013 191.988 73.298 191.988 73.298L192.845 75.8397C192.845 75.8397 197.722 76.0233 199.52 75.1757C201.318 74.3282 206.454 71.5876 206.454 71.5876L215.942 74.1346L218.229 67.5825Z" fill="white" stroke="#263238" stroke-miterlimit="10" stroke-linecap="round" stroke-linejoin="round"/>
<path d="M182.796 62.9275C182.796 62.9275 175.814 64.4247 174.699 64.8078C173.584 65.1903 176.239 66.8844 178.017 66.9254C179.796 66.9662 186.895 65.6398 187.955 65.5435C189.015 65.4479 193.393 67.4697 196.616 68.5282C199.838 69.5866 202.327 69.0196 202.956 68.8415" fill="white"/>
<path d="M182.796 62.9275C182.796 62.9275 175.814 64.4247 174.699 64.8078C173.584 65.1903 176.239 66.8844 178.017 66.9254C179.796 66.9662 186.895 65.6398 187.955 65.5435C189.015 65.4479 193.393 67.4697 196.616 68.5282C199.838 69.5866 202.327 69.0196 202.956 68.8415" stroke="#263238" stroke-miterlimit="10" stroke-linecap="round" stroke-linejoin="round"/>
<path d="M252.794 97.9266C252.794 97.9266 247.496 98.3109 241.7 95.8175C235.905 93.324 221.437 82.3971 221.437 82.3971L211.118 77.13L216.065 64.8495C216.065 64.8495 242.993 73.4479 250.182 77.7721C257.371 82.0963 267.388 90.7855 266.605 93.0719C265.822 95.3583 258.645 99.2127 258.645 99.2127" fill="#7EEAB9"/>
<path d="M252.794 97.9266C252.794 97.9266 247.496 98.3109 241.7 95.8175C235.905 93.324 221.437 82.3971 221.437 82.3971L211.118 77.13L216.065 64.8495C216.065 64.8495 242.993 73.4479 250.182 77.7721C257.371 82.0963 267.388 90.7855 266.605 93.0719C265.822 95.3583 258.645 99.2127 258.645 99.2127" stroke="#263238" stroke-miterlimit="10" stroke-linecap="round" stroke-linejoin="round"/>
<path d="M159.244 152.486C159.244 152.486 169.54 164.269 178.226 160.306C186.913 156.342 191.203 130.954 191.203 130.954" stroke="#263238" stroke-miterlimit="10" stroke-linecap="round" stroke-linejoin="round"/>
<path d="M145.731 143.594C145.731 143.594 153.882 153.771 164.714 152.807C175.545 151.843 179.192 139.31 179.085 133.097" stroke="#263238" stroke-miterlimit="10" stroke-linecap="round" stroke-linejoin="round"/>
<path d="M150.432 137.222L146.994 136.068L141.575 152.175L145.014 153.33L150.432 137.222Z" fill="#7D7D7D" stroke="#263238" stroke-miterlimit="10" stroke-linecap="round" stroke-linejoin="round"/>
<path d="M151.978 135.764L146.643 133.974L145.846 136.343L151.181 138.133L151.978 135.764Z" fill="#263238" stroke="#263238" stroke-miterlimit="10" stroke-linecap="round" stroke-linejoin="round"/>
<path d="M158.021 139.769L154.582 138.615L149.164 154.722L152.602 155.876L158.021 139.769Z" fill="#7D7D7D" stroke="#263238" stroke-miterlimit="10" stroke-linecap="round" stroke-linejoin="round"/>
<path d="M159.566 138.311L154.23 136.521L153.434 138.889L158.77 140.68L159.566 138.311Z" fill="#263238" stroke="#263238" stroke-miterlimit="10" stroke-linecap="round" stroke-linejoin="round"/>
<path d="M156.745 143.56L145.599 139.819L141.456 152.136L152.601 155.877L156.745 143.56Z" fill="#263238" stroke="#263238" stroke-miterlimit="10" stroke-linecap="round" stroke-linejoin="round"/>
<path d="M142.419 160.365L132.021 156.876L137.533 147.786L143.519 149.794L142.419 160.365Z" fill="#7D7D7D" stroke="#263238" stroke-miterlimit="10" stroke-linecap="round" stroke-linejoin="round"/>
<path d="M142.409 160.364L132.012 156.875L128.304 167.896L138.702 171.386L142.409 160.364Z" fill="#636363" stroke="#263238" stroke-miterlimit="10" stroke-linecap="round" stroke-linejoin="round"/>
<path d="M148.647 139.392L139.718 136.395L136.011 147.417L144.939 150.413L148.647 139.392Z" fill="#636363" stroke="#263238" stroke-miterlimit="10" stroke-linecap="round" stroke-linejoin="round"/>
<path d="M157.596 165.458L147.198 161.969L152.711 152.879L158.697 154.888L157.596 165.458Z" fill="#7D7D7D" stroke="#263238" stroke-miterlimit="10" stroke-linecap="round" stroke-linejoin="round"/>
<path d="M157.588 165.458L147.19 161.968L143.482 172.989L153.88 176.479L157.588 165.458Z" fill="#636363" stroke="#263238" stroke-miterlimit="10" stroke-linecap="round" stroke-linejoin="round"/>
<path d="M163.823 144.485L154.895 141.489L151.187 152.51L160.116 155.507L163.823 144.485Z" fill="#636363" stroke="#263238" stroke-miterlimit="10" stroke-linecap="round" stroke-linejoin="round"/>
<path d="M136.194 135.66C136.194 135.66 134.982 137.654 135.339 138.223C135.695 138.793 139.188 140.715 139.687 140.857C140.186 140.999 141.54 140.288 141.469 139.362C141.398 138.436 138.689 136.443 137.834 135.945C136.978 135.447 136.55 135.376 136.194 135.66Z" fill="white" stroke="#263238" stroke-miterlimit="10" stroke-linecap="round" stroke-linejoin="round"/>
<path d="M134.274 139.599C134.274 139.599 133.69 141.857 134.196 142.3C134.702 142.742 138.601 143.576 139.12 143.568C139.639 143.561 140.729 142.489 140.394 141.623C140.058 140.758 136.889 139.629 135.926 139.399C134.963 139.168 134.533 139.224 134.274 139.599Z" fill="white" stroke="#263238" stroke-miterlimit="10" stroke-linecap="round" stroke-linejoin="round"/>
<path d="M133.205 143.515C133.205 143.515 132.621 145.773 133.127 146.216C133.633 146.658 137.532 147.492 138.051 147.485C138.57 147.477 139.66 146.405 139.325 145.539C138.99 144.673 135.82 143.546 134.857 143.315C133.894 143.085 133.464 143.139 133.205 143.515Z" fill="white" stroke="#263238" stroke-miterlimit="10" stroke-linecap="round" stroke-linejoin="round"/>
<path d="M133.704 147.288C133.704 147.288 133.12 149.546 133.626 149.989C134.132 150.431 138.031 151.265 138.55 151.257C139.069 151.25 140.16 150.178 139.824 149.312C139.489 148.446 136.319 147.318 135.356 147.088C134.393 146.857 133.963 146.913 133.704 147.288Z" fill="white" stroke="#263238" stroke-miterlimit="10" stroke-linecap="round" stroke-linejoin="round"/>
</svg>
