<svg width="24" height="24" viewBox="0 0 24 24" fill="none" xmlns="http://www.w3.org/2000/svg">
<g clip-path="url(#clip0_40000267_1327)">
<path d="M4 19.9982C3.71667 19.9982 3.47917 19.9023 3.2875 19.7107C3.09583 19.519 3 19.2815 3 18.9982V17.9982C3 17.7148 3.09583 17.4773 3.2875 17.2857C3.47917 17.094 3.71667 16.9982 4 16.9982C4.28333 16.9982 4.52083 17.094 4.7125 17.2857C4.90417 17.4773 5 17.7148 5 17.9982V18.9982C5 19.2815 4.90417 19.519 4.7125 19.7107C4.52083 19.9023 4.28333 19.9982 4 19.9982ZM8 19.9982C7.71667 19.9982 7.47917 19.9023 7.2875 19.7107C7.09583 19.519 7 19.2815 7 18.9982V13.4982C7 13.2148 7.09583 12.9773 7.2875 12.7857C7.47917 12.594 7.71667 12.4982 8 12.4982C8.28333 12.4982 8.52083 12.594 8.7125 12.7857C8.90417 12.9773 9 13.2148 9 13.4982V18.9982C9 19.2815 8.90417 19.519 8.7125 19.7107C8.52083 19.9023 8.28333 19.9982 8 19.9982ZM12 19.9982C11.7167 19.9982 11.4792 19.9023 11.2875 19.7107C11.0958 19.519 11 19.2815 11 18.9982V15.4982C11 15.2148 11.0958 14.9773 11.2875 14.7857C11.4792 14.594 11.7167 14.4982 12 14.4982C12.2833 14.4982 12.5208 14.594 12.7125 14.7857C12.9042 14.9773 13 15.2148 13 15.4982V18.9982C13 19.2815 12.9042 19.519 12.7125 19.7107C12.5208 19.9023 12.2833 19.9982 12 19.9982ZM16 19.9982C15.7167 19.9982 15.4792 19.9023 15.2875 19.7107C15.0958 19.519 15 19.2815 15 18.9982V13.9982C15 13.7148 15.0958 13.4773 15.2875 13.2857C15.4792 13.094 15.7167 12.9982 16 12.9982C16.2833 12.9982 16.5208 13.094 16.7125 13.2857C16.9042 13.4773 17 13.7148 17 13.9982V18.9982C17 19.2815 16.9042 19.519 16.7125 19.7107C16.5208 19.9023 16.2833 19.9982 16 19.9982ZM20 19.9982C19.7167 19.9982 19.4792 19.9023 19.2875 19.7107C19.0958 19.519 19 19.2815 19 18.9982V9.99816C19 9.71482 19.0958 9.47732 19.2875 9.28566C19.4792 9.09399 19.7167 8.99816 20 8.99816C20.2833 8.99816 20.5208 9.09399 20.7125 9.28566C20.9042 9.47732 21 9.71482 21 9.99816V18.9982C21 19.2815 20.9042 19.519 20.7125 19.7107C20.5208 19.9023 20.2833 19.9982 20 19.9982ZM14 10.9732C13.7333 10.9732 13.4792 10.9232 13.2375 10.8232C12.9958 10.7232 12.775 10.5815 12.575 10.3982L10 7.82316L4.7 13.1232C4.5 13.3232 4.2625 13.419 3.9875 13.4107C3.7125 13.4023 3.475 13.2982 3.275 13.0982C3.09167 12.8982 3.00417 12.6607 3.0125 12.3857C3.02083 12.1107 3.11667 11.8815 3.3 11.6982L8.575 6.42316C8.775 6.22316 8.99583 6.07732 9.2375 5.98566C9.47917 5.89399 9.73333 5.84816 10 5.84816C10.2667 5.84816 10.525 5.89399 10.775 5.98566C11.025 6.07732 11.2417 6.22316 11.425 6.42316L14 8.99816L19.3 3.69816C19.5 3.49816 19.7375 3.40232 20.0125 3.41066C20.2875 3.41899 20.525 3.52316 20.725 3.72316C20.9083 3.92316 20.9958 4.16066 20.9875 4.43566C20.9792 4.71066 20.8833 4.93982 20.7 5.12316L15.425 10.3982C15.2417 10.5815 15.025 10.7232 14.775 10.8232C14.525 10.9232 14.2667 10.9732 14 10.9732Z" fill="#8F8F8F"/>
</g>
<defs>
<clipPath id="clip0_40000267_1327">
<rect width="24" height="24" fill="white"/>
</clipPath>
</defs>
</svg>
