<svg width="1440" height="602" viewBox="0 0 1440 602" fill="none" xmlns="http://www.w3.org/2000/svg">
<path d="M1292.92 552.056H1234.13V560.133H1292.92V552.056Z" fill="#1A5E3F"/>
<path d="M1293.02 560.234H1234.03V551.955H1293.02V560.234ZM1234.23 560.033H1292.82V552.156H1234.23V560.033Z" fill="#1A5E3F"/>
<path d="M1239.58 557.445L1248.05 599.191H1279.36L1287.54 560.133L1239.58 557.445Z" fill="#1A5E3F"/>
<path d="M1239.58 595.242L1244.1 601.447H1282.15L1287.54 595.242H1239.58Z" fill="#227B53"/>
<path d="M1261.32 558.664C1261.2 558.664 1261.06 539.325 1260.99 515.473C1260.92 491.613 1260.96 472.277 1261.08 472.276C1261.19 472.276 1261.34 491.611 1261.41 515.471C1261.48 539.323 1261.44 558.664 1261.32 558.664Z" fill="#1A5E3F"/>
<path d="M1274.42 510.267C1274.43 510.273 1274.37 510.428 1274.26 510.717C1274.12 511.045 1273.95 511.459 1273.73 511.968C1273.62 512.244 1273.49 512.544 1273.35 512.869C1273.23 513.21 1273.1 513.577 1272.96 513.967C1272.82 514.363 1272.66 514.783 1272.5 515.227C1272.35 515.674 1272.22 516.16 1272.07 516.663C1271.43 518.666 1270.92 521.125 1270.43 523.86C1270 526.609 1269.68 529.653 1269.52 532.861C1269.23 539.285 1269.59 545.109 1269.98 549.303C1270.17 551.402 1270.36 553.098 1270.5 554.27C1270.56 554.819 1270.61 555.266 1270.65 555.62C1270.68 555.93 1270.69 556.093 1270.67 556.095C1270.66 556.097 1270.62 555.938 1270.56 555.632C1270.51 555.28 1270.43 554.837 1270.34 554.292C1270.15 553.126 1269.91 551.433 1269.69 549.333C1269.22 545.137 1268.81 539.295 1269.1 532.842C1269.26 529.619 1269.59 526.559 1270.05 523.798C1270.56 521.049 1271.1 518.583 1271.79 516.576C1271.95 516.074 1272.09 515.587 1272.25 515.14C1272.42 514.698 1272.59 514.279 1272.74 513.885C1272.89 513.496 1273.03 513.132 1273.16 512.794C1273.31 512.465 1273.46 512.17 1273.58 511.903C1273.83 511.405 1274.02 511.001 1274.18 510.68C1274.32 510.403 1274.4 510.261 1274.42 510.267Z" fill="#1A5E3F"/>
<path d="M1272.91 494.624C1272.93 494.629 1272.86 494.849 1272.73 495.262C1272.57 495.709 1272.37 496.308 1272.11 497.06C1271.98 497.453 1271.83 497.886 1271.66 498.356C1271.52 498.838 1271.36 499.359 1271.19 499.918C1270.85 501.037 1270.45 502.309 1270.09 503.739C1269.91 504.453 1269.71 505.199 1269.5 505.975C1269.33 506.76 1269.14 507.575 1268.95 508.42C1268.54 510.104 1268.25 511.932 1267.87 513.843C1267.22 517.683 1266.65 521.93 1266.26 526.409C1265.88 530.892 1265.72 535.175 1265.67 539.072C1265.65 542.97 1265.7 546.481 1265.86 549.425C1265.91 550.898 1266.01 552.228 1266.08 553.397C1266.15 554.566 1266.23 555.573 1266.3 556.394C1266.36 557.186 1266.41 557.816 1266.44 558.288C1266.47 558.722 1266.48 558.951 1266.47 558.952C1266.45 558.954 1266.42 558.728 1266.36 558.297C1266.3 557.827 1266.23 557.199 1266.14 556.409C1266.04 555.589 1265.94 554.584 1265.85 553.415C1265.75 552.246 1265.64 550.915 1265.57 549.44C1265.37 546.493 1265.29 542.975 1265.28 539.069C1265.31 535.164 1265.46 530.869 1265.84 526.373C1266.23 521.882 1266.82 517.623 1267.49 513.775C1267.88 511.861 1268.19 510.029 1268.61 508.344C1268.81 507.499 1269.01 506.682 1269.19 505.896C1269.4 505.12 1269.61 504.374 1269.81 503.661C1270.18 502.231 1270.6 500.961 1270.97 499.846C1271.15 499.29 1271.32 498.772 1271.47 498.291C1271.65 497.824 1271.81 497.394 1271.96 497.004C1272.25 496.263 1272.47 495.672 1272.65 495.231C1272.81 494.829 1272.9 494.619 1272.91 494.624Z" fill="#1A5E3F"/>
<path d="M1257.6 562.085C1257.59 562.085 1257.58 562.009 1257.57 561.859C1257.55 561.686 1257.53 561.467 1257.51 561.193C1257.47 560.577 1257.41 559.721 1257.34 558.632C1257.2 556.376 1257 553.166 1256.75 549.212C1256.24 541.26 1255.5 530.272 1254.16 518.191C1253.48 512.149 1252.69 506.412 1251.86 501.211C1251.42 498.614 1251.03 496.143 1250.58 493.845C1250.16 491.539 1249.72 489.404 1249.31 487.455C1248.92 485.501 1248.49 483.752 1248.14 482.207C1247.8 480.662 1247.47 479.339 1247.2 478.261C1246.94 477.201 1246.73 476.368 1246.59 475.768C1246.53 475.501 1246.48 475.288 1246.44 475.117C1246.41 474.97 1246.39 474.893 1246.4 474.892C1246.41 474.89 1246.43 474.962 1246.48 475.106C1246.53 475.274 1246.59 475.484 1246.67 475.746C1246.83 476.342 1247.06 477.169 1247.36 478.22C1247.66 479.294 1248.01 480.612 1248.37 482.154C1248.74 483.693 1249.19 485.441 1249.6 487.393C1250.02 489.341 1250.49 491.475 1250.92 493.78C1251.38 496.079 1251.79 498.551 1252.24 501.148C1253.09 506.353 1253.9 512.096 1254.58 518.143C1255.92 530.238 1256.61 541.235 1257.05 549.194C1257.26 553.174 1257.41 556.396 1257.5 558.623C1257.54 559.714 1257.57 560.572 1257.6 561.189C1257.6 561.462 1257.61 561.683 1257.61 561.857C1257.61 562.008 1257.61 562.085 1257.6 562.085Z" fill="#1A5E3F"/>
<path d="M1260.84 481.573C1260.58 478.833 1257.82 476.767 1255.06 476.739C1252.31 476.71 1249.75 478.361 1248.07 480.537C1246.38 482.715 1245.45 485.373 1244.7 488.018C1242.84 494.473 1241.83 501.255 1242.62 507.923C1243.41 514.592 1246.12 521.158 1250.91 525.869C1251.68 526.635 1252.69 527.401 1253.76 527.174C1254.34 527.049 1254.82 526.644 1255.26 526.243C1264.67 517.751 1270.09 505.032 1269.72 492.369C1269.65 489.834 1269.31 487.194 1267.91 485.082C1266.5 482.969 1263.23 480.726 1260.84 481.573Z" fill="#7EEAB9"/>
<path d="M1240.29 459.629C1239 461.968 1237.71 464.307 1236.42 466.647C1236.33 466.811 1236.21 466.994 1236.02 467.01C1235.82 467.026 1235.66 466.834 1235.55 466.663C1232.14 461.422 1228.72 456.179 1225.31 450.938L1227.67 449.6L1240.29 459.629Z" fill="#7EEAB9"/>
<g opacity="0.2">
<path d="M1240.29 459.629C1239 461.968 1237.71 464.307 1236.42 466.647C1236.33 466.811 1236.21 466.994 1236.02 467.01C1235.82 467.026 1235.66 466.834 1235.55 466.663C1232.14 461.422 1228.72 456.179 1225.31 450.938L1227.67 449.6L1240.29 459.629Z" fill="black"/>
</g>
<path d="M1261.08 472.276C1249.43 465.401 1237.78 458.526 1226.13 451.652C1225.77 451.442 1225.38 451.193 1225.27 450.794C1225.14 450.277 1225.52 449.777 1225.9 449.393C1230.7 444.434 1237.69 441.56 1244.57 442.055C1251.46 442.551 1258.09 446.53 1261.46 452.557C1264.83 458.584 1264.95 466.555 1261.08 472.276Z" fill="#7EEAB9"/>
<path d="M1231.16 445.068C1231.16 445.054 1231.32 445.035 1231.62 445.011C1231.92 444.996 1232.37 444.941 1232.94 444.947C1234.09 444.919 1235.76 444.994 1237.79 445.333C1239.82 445.666 1242.21 446.32 1244.7 447.431C1247.19 448.537 1249.76 450.138 1252.11 452.241C1254.44 454.367 1256.29 456.772 1257.64 459.14C1258.99 461.509 1259.88 463.817 1260.41 465.803C1260.95 467.79 1261.19 469.444 1261.28 470.59C1261.34 471.161 1261.32 471.308 1261.33 471.609C1261.34 471.911 1261.08 472.371 1261.06 472.371C1261.03 472.373 1261.26 471.74 1261.12 470.607C1260.98 469.473 1260.7 467.841 1260.13 465.884C1259.02 461.992 1256.46 456.743 1251.83 452.551C1247.2 448.366 1241.72 446.336 1237.74 445.625C1235.73 445.253 1234.08 445.133 1232.94 445.111C1231.8 445.086 1231.16 445.106 1231.16 445.068Z" fill="#1A5E3F"/>
<path d="M1256.35 458.041C1256.37 458.094 1255.69 458.405 1254.58 458.844C1253.47 459.283 1251.91 459.844 1250.17 460.397C1248.43 460.95 1246.83 461.389 1245.67 461.673C1244.51 461.957 1243.78 462.092 1243.76 462.037C1243.75 461.98 1244.45 461.745 1245.59 461.388C1246.88 460.986 1248.38 460.515 1250.04 459.997C1251.7 459.462 1253.2 458.979 1254.48 458.565C1255.62 458.199 1256.33 457.986 1256.35 458.041Z" fill="#1A5E3F"/>
<path d="M1250.84 443.256C1250.96 443.246 1251.2 444.989 1251.26 447.155C1251.31 449.322 1251.15 451.076 1251.04 451.07C1250.92 451.066 1250.89 449.318 1250.84 447.166C1250.78 445.015 1250.73 443.267 1250.84 443.256Z" fill="#1A5E3F"/>
<path d="M1225.82 451.261C1225.8 451.208 1226.77 450.857 1228.36 450.368C1229.95 449.878 1232.16 449.258 1234.62 448.664C1237.09 448.07 1239.34 447.615 1240.98 447.328C1242.62 447.04 1243.64 446.912 1243.65 446.967C1243.66 447.026 1242.66 447.257 1241.04 447.618C1239.42 447.979 1237.18 448.479 1234.72 449.07C1232.26 449.663 1230.05 450.236 1228.44 450.652C1226.83 451.068 1225.84 451.318 1225.82 451.261Z" fill="#1A5E3F"/>
<path d="M1246.33 475.629C1243.33 473.35 1240.15 472.901 1236.38 473.051C1232.61 473.2 1228.94 474.349 1225.49 475.862C1219.59 478.444 1214.05 482.248 1210.53 487.633C1207.01 493.018 1205.78 500.147 1208.42 506.016C1208.68 506.601 1209.02 507.212 1209.61 507.464C1210.23 507.73 1210.94 507.522 1211.59 507.313C1218.29 505.127 1225.04 502.919 1231.2 499.495C1237.37 496.07 1242.98 491.31 1246.28 485.083C1247.08 483.589 1247.74 481.987 1247.87 480.301C1248 478.613 1247.54 476.82 1246.33 475.629Z" fill="#7EEAB9"/>
<path d="M1246.39 474.922C1246.4 474.936 1246.23 475.003 1245.91 475.118C1245.55 475.242 1245.08 475.403 1244.51 475.601C1244.2 475.704 1243.86 475.817 1243.49 475.94C1243.12 476.072 1242.73 476.238 1242.3 476.403C1241.45 476.746 1240.47 477.089 1239.43 477.592C1238.91 477.831 1238.36 478.08 1237.79 478.341C1237.22 478.603 1236.65 478.927 1236.05 479.234C1234.83 479.831 1233.6 480.593 1232.29 481.367C1229.72 482.991 1227 484.946 1224.36 487.253C1221.73 489.585 1219.45 492.035 1217.51 494.376C1216.57 495.577 1215.66 496.698 1214.91 497.828C1214.53 498.386 1214.14 498.91 1213.8 499.441C1213.47 499.974 1213.16 500.486 1212.85 500.976C1212.22 501.94 1211.76 502.873 1211.31 503.67C1211.09 504.072 1210.88 504.441 1210.7 504.79C1210.53 505.139 1210.37 505.461 1210.23 505.756C1209.96 506.302 1209.74 506.744 1209.57 507.087C1209.42 507.389 1209.33 507.546 1209.32 507.54C1209.3 507.534 1209.37 507.366 1209.5 507.052C1209.65 506.7 1209.84 506.246 1210.08 505.685C1210.22 505.385 1210.36 505.057 1210.52 504.701C1210.69 504.346 1210.89 503.97 1211.1 503.562C1211.53 502.75 1211.98 501.803 1212.6 500.824C1212.9 500.327 1213.21 499.807 1213.53 499.267C1213.86 498.727 1214.25 498.197 1214.63 497.631C1215.37 496.486 1216.27 495.349 1217.21 494.134C1219.14 491.762 1221.44 489.287 1224.08 486.938C1226.75 484.616 1229.49 482.655 1232.09 481.038C1233.41 480.269 1234.66 479.513 1235.89 478.925C1236.5 478.623 1237.07 478.305 1237.65 478.048C1238.23 477.796 1238.78 477.552 1239.31 477.32C1240.36 476.833 1241.36 476.507 1242.22 476.183C1242.65 476.027 1243.05 475.872 1243.42 475.75C1243.8 475.64 1244.14 475.538 1244.46 475.445C1245.04 475.278 1245.52 475.142 1245.89 475.036C1246.22 474.948 1246.39 474.908 1246.39 474.922Z" fill="#1A5E3F"/>
<path d="M1222.91 487.638C1222.94 487.749 1219.67 488.804 1215.6 489.994C1211.53 491.184 1208.2 492.059 1208.17 491.948C1208.13 491.837 1211.41 490.782 1215.48 489.591C1219.55 488.402 1222.88 487.527 1222.91 487.638Z" fill="#1A5E3F"/>
<path d="M1222.61 503.774C1222.55 503.775 1222.49 502.904 1222.45 501.496C1222.41 500.087 1222.4 498.14 1222.46 495.991C1222.52 493.841 1222.64 491.897 1222.76 490.493C1222.87 489.089 1222.99 488.224 1223.04 488.227C1223.1 488.231 1223.09 489.103 1223.05 490.51C1223 492.053 1222.95 493.929 1222.88 496.002C1222.83 498.076 1222.78 499.952 1222.74 501.495C1222.71 502.902 1222.67 503.773 1222.61 503.774Z" fill="#1A5E3F"/>
<path d="M1236.43 496.732C1236.32 496.74 1235.95 492.783 1235.61 487.895C1235.27 483.006 1235.09 479.037 1235.21 479.029C1235.32 479.021 1235.69 482.977 1236.03 487.866C1236.37 492.755 1236.55 496.724 1236.43 496.732Z" fill="#1A5E3F"/>
<path d="M1219.23 478.646C1219.23 478.588 1220.12 478.566 1221.57 478.576C1223.01 478.586 1225.01 478.629 1227.21 478.701C1229.42 478.774 1231.41 478.863 1232.85 478.949C1234.29 479.035 1235.19 479.117 1235.18 479.175C1235.18 479.232 1234.29 479.255 1232.84 479.245C1231.4 479.236 1229.4 479.192 1227.2 479.12C1224.99 479.047 1223 478.958 1221.56 478.872C1220.11 478.786 1219.22 478.704 1219.23 478.646Z" fill="#1A5E3F"/>
<path d="M1252.4 526.788C1252.39 526.788 1252.37 526.628 1252.35 526.321C1252.34 525.969 1252.32 525.524 1252.29 524.976C1252.24 523.808 1252.23 522.116 1252.27 520.026C1252.31 517.936 1252.45 515.449 1252.7 512.695C1252.98 509.943 1253.37 506.925 1253.93 503.782C1254.51 500.639 1255.21 497.674 1255.92 494.999C1256.66 492.33 1257.4 489.948 1258.1 487.973C1258.8 485.997 1259.41 484.413 1259.87 483.335C1260.08 482.829 1260.26 482.418 1260.4 482.094C1260.53 481.812 1260.6 481.667 1260.61 481.671C1260.62 481.677 1260.58 481.833 1260.48 482.124C1260.36 482.456 1260.21 482.875 1260.02 483.391C1259.61 484.485 1259.04 486.081 1258.38 488.064C1257.72 490.046 1257.01 492.429 1256.3 495.095C1255.6 497.766 1254.92 500.723 1254.35 503.853C1253.78 506.985 1253.38 509.99 1253.09 512.731C1252.82 515.474 1252.64 517.951 1252.57 520.035C1252.49 522.118 1252.45 523.807 1252.46 524.974C1252.45 525.522 1252.44 525.966 1252.44 526.318C1252.43 526.626 1252.42 526.788 1252.4 526.788Z" fill="#1A5E3F"/>
<path d="M1254.25 503.904C1254.29 503.945 1253.76 504.533 1252.85 505.434C1251.95 506.336 1250.67 507.547 1249.2 508.832C1247.73 510.116 1246.37 511.231 1245.35 512.009C1244.34 512.788 1243.69 513.235 1243.65 513.191C1243.62 513.144 1244.2 512.616 1245.17 511.78C1246.24 510.848 1247.51 509.74 1248.92 508.517C1250.32 507.28 1251.58 506.162 1252.65 505.219C1253.6 504.374 1254.21 503.862 1254.25 503.904Z" fill="#1A5E3F"/>
<path d="M1265.31 512.816C1265.26 512.848 1264.71 512.052 1263.83 510.759C1262.87 509.365 1261.68 507.634 1260.37 505.719C1259.03 503.823 1257.82 502.108 1256.85 500.728C1255.94 499.454 1255.39 498.657 1255.43 498.621C1255.48 498.587 1256.11 499.32 1257.08 500.551C1258.05 501.782 1259.35 503.517 1260.72 505.48C1262.08 507.443 1263.26 509.262 1264.07 510.599C1264.89 511.935 1265.36 512.786 1265.31 512.816Z" fill="#1A5E3F"/>
<path d="M1259.52 484.79C1259.58 484.888 1255.9 487.362 1251.31 490.315C1246.71 493.27 1242.94 495.586 1242.87 495.489C1242.81 495.392 1246.49 492.918 1251.08 489.963C1255.68 487.009 1259.45 484.692 1259.52 484.79Z" fill="#1A5E3F"/>
<path d="M1269.88 495.974C1269.8 496.057 1267.31 493.757 1264.32 490.837C1261.33 487.917 1258.97 485.484 1259.05 485.401C1259.13 485.318 1261.62 487.617 1264.61 490.538C1267.6 493.458 1269.96 495.891 1269.88 495.974Z" fill="#1A5E3F"/>
<path d="M1272.48 495.75L1275.64 495.489C1277.88 495.304 1280.05 494.64 1282.01 493.539C1282.98 492.994 1283.95 492.461 1284.98 492.047C1288.88 490.482 1293.23 490.762 1297.43 490.551C1304.28 490.207 1311.06 488.475 1317.23 485.487C1317.59 485.314 1317.9 485.051 1318.09 484.704C1318.74 483.523 1317.54 482.472 1316.5 481.834C1311.19 478.559 1305.78 475.242 1299.75 473.617C1293.72 471.991 1286.88 472.266 1281.74 475.805C1275.7 479.96 1273.5 488.492 1272.48 495.75Z" fill="#7EEAB9"/>
<path d="M1318.17 484.315C1318.16 484.327 1317.98 484.242 1317.63 484.066C1317.25 483.868 1316.76 483.608 1316.14 483.283C1314.84 482.601 1312.97 481.594 1310.61 480.463C1308.25 479.344 1305.39 478.081 1302.06 477.169C1298.75 476.248 1294.93 475.765 1290.98 476.271C1287.06 476.788 1283.44 478.316 1280.88 480.608C1278.31 482.893 1276.73 485.652 1275.62 487.995C1274.51 490.36 1273.83 492.372 1273.33 493.747C1273.1 494.407 1272.91 494.936 1272.77 495.338C1272.64 495.701 1272.56 495.89 1272.55 495.885C1272.54 495.881 1272.59 495.684 1272.69 495.312C1272.82 494.903 1272.98 494.366 1273.18 493.695C1273.63 492.301 1274.27 490.271 1275.35 487.87C1276.44 485.492 1278 482.674 1280.63 480.318C1283.23 477.953 1286.93 476.379 1290.93 475.854C1294.94 475.339 1298.82 475.844 1302.17 476.795C1305.52 477.738 1308.39 479.038 1310.74 480.195C1313.09 481.365 1314.94 482.413 1316.21 483.138C1316.82 483.492 1317.3 483.775 1317.67 483.99C1318 484.191 1318.17 484.303 1318.17 484.315Z" fill="#1A5E3F"/>
<path d="M1310.59 488.385C1310.53 488.482 1306.4 485.812 1301.38 482.424C1296.35 479.036 1292.33 476.212 1292.39 476.116C1292.46 476.02 1296.58 478.688 1301.61 482.077C1306.63 485.465 1310.65 488.29 1310.59 488.385Z" fill="#1A5E3F"/>
<path d="M1306.19 475.899C1306.21 475.991 1304.87 476.302 1303.19 476.439C1301.5 476.58 1300.12 476.493 1300.12 476.399C1300.12 476.299 1301.48 476.23 1303.15 476.09C1304.82 475.955 1306.17 475.801 1306.19 475.899Z" fill="#1A5E3F"/>
<path d="M1288.13 473.545C1288.23 473.591 1287.62 474.538 1286.77 475.659C1285.93 476.781 1285.16 477.653 1285.06 477.607C1284.96 477.562 1285.56 476.615 1286.41 475.493C1287.26 474.372 1288.03 473.499 1288.13 473.545Z" fill="#1A5E3F"/>
<path d="M1291.82 490.816C1291.79 490.863 1291.03 490.463 1289.84 489.739C1288.65 489.016 1287.04 487.956 1285.31 486.706C1283.59 485.456 1282.08 484.274 1280.98 483.409C1279.9 482.543 1279.24 481.987 1279.27 481.94C1279.31 481.894 1280.03 482.366 1281.16 483.172C1282.4 484.072 1283.9 485.161 1285.56 486.367C1287.28 487.612 1288.85 488.705 1290 489.49C1291.15 490.275 1291.86 490.765 1291.82 490.816Z" fill="#1A5E3F"/>
<path d="M1277.13 509.152C1274.12 508.358 1270.53 511.284 1269.91 514.335C1269.29 517.385 1270.44 520.504 1271.78 523.313C1274.74 529.532 1278.83 535.3 1284.22 539.594C1289.61 543.887 1296.35 546.633 1303.24 546.598C1301.97 540.69 1303.58 534.516 1302.87 528.515C1302.25 523.276 1299.81 518.27 1296.06 514.559C1292.31 510.848 1287.28 508.455 1282.04 507.888C1280.12 507.68 1277.89 507.379 1277.13 509.152Z" fill="#7EEAB9"/>
<path d="M1303.24 546.598C1303.24 546.61 1303.09 546.542 1302.82 546.399C1302.54 546.25 1302.15 546.011 1301.69 545.643C1300.75 544.926 1299.66 543.544 1298.72 541.669C1298.24 540.737 1297.7 539.726 1297.18 538.606C1296.67 537.482 1296.13 536.285 1295.56 535.028C1294.99 533.774 1294.36 532.473 1293.57 531.203C1292.79 529.931 1291.86 528.688 1290.83 527.479C1288.77 525.059 1286.56 522.966 1284.65 520.966C1282.72 518.974 1281.1 517.055 1279.93 515.307C1278.75 513.565 1278.03 512.005 1277.62 510.904C1277.43 510.349 1277.29 509.915 1277.22 509.613C1277.15 509.313 1277.11 509.154 1277.13 509.151C1277.17 509.139 1277.34 509.765 1277.78 510.844C1278.23 511.916 1278.97 513.436 1280.17 515.138C1281.36 516.846 1282.99 518.728 1284.92 520.696C1286.85 522.674 1289.07 524.763 1291.15 527.207C1292.19 528.428 1293.13 529.691 1293.92 530.988C1294.71 532.282 1295.34 533.603 1295.91 534.867C1296.47 536.13 1297 537.331 1297.49 538.459C1298 539.574 1298.52 540.596 1298.98 541.532C1299.89 543.411 1300.9 544.772 1301.79 545.517C1302.67 546.276 1303.27 546.557 1303.24 546.598Z" fill="#1A5E3F"/>
<path d="M1287.68 541.688C1287.63 541.677 1287.72 540.901 1287.96 539.662C1288.2 538.423 1288.58 536.722 1289.1 534.869C1289.63 533.015 1290.19 531.362 1290.63 530.182C1291.08 529.002 1291.4 528.291 1291.45 528.31C1291.51 528.331 1291.28 529.078 1290.91 530.278C1290.54 531.478 1290.03 533.137 1289.51 534.981C1288.99 536.827 1288.56 538.507 1288.25 539.725C1287.94 540.945 1287.74 541.7 1287.68 541.688Z" fill="#1A5E3F"/>
<path d="M1302.67 527.185C1302.66 527.242 1301.85 527.037 1300.55 526.698C1299.26 526.358 1297.47 525.896 1295.48 525.447C1293.48 524.998 1291.67 524.649 1290.35 524.4C1289.03 524.151 1288.22 523.991 1288.23 523.931C1288.23 523.877 1289.06 523.932 1290.4 524.107C1291.73 524.282 1293.56 524.587 1295.57 525.037C1297.57 525.489 1299.36 526 1300.64 526.413C1301.92 526.826 1302.69 527.132 1302.67 527.185Z" fill="#1A5E3F"/>
<path d="M1276.52 531.399C1276.46 531.388 1276.58 530.491 1276.84 529.055C1277.11 527.619 1277.53 525.643 1278.09 523.486C1278.66 521.328 1279.25 519.399 1279.73 518.017C1280.2 516.634 1280.53 515.796 1280.59 515.813C1280.64 515.832 1280.41 516.703 1280.01 518.105C1279.61 519.508 1279.06 521.443 1278.5 523.593C1277.94 525.742 1277.47 527.699 1277.13 529.117C1276.8 530.534 1276.58 531.41 1276.52 531.399Z" fill="#1A5E3F"/>
<path d="M1295.77 514.545C1295.76 514.66 1292 514.357 1287.38 513.866C1282.76 513.376 1279.02 512.885 1279.04 512.771C1279.05 512.656 1282.8 512.96 1287.43 513.45C1292.05 513.939 1295.78 514.43 1295.77 514.545Z" fill="#1A5E3F"/>
<path d="M1293.02 560.1C1293.02 560.215 1279.81 560.309 1263.53 560.309C1247.24 560.309 1234.04 560.215 1234.04 560.1C1234.04 559.984 1247.24 559.891 1263.53 559.891C1279.81 559.89 1293.02 559.983 1293.02 560.1Z" fill="#227B53"/>
<path d="M1283.83 577.093C1283.83 577.208 1274.94 577.303 1263.96 577.303C1252.99 577.303 1244.09 577.209 1244.09 577.093C1244.09 576.977 1252.99 576.884 1263.96 576.884C1274.94 576.883 1283.83 576.977 1283.83 577.093Z" fill="#227B53"/>
<path d="M1283.49 579.523C1283.49 579.638 1274.74 579.732 1263.96 579.732C1253.18 579.732 1244.44 579.638 1244.44 579.523C1244.44 579.407 1253.18 579.313 1263.96 579.313C1274.74 579.313 1283.49 579.407 1283.49 579.523Z" fill="#227B53"/>
<path d="M1284.18 575.089C1284.18 575.205 1274.98 575.299 1263.63 575.299C1252.27 575.299 1243.07 575.206 1243.07 575.089C1243.07 574.974 1252.27 574.88 1263.63 574.88C1274.98 574.88 1284.18 574.974 1284.18 575.089Z" fill="#227B53"/>
<rect x="1100.92" y="89.1162" width="148" height="191" rx="20" transform="rotate(-14.0142 1100.92 89.1162)" fill="url(#paint0_linear_40000219_3195)"/>
<rect x="1087.25" y="107.064" width="147" height="190" rx="19.5" transform="rotate(-19.2175 1087.25 107.064)" stroke="url(#paint1_linear_40000219_3195)"/>
<circle cx="1189" cy="123" r="19" fill="white"/>
<path d="M1142.51 175.155L1250.99 148.909" stroke="white" stroke-width="10" stroke-linecap="round"/>
<path d="M1149.8 199.297L1257.7 170.768" stroke="white" stroke-width="10" stroke-linecap="round"/>
<path d="M1155.54 222.258L1263.96 195.806" stroke="white" stroke-width="10" stroke-linecap="round"/>
<path d="M289.619 418.676C222.12 426.65 106.039 402.362 181.702 241.425C257.365 80.4873 374.094 14.0843 423 1" stroke="#A3A3A3" stroke-linecap="round" stroke-dasharray="5 5"/>
<path d="M1111.14 598C1105.45 562.053 1099.7 477.997 1122.17 429.353C1150.26 368.548 1181.87 339.293 1198.92 320.363C1212.57 305.219 1220.66 275.811 1223 263" stroke="#A3A3A3" stroke-dasharray="5 5"/>
<path d="M1182 63.5C1182.67 51 1171.3 22.1 1120.5 6.5" stroke="#A3A3A3" stroke-dasharray="5 5"/>
<path d="M-9 593L453 593" stroke="#A3A3A3"/>
<path d="M1000 601H1440" stroke="#D4D4D4"/>
<g clip-path="url(#clip0_40000219_3195)">
<path d="M307.592 356.605L305.01 372.495L322.813 386.984L338.742 382.546L338.51 375.533L307.592 356.605Z" fill="#FEC17F" stroke="#231F20" stroke-width="0.5" stroke-miterlimit="10"/>
<path d="M345.71 410.556L357.077 429.671L382.412 428.696L380.464 442.304L341.004 448.086L339.218 400.511L345.71 410.556Z" fill="#53C990" stroke="#231F20" stroke-width="0.5" stroke-miterlimit="10"/>
<path d="M225.503 497.061C225.503 497.061 217.049 557.163 212.644 562.295C208.239 567.427 213.747 571.09 184.351 576.222C154.956 581.354 105.358 582.817 101.686 587.586C98.0134 592.356 100.583 598.213 113.441 598.213C126.3 598.213 192.435 597.844 192.435 597.844C192.435 597.844 235.786 601.876 241.664 570.721C247.542 539.567 248.644 535.173 248.644 535.173L225.496 497.055L225.503 497.061Z" fill="#FEC17F" stroke="#231F20" stroke-width="0.5" stroke-miterlimit="10"/>
<path d="M240.931 520.146L230.842 570.64C230.842 570.64 225.628 583.773 200.293 588.48C174.958 593.187 112.119 594.675 111.624 597.4L195.575 597.65C195.575 597.65 233.079 600.626 240.53 574.36L248.651 535.173L240.937 520.146H240.931Z" fill="#F9AA54"/>
<path d="M327.883 317.6C327.883 317.6 340.046 309.774 336.724 298.066C333.403 286.358 327.193 276.263 327.193 276.263L327.143 276.319C317.368 287.302 312.837 301.979 314.798 316.531C315.062 318.475 315.394 320.506 315.814 322.6" fill="#FEC17F"/>
<path d="M327.883 317.6C327.883 317.6 340.046 309.774 336.724 298.066C333.403 286.358 327.193 276.263 327.193 276.263L327.143 276.319C317.368 287.302 312.837 301.979 314.798 316.531C315.062 318.475 315.394 320.506 315.814 322.6" stroke="#231F20" stroke-width="0.5" stroke-miterlimit="10"/>
<path d="M345.604 350.066C345.692 350.998 345.072 351.817 344.213 351.898C343.355 351.979 342.59 351.291 342.496 350.366C342.408 349.435 343.029 348.616 343.887 348.535C344.746 348.454 345.51 349.141 345.604 350.066Z" fill="url(#paint2_linear_40000219_3195)"/>
<path style="mix-blend-mode:multiply" d="M346.143 374.014C346.707 377.433 350.279 376.92 356.808 378.521C366.327 380.852 369.955 380.027 371.422 379.321C372.174 378.958 373.013 378.095 373.765 376.97C373.302 377.464 372.838 377.839 372.393 378.045C370.864 378.771 367.374 379.439 356.633 376.539C352.322 375.376 348.161 375.583 346.149 374.02L346.143 374.014Z" fill="url(#paint3_linear_40000219_3195)"/>
<path style="mix-blend-mode:multiply" d="M372.994 371.119C375.532 370.738 378.239 366.381 377.243 359.937C378.039 360.487 378.54 361.08 378.64 361.731C378.64 361.856 378.634 361.981 378.628 362.106C378.352 367.313 376.767 372.026 374.229 372.407C372.042 372.732 355.85 370.813 350.987 366.044C357.021 369.957 370.989 371.419 373.001 371.119H372.994Z" fill="url(#paint4_linear_40000219_3195)"/>
<path style="mix-blend-mode:multiply" d="M352.967 364.581C350.454 364.625 350.091 366.55 350.191 368.657C350.273 370.382 348.687 367.594 349.79 365.362C350.799 363.306 355.198 364.544 352.967 364.581Z" fill="url(#paint5_linear_40000219_3195)"/>
<path style="mix-blend-mode:multiply" d="M365.982 359.636C365.907 359.124 368.608 357.355 370.745 359.824C375.658 365.506 379.819 364.95 378.803 365.193C373.797 366.375 366.164 360.887 365.982 359.636Z" fill="url(#paint6_linear_40000219_3195)"/>
<path d="M347.127 375.939C347.127 375.939 322.255 380.539 315.5 365.443C315.5 365.443 300.48 356.723 306.408 334.17C306.408 334.17 289.746 335.546 281.982 318.012C274.224 300.478 270.094 293.921 270.094 293.921C270.094 293.921 287.446 293.777 301.482 300.41C315.519 307.042 315.519 322.688 315.519 322.688C315.519 322.688 326.755 312.861 341.456 318.118C356.15 323.375 361.608 332.114 361.608 332.114C361.608 332.114 363.714 336.333 362.661 337.415C361.608 338.496 365.061 349.26 375.119 354.073C385.176 358.886 379.311 364.468 379.311 364.468L378.803 365.187C378.803 365.187 376.748 371.094 375.225 371.638L373.815 376.639C373.815 376.639 374.028 377.72 373.771 378.026C373.514 378.333 373.615 379.689 370.713 379.983C367.812 380.277 351.494 378.201 347.133 375.932" fill="#FEC17F"/>
<path d="M347.127 375.939C347.127 375.939 322.255 380.539 315.5 365.443C315.5 365.443 300.48 356.723 306.408 334.17C306.408 334.17 289.746 335.546 281.982 318.012C274.224 300.478 270.094 293.921 270.094 293.921C270.094 293.921 287.446 293.777 301.482 300.41C315.519 307.042 315.519 322.688 315.519 322.688C315.519 322.688 326.755 312.861 341.456 318.118C356.15 323.375 361.608 332.114 361.608 332.114C361.608 332.114 363.714 336.333 362.661 337.415C361.608 338.496 365.061 349.26 375.119 354.073C385.176 358.886 379.311 364.468 379.311 364.468L378.803 365.187C378.803 365.187 376.748 371.094 375.225 371.638L373.815 376.639C373.815 376.639 374.028 377.72 373.771 378.026C373.514 378.333 373.615 379.689 370.713 379.983C367.812 380.277 351.494 378.201 347.133 375.932" stroke="#231F20" stroke-width="0.5" stroke-miterlimit="10"/>
<path d="M280.747 295.078C280.747 295.078 290.046 302.341 298.381 305.998C306.715 309.661 307.323 328.17 307.323 328.17C307.323 328.17 301.614 330.57 295.461 328.983C289.307 327.389 273.816 295.591 271.379 294.953C268.941 294.315 280.747 295.078 280.747 295.078Z" fill="#FFF4EC" stroke="black" stroke-width="0.5" stroke-miterlimit="10"/>
<path d="M340.992 337.884C340.685 337.59 340.309 337.327 339.902 337.102C339.701 336.984 339.482 336.896 339.25 336.821C339.018 336.752 338.78 336.696 338.542 336.646C338.416 336.633 338.291 336.621 338.166 336.608L338.072 336.596H338.028H338.015H337.796C337.715 336.596 337.664 336.602 337.621 336.608L337.47 336.627C337.357 336.658 337.238 336.665 337.126 336.708C336.668 336.846 336.211 337.102 335.797 337.44C334.951 338.102 334.249 339.028 333.692 339.946C333.121 340.872 332.714 341.809 332.413 342.641C332.119 343.472 331.95 344.203 331.862 344.728C331.856 344.778 331.849 344.816 331.843 344.86C331.442 341.328 334.569 336.308 337.696 335.658C340.403 335.089 341.988 338.552 342.433 339.709C342.402 339.653 342.37 339.603 342.333 339.54C342.057 339.09 341.625 338.471 340.998 337.89L340.992 337.884Z" fill="black"/>
<path d="M343.655 359.024C343.398 359.018 343.147 358.999 342.916 358.98C342.684 358.955 342.464 358.911 342.264 358.88C341.857 358.824 341.537 358.693 341.311 358.636C341.299 358.636 341.286 358.63 341.268 358.624C342.339 358.78 346.619 359.218 348.75 356.655C348.75 356.655 348.725 356.717 348.681 356.817C348.681 356.824 348.674 356.83 348.668 356.836C348.511 357.017 348.298 357.286 347.979 357.542C347.822 357.68 347.64 357.811 347.446 357.942C347.246 358.067 347.039 358.205 346.801 358.311C346.569 358.43 346.325 358.53 346.068 358.624C345.811 358.718 345.541 358.78 345.278 358.855C345.002 358.899 344.733 358.949 344.463 358.98C344.194 358.999 343.925 359.011 343.668 359.018L343.655 359.024Z" fill="black"/>
<path d="M378.797 365.193C378.797 365.193 367.361 364.037 365.093 357.38C362.824 350.723 376.222 357.73 376.222 357.73L377.719 355.517C377.719 355.517 384.606 359.274 378.797 365.2V365.193Z" fill="#302312" stroke="black" stroke-miterlimit="10"/>
<path d="M364.735 355.724C364.735 355.724 344.37 356.705 347.127 375.945C347.127 375.945 375.332 384.753 373.765 376.97L374.987 372.288C374.987 372.288 378.628 368.925 378.803 365.2C378.803 365.2 373.101 365.212 369.435 362.175C365.55 358.962 364.742 355.73 364.742 355.73L364.735 355.724Z" fill="white" stroke="black" stroke-width="0.5" stroke-miterlimit="10"/>
<path d="M356.244 364.343C356.244 364.343 362.51 372.807 374.542 373.432L356.244 364.343Z" fill="white"/>
<path d="M356.244 364.343C356.244 364.343 362.51 372.807 374.542 373.432" stroke="black" stroke-width="0.5" stroke-miterlimit="10"/>
<path d="M341.737 354.055C344.678 353.644 346.665 350.487 346.175 347.003C345.686 343.519 342.905 341.028 339.964 341.44C337.024 341.851 335.037 345.008 335.526 348.492C336.016 351.976 338.796 354.467 341.737 354.055Z" fill="white" stroke="black" stroke-width="0.5" stroke-miterlimit="10"/>
<path d="M345.774 349.967C345.832 348.11 344.444 346.56 342.673 346.505C340.902 346.45 339.419 347.91 339.361 349.767C339.303 351.623 340.691 353.173 342.462 353.228C344.233 353.283 345.716 351.823 345.774 349.967Z" fill="black" stroke="black" stroke-miterlimit="10"/>
<path d="M343.763 350.027C343.786 349.288 343.26 348.673 342.589 348.652C341.918 348.631 341.356 349.213 341.332 349.951C341.309 350.689 341.835 351.305 342.506 351.326C343.177 351.347 343.739 350.765 343.763 350.027Z" fill="white"/>
<path d="M331.937 317.168C331.937 317.168 321.842 318.469 318.239 331.52C315.137 342.759 308.933 361.043 339.889 376.114C339.889 376.114 322.951 377.908 315.5 365.444C315.5 365.444 301.125 355.53 306.408 334.171C306.408 334.171 312.135 318.562 331.937 317.168Z" fill="#F9AA54"/>
<path d="M315.087 323.457C315.087 323.457 315.218 309.867 304.177 302.404L297.284 305.023C297.284 305.023 306.878 306.861 307.743 328.489C307.743 328.489 300.743 331.833 294.101 328.87C294.101 328.87 287.759 322.282 285.967 318.756L282.978 319.05C282.978 319.05 289.056 334.614 307.085 333.964L315.087 323.45V323.457Z" fill="#F9AA54"/>
<path d="M325.733 316.675C325.733 316.675 330.859 308.111 328.534 299.635C326.209 291.159 323.195 283.958 324.273 280.432C325.357 276.913 309.359 297.516 315.807 322.6" fill="#FFF4EC"/>
<path d="M325.733 316.675C325.733 316.675 330.859 308.111 328.534 299.635C326.209 291.159 323.195 283.958 324.273 280.432C325.357 276.913 309.359 297.516 315.807 322.6" stroke="black" stroke-width="0.5" stroke-miterlimit="10"/>
<path d="M244.44 452.787C244.44 452.787 216.667 477.828 229.482 511.926C242.296 546.024 270.608 544.962 270.608 544.962C270.608 544.962 270.075 566.271 266.867 573.197L286.092 572.665L299.446 543.893C299.446 543.893 306.922 545.493 306.389 557.213C305.856 568.934 301.05 577.991 301.05 577.991L317.073 575.86C317.073 575.86 336.242 521.508 343.749 515.651C351.256 509.794 322.412 487.416 322.412 487.416L319.21 462.907L306.928 469.301L244.44 452.787Z" fill="#231F20"/>
<path d="M337.991 387.128C337.991 387.128 337.752 394.642 339.162 396.754C340.572 398.867 370.569 466.37 343.749 515.646L320.457 489.598L319.047 471.296L305.637 473.409C305.637 473.409 287.289 463.551 273.171 466.37C259.053 469.189 243.531 450.18 243.531 450.18C243.531 450.18 287.991 420.614 292.227 417.095C292.227 417.095 302.441 407.331 303.149 392.548C303.858 377.764 305.637 369.226 305.637 369.226C311.333 370.226 323.597 382.934 323.597 382.934L338.304 380.165L337.991 387.134V387.128Z" fill="#7EEAB9"/>
<path d="M324.674 385.778C324.674 385.778 346.958 416.738 346.162 461.988C345.366 507.238 338.203 500.887 338.203 500.887" stroke="#231F20" stroke-width="0.3" stroke-miterlimit="10"/>
<path d="M331.705 399.754C332.612 399.754 333.347 399.021 333.347 398.117C333.347 397.212 332.612 396.479 331.705 396.479C330.799 396.479 330.063 397.212 330.063 398.117C330.063 399.021 330.799 399.754 331.705 399.754Z" fill="#231F20"/>
<path d="M338.761 417.232C339.668 417.232 340.403 416.499 340.403 415.594C340.403 414.69 339.668 413.957 338.761 413.957C337.854 413.957 337.119 414.69 337.119 415.594C337.119 416.499 337.854 417.232 338.761 417.232Z" fill="#231F20"/>
<path d="M345.974 454.193C346.881 454.193 347.616 453.46 347.616 452.555C347.616 451.651 346.881 450.917 345.974 450.917C345.067 450.917 344.332 451.651 344.332 452.555C344.332 453.46 345.067 454.193 345.974 454.193Z" fill="#231F20"/>
<path d="M345.015 486.322C345.922 486.322 346.657 485.589 346.657 484.685C346.657 483.78 345.922 483.047 345.015 483.047C344.108 483.047 343.373 483.78 343.373 484.685C343.373 485.589 344.108 486.322 345.015 486.322Z" fill="#231F20"/>
<path d="M305.644 369.219C305.644 369.219 322.901 380.358 323.152 382.996C323.152 382.996 328.102 382.421 338.31 380.158" stroke="white" stroke-width="5" stroke-miterlimit="10"/>
<path d="M302.73 572.615L297.134 591.999H378.747C378.747 591.999 371.227 577.829 360.493 576.616C349.759 575.403 316.027 581.354 316.027 581.354L318.063 569.659L302.73 572.615Z" fill="#FEC17F" stroke="#231F20" stroke-width="0.5" stroke-miterlimit="10"/>
<path d="M378.321 591.624C378.321 591.624 369.986 575.959 358.644 576.528C347.302 577.097 345.736 577.66 345.736 577.66C345.736 577.66 329.098 582.392 332.507 591.668L378.321 591.624Z" fill="white"/>
<path d="M363.024 591.949C363.024 591.949 362.141 584.898 355.348 583.561L363.024 591.949Z" fill="white"/>
<path d="M363.024 591.949C361.965 588.092 359.283 584.723 355.348 583.561C359.603 583.829 362.862 587.824 363.024 591.949Z" fill="#231F20"/>
<path d="M371.804 591.949C371.804 591.949 370.92 584.898 364.127 583.561L371.804 591.949Z" fill="white"/>
<path d="M371.804 591.956C370.745 588.099 368.063 584.73 364.127 583.567C368.382 583.836 371.641 587.83 371.804 591.956Z" fill="#231F20"/>
<path d="M267.412 573.153L261.064 592.537H353.6C353.6 592.537 345.078 578.366 332.902 577.153C320.727 575.941 287.039 582.823 287.039 582.823L286.638 572.622L267.412 573.153Z" fill="#FEC17F" stroke="#231F20" stroke-width="0.5" stroke-miterlimit="10"/>
<path d="M353.118 592.162C353.118 592.162 343.668 576.497 330.809 577.066C317.951 577.635 316.171 578.197 316.171 578.197C316.171 578.197 297.309 582.929 301.176 592.205L353.118 592.162Z" fill="white"/>
<path d="M335.778 592.487C335.778 592.487 334.776 585.436 327.074 584.098L335.778 592.487Z" fill="white"/>
<path d="M335.778 592.487C334.581 588.336 331.241 585.192 327.074 584.098C327.607 584.161 328.152 584.217 328.685 584.336C332.47 585.167 335.496 588.63 335.772 592.487H335.778Z" fill="#231F20"/>
<path d="M345.723 592.493C345.723 592.493 344.72 585.442 337.019 584.104L345.723 592.493Z" fill="white"/>
<path d="M345.723 592.493C344.526 588.343 341.186 585.198 337.019 584.104C337.552 584.167 338.097 584.223 338.63 584.342C342.414 585.173 345.441 588.636 345.717 592.493H345.723Z" fill="#231F20"/>
<path d="M427.675 456.089L382.024 454.573L382.024 454.564L382.026 454.112L382.031 452.394L382.051 446.259L382.111 427.579C382.153 414.612 382.195 401.543 382.199 399.929L429.95 401.712L427.675 456.089Z" fill="#EBEBEB" stroke="black" stroke-width="0.3"/>
<path d="M386.897 395.885H438.426L430.087 460.21L380.548 461.39L380.55 461.373L380.603 460.832L380.805 458.777C380.98 457.005 381.229 454.473 381.527 451.432C382.125 445.349 382.921 437.226 383.718 429.069C384.515 420.912 385.311 412.721 385.909 406.499C386.207 403.388 386.456 400.77 386.631 398.895C386.718 397.957 386.786 397.205 386.833 396.67C386.864 396.31 386.887 396.044 386.897 395.885Z" fill="white" stroke="black" stroke-width="0.3"/>
<path d="M432.055 408.793C432.055 408.968 423.514 409.106 412.974 409.106C402.434 409.106 393.893 408.962 393.893 408.793C393.893 408.624 402.434 408.48 412.974 408.48C423.507 408.48 432.055 408.618 432.055 408.793Z" fill="#263238"/>
<path d="M431.579 413.044C431.579 413.219 423.038 413.357 412.498 413.357C401.958 413.357 393.417 413.213 393.417 413.044C393.417 412.875 401.958 412.731 412.498 412.731C423.038 412.731 431.579 412.869 431.579 413.044Z" fill="#263238"/>
<path d="M430.726 418.439C430.726 418.614 422.185 418.751 411.645 418.751C401.105 418.751 392.564 418.607 392.564 418.439C392.564 418.27 401.105 418.126 411.645 418.126C422.185 418.126 430.726 418.27 430.726 418.439Z" fill="#263238"/>
<path d="M429.817 423.264C429.817 423.439 421.276 423.577 410.736 423.577C400.196 423.577 391.655 423.433 391.655 423.264C391.655 423.095 400.196 422.952 410.736 422.952C421.276 422.952 429.817 423.089 429.817 423.264Z" fill="#263238"/>
<path d="M429.817 428.09C429.817 428.265 421.276 428.402 410.736 428.402C400.196 428.402 391.655 428.259 391.655 428.09C391.655 427.921 400.196 427.777 410.736 427.777C421.276 427.777 429.817 427.915 429.817 428.09Z" fill="#263238"/>
<path d="M429.366 433.153C429.366 433.328 420.825 433.465 410.285 433.465C399.745 433.465 391.204 433.328 391.204 433.153C391.204 432.978 399.745 432.84 410.285 432.84C420.825 432.84 429.366 432.978 429.366 433.153Z" fill="#263238"/>
<path d="M428.909 438.216C428.909 438.391 420.368 438.528 409.828 438.528C399.288 438.528 390.747 438.391 390.747 438.216C390.747 438.041 399.288 437.903 409.828 437.903C420.368 437.903 428.909 438.041 428.909 438.216Z" fill="#263238"/>
<path d="M428.452 443.279C428.452 443.454 419.911 443.592 409.371 443.592C398.831 443.592 390.29 443.454 390.29 443.279C390.29 443.104 398.831 442.967 409.371 442.967C419.911 442.967 428.452 443.104 428.452 443.279Z" fill="#263238"/>
<path d="M427.994 448.349C427.994 448.524 419.453 448.661 408.913 448.661C398.373 448.661 389.832 448.524 389.832 448.349C389.832 448.174 398.373 448.036 408.913 448.036C419.453 448.036 427.994 448.174 427.994 448.349Z" fill="#263238"/>
<path d="M427.537 453.412C427.537 453.587 418.996 453.724 408.456 453.724C397.916 453.724 389.375 453.58 389.375 453.412C389.375 453.243 397.916 453.099 408.456 453.099C418.996 453.099 427.537 453.237 427.537 453.412Z" fill="#263238"/>
<path d="M308.77 423.352C308.77 423.352 317.449 402.324 328.609 413.456C339.77 424.589 341.01 448.086 341.01 448.086L374.485 441.904L375.726 459.219L326.134 472.821L312.498 441.898" fill="#7EEAB9"/>
<path d="M308.77 423.352C308.77 423.352 317.449 402.324 328.609 413.456C339.77 424.589 341.01 448.086 341.01 448.086L374.485 441.904L375.726 459.219L326.134 472.821L312.498 441.898" stroke="#231F20" stroke-miterlimit="10"/>
<path d="M374.479 441.904L393.504 433.041C393.504 433.041 405.767 436.097 399.633 450.368C393.498 464.639 375.72 459.219 375.72 459.219L374.479 441.904Z" fill="#FEC17F" stroke="#231F20" stroke-width="0.5" stroke-miterlimit="10"/>
<path d="M400.059 438.116C400.059 438.116 393.987 443.361 389.945 443.361L400.059 438.116Z" fill="#FEC17F"/>
<path d="M400.059 438.116C400.059 438.116 393.987 443.361 389.945 443.361" stroke="#231F20" stroke-width="0.5" stroke-miterlimit="10"/>
<path d="M400.316 446.567C400.316 446.567 394.243 451.812 390.202 451.812L400.316 446.567Z" fill="#FEC17F"/>
<path d="M400.316 446.567C400.316 446.567 394.243 451.812 390.202 451.812" stroke="#231F20" stroke-width="0.5" stroke-miterlimit="10"/>
</g>
<g filter="url(#filter0_d_40000219_3195)">
<rect x="166" y="137" width="108" height="110" rx="11" transform="rotate(14.5274 166 137)" fill="white"/>
</g>
<mask id="mask0_40000219_3195" style="mask-type:luminance" maskUnits="userSpaceOnUse" x="148" y="148" width="111" height="111">
<path d="M258.508 171.738L171.432 148.983L148.678 236.059L235.754 258.814L258.508 171.738Z" fill="white"/>
<path d="M225.23 231.576C224.738 233.457 225.88 235.384 227.78 235.88L233.973 237.499L237.414 238.398C239.314 238.894 241.253 237.772 241.744 235.892L244.28 226.188C244.771 224.307 243.629 222.38 241.729 221.883C239.829 221.387 237.89 222.509 237.399 224.389L235.753 230.689L229.56 229.07C227.66 228.574 225.721 229.696 225.23 231.576Z" fill="white"/>
<path d="M218.586 161.309C216.535 160.844 214.535 162.028 214.045 163.903L213.343 166.588L209.59 165.607C207.517 165.066 205.432 166.175 204.933 168.086C204.433 169.996 205.709 171.984 207.782 172.526L211.535 173.507L209.908 179.733L206.155 178.752C204.082 178.211 201.997 179.32 201.498 181.231L198.56 192.473C198.06 194.384 199.336 196.372 201.409 196.913C203.482 197.455 205.567 196.345 206.066 194.435L208.1 186.652L211.853 187.632C213.926 188.174 216.011 187.065 216.511 185.154L220.85 168.55L221.573 165.782C222.083 163.83 220.74 161.797 218.586 161.309Z" fill="white"/>
<path d="M164.961 187.388C163.118 186.907 161.229 188.029 160.742 189.894L159.859 193.272L158.976 196.65C158.489 198.516 159.587 200.419 161.43 200.9C163.273 201.382 165.161 200.26 165.649 198.394L166.532 195.016L170.035 195.931C171.877 196.413 173.766 195.291 174.254 193.425C174.741 191.56 173.643 189.657 171.8 189.176L164.961 187.388Z" fill="white"/>
<path d="M229.74 211.267L230.59 208.015C231.06 206.218 229.966 204.376 228.147 203.901L215.962 200.717C214.143 200.242 212.288 201.313 211.819 203.109C211.349 204.906 212.443 206.747 214.262 207.223L223.154 209.546L221.454 216.052L220.624 219.227C220.163 220.991 221.159 222.856 222.927 223.385C224.784 223.94 226.71 222.862 227.19 221.026L228.04 217.773L231.498 218.677C233.317 219.152 235.172 218.081 235.641 216.284C236.111 214.488 235.017 212.646 233.198 212.171L229.74 211.267Z" fill="white"/>
<path d="M244.947 208.29C242.874 207.749 240.842 208.654 240.409 210.312C239.976 211.971 241.305 213.754 243.378 214.296C245.451 214.837 247.482 213.932 247.916 212.274C248.349 210.616 247.02 208.832 244.947 208.29Z" fill="white"/>
<path d="M211.712 214.039C209.817 213.544 207.882 214.667 207.391 216.548L205.745 222.847L204.029 222.399C202.134 221.903 200.199 223.026 199.708 224.907C199.216 226.788 200.354 228.713 202.249 229.209L207.397 230.554C209.292 231.049 211.227 229.926 211.718 228.045L212.608 224.64L214.254 218.341C214.745 216.461 213.608 214.535 211.712 214.039Z" fill="white"/>
<path d="M203.925 243.547L200.422 242.632L201.272 239.379C201.741 237.582 200.553 235.716 198.619 235.21L195.116 234.295L195.966 231.042C196.435 229.246 195.247 227.38 193.313 226.874C191.378 226.368 189.429 227.415 188.96 229.211L187.26 235.717C186.79 237.514 187.978 239.38 189.913 239.885L193.416 240.801L192.566 244.054C192.096 245.85 193.284 247.716 195.219 248.222L198.722 249.137L202.225 250.053C204.16 250.558 206.108 249.512 206.578 247.715C207.047 245.919 205.86 244.052 203.925 243.547Z" fill="white"/>
<path d="M210.563 238.6C210.022 240.673 211.196 242.775 213.186 243.295L214.987 243.766C216.977 244.286 219.029 243.027 219.571 240.954C220.113 238.881 218.939 236.779 216.949 236.259L215.147 235.789C213.157 235.268 211.105 236.527 210.563 238.6Z" fill="white"/>
<path d="M234.208 251.193L232.056 250.631L231.559 250.501L232.442 247.123C232.929 245.257 231.842 243.357 230.013 242.879C228.183 242.402 226.306 243.527 225.818 245.392L224.935 248.77L218.312 247.039C216.483 246.561 214.605 247.686 214.118 249.552C213.63 251.417 214.718 253.317 216.547 253.795L232.443 257.949C234.272 258.427 236.15 257.302 236.637 255.436C237.125 253.571 236.037 251.671 234.208 251.193Z" fill="white"/>
<path d="M200.082 203.695L188.072 200.557L188.923 197.301C189.396 195.491 188.391 193.583 186.6 193.047C184.72 192.483 182.763 193.594 182.271 195.477L181.399 198.813L179.731 198.377C177.889 197.896 176.005 198.999 175.523 200.842C175.042 202.684 176.145 204.568 177.988 205.05L195.003 209.496L194.262 212.332C193.78 214.174 194.883 216.058 196.726 216.54C198.569 217.021 200.452 215.918 200.934 214.076L201.697 211.156L202.351 208.654L202.547 207.903C203.028 206.061 201.925 204.177 200.082 203.695Z" fill="white"/>
<path d="M181.345 172.425C179.687 171.992 178.782 169.96 179.324 167.887C179.865 165.814 181.649 164.485 183.307 164.919C184.965 165.352 185.87 167.384 185.329 169.457C184.787 171.53 183.004 172.859 181.345 172.425Z" fill="white"/>
<path d="M238.395 187.333C236.737 186.9 235.832 184.868 236.373 182.796C236.915 180.723 238.698 179.394 240.357 179.827C242.015 180.26 242.92 182.292 242.379 184.365C241.837 186.438 240.054 187.767 238.395 187.333Z" fill="white"/>
<path d="M166.83 227.973C165.171 227.539 164.178 225.844 164.612 224.185C165.045 222.527 166.741 221.534 168.399 221.967C170.057 222.401 171.05 224.096 170.617 225.755C170.184 227.413 168.488 228.406 166.83 227.973Z" fill="white"/>
</mask>
<g mask="url(#mask0_40000219_3195)">
<mask id="mask1_40000219_3195" style="mask-type:luminance" maskUnits="userSpaceOnUse" x="148" y="148" width="111" height="111">
<path d="M171.432 148.983L258.508 171.737L235.754 258.813L148.678 236.059L171.432 148.983Z" fill="white"/>
</mask>
<g mask="url(#mask1_40000219_3195)">
<path d="M225.23 231.575C224.738 233.456 225.88 235.382 227.78 235.879L233.973 237.497L237.414 238.396C239.314 238.893 241.253 237.771 241.744 235.89L244.28 226.186C244.771 224.305 243.629 222.379 241.729 221.882C239.829 221.385 237.89 222.507 237.399 224.388L235.753 230.687L229.56 229.069C227.66 228.572 225.721 229.694 225.23 231.575Z" fill="#6F6F6F"/>
<path d="M218.586 161.307C216.535 160.842 214.535 162.026 214.045 163.902L213.343 166.587L209.59 165.606C207.517 165.064 205.432 166.174 204.933 168.084C204.433 169.995 205.709 171.983 207.782 172.524L211.535 173.505L209.908 179.732L206.155 178.751C204.082 178.209 201.997 179.319 201.498 181.229L198.56 192.472C198.06 194.382 199.336 196.37 201.409 196.912C203.482 197.454 205.567 196.344 206.066 194.433L208.1 186.65L211.853 187.631C213.926 188.173 216.011 187.063 216.511 185.153L220.85 168.548L221.573 165.781C222.083 163.828 220.74 161.795 218.586 161.307Z" fill="#6F6F6F"/>
<path d="M164.96 187.387C163.118 186.906 161.229 188.028 160.741 189.893L159.859 193.271L158.976 196.649C158.488 198.515 159.587 200.418 161.43 200.899C163.272 201.381 165.161 200.259 165.648 198.393L166.531 195.015L170.034 195.93C171.877 196.412 173.766 195.29 174.253 193.424C174.741 191.559 173.642 189.656 171.8 189.175L164.96 187.387Z" fill="#6F6F6F"/>
<path d="M229.74 211.266L230.59 208.014C231.059 206.217 229.965 204.375 228.146 203.9L215.962 200.716C214.143 200.241 212.288 201.312 211.818 203.108C211.349 204.905 212.443 206.746 214.262 207.222L223.153 209.545L221.453 216.051L220.624 219.226C220.163 220.99 221.159 222.855 222.927 223.384C224.783 223.939 226.71 222.861 227.19 221.025L228.04 217.772L231.497 218.676C233.316 219.151 235.171 218.08 235.641 216.283C236.11 214.487 235.016 212.645 233.198 212.17L229.74 211.266Z" fill="#6F6F6F"/>
<path d="M244.947 208.289C242.874 207.747 240.842 208.653 240.409 210.311C239.976 211.969 241.305 213.753 243.378 214.294C245.451 214.836 247.482 213.931 247.916 212.272C248.349 210.614 247.02 208.831 244.947 208.289Z" fill="#6F6F6F"/>
<path d="M211.712 214.038C209.817 213.543 207.882 214.666 207.39 216.546L205.744 222.846L204.029 222.397C202.133 221.902 200.199 223.025 199.707 224.906C199.216 226.786 200.354 228.712 202.249 229.207L207.396 230.552C209.292 231.048 211.226 229.925 211.718 228.044L212.607 224.639L214.254 218.34C214.745 216.459 213.607 214.533 211.712 214.038Z" fill="#6F6F6F"/>
<path d="M203.924 243.546L200.421 242.631L201.271 239.378C201.741 237.581 200.553 235.715 198.618 235.209L195.115 234.294L195.965 231.041C196.435 229.245 195.247 227.379 193.312 226.873C191.377 226.367 189.429 227.414 188.959 229.21L187.259 235.716C186.79 237.513 187.977 239.379 189.912 239.884L193.415 240.8L192.565 244.053C192.096 245.849 193.283 247.715 195.218 248.221L198.721 249.136L202.224 250.052C204.159 250.557 206.108 249.511 206.577 247.714C207.047 245.918 205.859 244.052 203.924 243.546Z" fill="#6F6F6F"/>
<path d="M210.563 238.599C210.022 240.672 211.196 242.774 213.186 243.294L214.987 243.765C216.977 244.285 219.029 243.026 219.571 240.953C220.113 238.88 218.939 236.778 216.949 236.258L215.147 235.788C213.157 235.268 211.105 236.526 210.563 238.599Z" fill="#6F6F6F"/>
<path d="M234.208 251.192L232.056 250.63L231.559 250.5L232.442 247.122C232.929 245.256 231.842 243.356 230.013 242.878C228.183 242.401 226.306 243.526 225.818 245.391L224.935 248.769L218.312 247.038C216.483 246.56 214.605 247.685 214.118 249.551C213.63 251.416 214.718 253.316 216.547 253.794L232.443 257.948C234.272 258.426 236.15 257.301 236.637 255.435C237.125 253.57 236.037 251.67 234.208 251.192Z" fill="#6F6F6F"/>
<path d="M200.082 203.694L188.071 200.556L188.922 197.3C189.395 195.49 188.391 193.582 186.6 193.046C184.719 192.482 182.763 193.593 182.271 195.476L181.399 198.812L179.731 198.376C177.888 197.895 176.004 198.998 175.523 200.841C175.041 202.683 176.145 204.567 177.987 205.049L195.002 209.495L194.261 212.331C193.78 214.174 194.883 216.057 196.725 216.539C198.568 217.02 200.452 215.917 200.934 214.075L201.696 211.155L202.35 208.653L202.546 207.902C203.028 206.06 201.925 204.176 200.082 203.694Z" fill="#6F6F6F"/>
<path fill-rule="evenodd" clip-rule="evenodd" d="M165.94 170C164.423 175.804 167.675 181.68 173.203 183.125L183.211 185.74C188.739 187.185 194.45 183.65 195.966 177.846L198.712 167.337C200.229 161.533 196.978 155.657 191.45 154.213L181.441 151.597C175.913 150.153 170.203 153.687 168.686 159.491L165.94 170ZM175.033 176.119C173.191 175.637 172.107 173.678 172.613 171.744L175.359 161.235C175.864 159.3 177.768 158.122 179.61 158.603L189.619 161.219C191.462 161.7 192.546 163.659 192.04 165.594L189.294 176.103C188.788 178.037 186.885 179.216 185.042 178.734L175.033 176.119Z" fill="#6F6F6F"/>
<path d="M181.345 172.424C179.687 171.99 178.781 169.959 179.323 167.886C179.865 165.813 181.648 164.484 183.306 164.917C184.965 165.351 185.87 167.382 185.328 169.455C184.787 171.528 183.003 172.857 181.345 172.424Z" fill="#6F6F6F"/>
<path fill-rule="evenodd" clip-rule="evenodd" d="M222.99 184.908C221.473 190.712 224.725 196.588 230.252 198.033L240.261 200.648C245.789 202.093 251.499 198.559 253.016 192.755L255.762 182.245C257.279 176.441 254.028 170.565 248.5 169.121L238.491 166.505C232.963 165.061 227.253 168.595 225.736 174.399L222.99 184.908ZM232.083 191.027C230.241 190.545 229.157 188.587 229.662 186.652L232.409 176.143C232.914 174.208 234.818 173.03 236.66 173.511L246.669 176.127C248.512 176.608 249.595 178.567 249.09 180.502L246.344 191.011C245.838 192.946 243.935 194.124 242.092 193.642L232.083 191.027Z" fill="#6F6F6F"/>
<path d="M238.395 187.332C236.736 186.899 235.831 184.867 236.373 182.794C236.915 180.721 238.698 179.392 240.356 179.825C242.015 180.259 242.92 182.29 242.378 184.363C241.836 186.436 240.053 187.765 238.395 187.332Z" fill="#6F6F6F"/>
<path fill-rule="evenodd" clip-rule="evenodd" d="M151.293 226.05C149.849 231.578 153.159 237.23 158.686 238.675L168.695 241.29C174.223 242.734 179.875 239.424 181.319 233.897L183.935 223.888C185.379 218.36 182.069 212.708 176.542 211.264L166.533 208.648C161.005 207.204 155.353 210.514 153.909 216.042L151.293 226.05ZM160.43 232.002C158.587 231.521 157.484 229.637 157.966 227.794L160.581 217.785C161.063 215.943 162.947 214.839 164.789 215.321L174.798 217.936C176.641 218.418 177.744 220.302 177.262 222.144L174.647 232.153C174.165 233.996 172.281 235.099 170.439 234.617L160.43 232.002Z" fill="#6F6F6F"/>
<path d="M166.83 227.972C165.171 227.538 164.178 225.843 164.612 224.184C165.045 222.526 166.741 221.533 168.399 221.966C170.057 222.4 171.05 224.095 170.617 225.754C170.184 227.412 168.488 228.405 166.83 227.972Z" fill="#6F6F6F"/>
</g>
</g>
<defs>
<filter id="filter0_d_40000219_3195" x="116.912" y="115.505" width="177.13" height="178.564" filterUnits="userSpaceOnUse" color-interpolation-filters="sRGB">
<feFlood flood-opacity="0" result="BackgroundImageFix"/>
<feColorMatrix in="SourceAlpha" type="matrix" values="0 0 0 0 0 0 0 0 0 0 0 0 0 0 0 0 0 0 127 0" result="hardAlpha"/>
<feOffset dx="1" dy="1"/>
<feGaussianBlur stdDeviation="12.45"/>
<feComposite in2="hardAlpha" operator="out"/>
<feColorMatrix type="matrix" values="0 0 0 0 0 0 0 0 0 0 0 0 0 0 0 0 0 0 0.1 0"/>
<feBlend mode="normal" in2="BackgroundImageFix" result="effect1_dropShadow_40000219_3195"/>
<feBlend mode="normal" in="SourceGraphic" in2="effect1_dropShadow_40000219_3195" result="shape"/>
</filter>
<linearGradient id="paint0_linear_40000219_3195" x1="1077.4" y1="186.353" x2="1267.14" y2="175.648" gradientUnits="userSpaceOnUse">
<stop stop-color="#08AEEA"/>
<stop offset="1" stop-color="#58CB96"/>
</linearGradient>
<linearGradient id="paint1_linear_40000219_3195" x1="1063.09" y1="203.993" x2="1252.83" y2="193.289" gradientUnits="userSpaceOnUse">
<stop stop-color="#08AEEA"/>
<stop offset="1" stop-color="#58CB96"/>
</linearGradient>
<linearGradient id="paint2_linear_40000219_3195" x1="342.996" y1="349.102" x2="344.68" y2="350.953" gradientUnits="userSpaceOnUse">
<stop stop-color="#FFE6CD"/>
<stop offset="1" stop-color="#FFF5EB"/>
</linearGradient>
<linearGradient id="paint3_linear_40000219_3195" x1="373.735" y1="377.283" x2="346.078" y2="376.94" gradientUnits="userSpaceOnUse">
<stop stop-color="#FFC78F"/>
<stop offset="1" stop-color="#FFD6AD"/>
</linearGradient>
<linearGradient id="paint4_linear_40000219_3195" x1="377.042" y1="366.243" x2="349.535" y2="365.901" gradientUnits="userSpaceOnUse">
<stop stop-color="#FFC78F"/>
<stop offset="1" stop-color="#FFD6AD"/>
</linearGradient>
<linearGradient id="paint5_linear_40000219_3195" x1="352.201" y1="367.721" x2="351.281" y2="364.981" gradientUnits="userSpaceOnUse">
<stop stop-color="#FFC78F"/>
<stop offset="1" stop-color="#FFD6AD"/>
</linearGradient>
<linearGradient id="paint6_linear_40000219_3195" x1="372.682" y1="353.646" x2="372.42" y2="363.22" gradientUnits="userSpaceOnUse">
<stop stop-color="#CC8B69"/>
<stop offset="1" stop-color="#6D4A38"/>
</linearGradient>
<clipPath id="clip0_40000219_3195">
<rect width="338.603" height="322.369" fill="white" transform="translate(100 276)"/>
</clipPath>
</defs>
</svg>
