<svg width="16" height="16" viewBox="0 0 16 16" fill="none" xmlns="http://www.w3.org/2000/svg">
<g clip-path="url(#clip0_463_14267)">
<path d="M11.333 2.22529C12.3385 2.80586 13.175 3.63898 13.7596 4.64216C14.3441 5.64534 14.6566 6.78381 14.666 7.94485C14.6753 9.1059 14.3813 10.2493 13.813 11.2618C13.2447 12.2743 12.4218 13.1208 11.4258 13.7175C10.4298 14.3142 9.29525 14.6405 8.13441 14.664C6.97356 14.6875 5.82671 14.4074 4.80738 13.8515C3.78805 13.2955 2.93159 12.483 2.32279 11.4943C1.71398 10.5056 1.37395 9.3751 1.33634 8.21463L1.33301 7.99863L1.33634 7.78263C1.37368 6.63129 1.70871 5.50927 2.30877 4.52595C2.90883 3.54264 3.75344 2.73159 4.76027 2.17188C5.76709 1.61217 6.90177 1.32289 8.05368 1.33225C9.20559 1.34161 10.3354 1.64929 11.333 2.22529ZM10.471 6.19396C10.3562 6.07918 10.2035 6.01022 10.0415 6.00003C9.87945 5.98985 9.71928 6.03913 9.59101 6.13863L9.52834 6.19396L7.33301 8.38863L6.47101 7.52729L6.40834 7.47196C6.28006 7.37253 6.11992 7.32331 5.95794 7.33353C5.79597 7.34375 5.64328 7.4127 5.52852 7.52747C5.41375 7.64223 5.3448 7.79492 5.33458 7.9569C5.32436 8.11887 5.37358 8.27902 5.47301 8.40729L5.52834 8.46996L6.86167 9.80329L6.92434 9.85863C7.04126 9.94934 7.18503 9.99857 7.33301 9.99857C7.48099 9.99857 7.62476 9.94934 7.74167 9.85863L7.80434 9.80329L10.471 7.13663L10.5263 7.07396C10.6258 6.94569 10.6751 6.78552 10.6649 6.62351C10.6547 6.46149 10.5858 6.30876 10.471 6.19396Z" fill="#41BBE8"/>
</g>
<defs>
<clipPath id="clip0_463_14267">
<rect width="16" height="16" fill="white"/>
</clipPath>
</defs>
</svg>
