<svg width="20" height="20" viewBox="0 0 20 20" fill="none" xmlns="http://www.w3.org/2000/svg">
<g clip-path="url(#clip0_463_10580)">
<path d="M4.16667 18.3346C3.70833 18.3346 3.31597 18.1714 2.98958 17.8451C2.66319 17.5187 2.5 17.1263 2.5 16.668V5.0013C2.5 4.54297 2.66319 4.15061 2.98958 3.82422C3.31597 3.49783 3.70833 3.33464 4.16667 3.33464H5V2.5013C5 2.26519 5.07986 2.06727 5.23958 1.90755C5.39931 1.74783 5.59722 1.66797 5.83333 1.66797C6.06944 1.66797 6.26736 1.74783 6.42708 1.90755C6.58681 2.06727 6.66667 2.26519 6.66667 2.5013V3.33464H13.3333V2.5013C13.3333 2.26519 13.4132 2.06727 13.5729 1.90755C13.7326 1.74783 13.9306 1.66797 14.1667 1.66797C14.4028 1.66797 14.6007 1.74783 14.7604 1.90755C14.9201 2.06727 15 2.26519 15 2.5013V3.33464H15.8333C16.2917 3.33464 16.684 3.49783 17.0104 3.82422C17.3368 4.15061 17.5 4.54297 17.5 5.0013V16.668C17.5 17.1263 17.3368 17.5187 17.0104 17.8451C16.684 18.1714 16.2917 18.3346 15.8333 18.3346H4.16667ZM4.16667 16.668H15.8333V8.33464H4.16667V16.668ZM4.16667 6.66797H15.8333V5.0013H4.16667V6.66797ZM10 11.668C9.76389 11.668 9.56597 11.5881 9.40625 11.4284C9.24653 11.2687 9.16667 11.0707 9.16667 10.8346C9.16667 10.5985 9.24653 10.4006 9.40625 10.2409C9.56597 10.0812 9.76389 10.0013 10 10.0013C10.2361 10.0013 10.434 10.0812 10.5938 10.2409C10.7535 10.4006 10.8333 10.5985 10.8333 10.8346C10.8333 11.0707 10.7535 11.2687 10.5938 11.4284C10.434 11.5881 10.2361 11.668 10 11.668ZM6.66667 11.668C6.43056 11.668 6.23264 11.5881 6.07292 11.4284C5.91319 11.2687 5.83333 11.0707 5.83333 10.8346C5.83333 10.5985 5.91319 10.4006 6.07292 10.2409C6.23264 10.0812 6.43056 10.0013 6.66667 10.0013C6.90278 10.0013 7.10069 10.0812 7.26042 10.2409C7.42014 10.4006 7.5 10.5985 7.5 10.8346C7.5 11.0707 7.42014 11.2687 7.26042 11.4284C7.10069 11.5881 6.90278 11.668 6.66667 11.668ZM13.3333 11.668C13.0972 11.668 12.8993 11.5881 12.7396 11.4284C12.5799 11.2687 12.5 11.0707 12.5 10.8346C12.5 10.5985 12.5799 10.4006 12.7396 10.2409C12.8993 10.0812 13.0972 10.0013 13.3333 10.0013C13.5694 10.0013 13.7674 10.0812 13.9271 10.2409C14.0868 10.4006 14.1667 10.5985 14.1667 10.8346C14.1667 11.0707 14.0868 11.2687 13.9271 11.4284C13.7674 11.5881 13.5694 11.668 13.3333 11.668ZM10 15.0013C9.76389 15.0013 9.56597 14.9214 9.40625 14.7617C9.24653 14.602 9.16667 14.4041 9.16667 14.168C9.16667 13.9319 9.24653 13.7339 9.40625 13.5742C9.56597 13.4145 9.76389 13.3346 10 13.3346C10.2361 13.3346 10.434 13.4145 10.5938 13.5742C10.7535 13.7339 10.8333 13.9319 10.8333 14.168C10.8333 14.4041 10.7535 14.602 10.5938 14.7617C10.434 14.9214 10.2361 15.0013 10 15.0013ZM6.66667 15.0013C6.43056 15.0013 6.23264 14.9214 6.07292 14.7617C5.91319 14.602 5.83333 14.4041 5.83333 14.168C5.83333 13.9319 5.91319 13.7339 6.07292 13.5742C6.23264 13.4145 6.43056 13.3346 6.66667 13.3346C6.90278 13.3346 7.10069 13.4145 7.26042 13.5742C7.42014 13.7339 7.5 13.9319 7.5 14.168C7.5 14.4041 7.42014 14.602 7.26042 14.7617C7.10069 14.9214 6.90278 15.0013 6.66667 15.0013ZM13.3333 15.0013C13.0972 15.0013 12.8993 14.9214 12.7396 14.7617C12.5799 14.602 12.5 14.4041 12.5 14.168C12.5 13.9319 12.5799 13.7339 12.7396 13.5742C12.8993 13.4145 13.0972 13.3346 13.3333 13.3346C13.5694 13.3346 13.7674 13.4145 13.9271 13.5742C14.0868 13.7339 14.1667 13.9319 14.1667 14.168C14.1667 14.4041 14.0868 14.602 13.9271 14.7617C13.7674 14.9214 13.5694 15.0013 13.3333 15.0013Z" fill="#41BBE8"/>
</g>
<defs>
<clipPath id="clip0_463_10580">
<rect width="20" height="20" fill="white"/>
</clipPath>
</defs>
</svg>
