<svg width="20" height="20" viewBox="0 0 20 20" fill="none" xmlns="http://www.w3.org/2000/svg">
<g clip-path="url(#clip0_463_10586)">
<path d="M14.1665 2.78455C15.4234 3.51026 16.469 4.55165 17.1997 5.80563C17.9304 7.05961 18.321 8.48269 18.3327 9.934C18.3444 11.3853 17.9769 12.8145 17.2665 14.0801C16.5561 15.3457 15.5275 16.4039 14.2825 17.1498C13.0375 17.8957 11.6193 18.3036 10.1683 18.3329C8.7172 18.3623 7.28363 18.0122 6.00947 17.3172C4.7353 16.6223 3.66473 15.6066 2.90373 14.3708C2.14272 13.135 1.71768 11.7218 1.67067 10.2712L1.6665 10.0012L1.67067 9.73121C1.71734 8.29204 2.13613 6.88951 2.8862 5.66037C3.63628 4.43123 4.69205 3.41742 5.95058 2.71778C7.20911 2.01814 8.62746 1.65654 10.0673 1.66824C11.5072 1.67994 12.9195 2.06454 14.1665 2.78455ZM13.089 7.74538C12.9455 7.6019 12.7546 7.51571 12.5521 7.50297C12.3496 7.49024 12.1493 7.55184 11.989 7.67621L11.9107 7.74538L9.1665 10.4887L8.089 9.41205L8.01067 9.34288C7.85032 9.21859 7.65015 9.15707 7.44767 9.16984C7.2452 9.18261 7.05434 9.26881 6.91089 9.41226C6.76744 9.55572 6.68124 9.74658 6.66847 9.94905C6.65569 10.1515 6.71722 10.3517 6.8415 10.512L6.91067 10.5904L8.57734 12.257L8.65567 12.3262C8.80182 12.4396 8.98153 12.5011 9.1665 12.5011C9.35148 12.5011 9.53119 12.4396 9.67734 12.3262L9.75567 12.257L13.089 8.92371L13.1582 8.84538C13.2825 8.68504 13.3441 8.48483 13.3314 8.28231C13.3187 8.07979 13.2325 7.88887 13.089 7.74538Z" fill="#2C9F6B"/>
</g>
<defs>
<clipPath id="clip0_463_10586">
<rect width="20" height="20" fill="white"/>
</clipPath>
</defs>
</svg>
