<svg width="20" height="20" viewBox="0 0 20 20" fill="none" xmlns="http://www.w3.org/2000/svg">
<g clip-path="url(#clip0_463_15669)">
<path d="M18 13.8667L12.161 3.75306C11.2072 2.08231 8.79545 2.08231 7.84515 3.75306L2.00269 13.8667C1.04895 15.5375 2.23597 17.613 4.16059 17.613H15.8215C17.7461 17.613 18.9537 15.5169 18 13.8667ZM9.99963 15.3694C9.49188 15.3694 9.06991 14.9474 9.06991 14.4397C9.06991 13.9319 9.49188 13.5099 9.99963 13.5099C10.5074 13.5099 10.9293 13.9319 10.9088 14.4637C10.9328 14.9474 10.4868 15.3694 9.99963 15.3694ZM10.847 9.35881C10.8058 10.0793 10.7612 10.7963 10.7201 11.5167C10.6995 11.75 10.6995 11.9627 10.6995 12.1926C10.6789 12.5734 10.3804 12.8684 9.99963 12.8684C9.61882 12.8684 9.32378 12.5939 9.29976 12.2131C9.23801 11.0913 9.17283 9.99005 9.11108 8.86822C9.09049 8.57318 9.06991 8.27471 9.04589 7.97967C9.04589 7.49251 9.32035 7.09112 9.76634 6.96419C10.2123 6.85783 10.6549 7.07054 10.847 7.49251C10.9122 7.64003 10.9328 7.78755 10.9328 7.95909C10.9122 8.42909 10.8676 8.89566 10.847 9.35881Z" fill="#F55151"/>
</g>
<defs>
<clipPath id="clip0_463_15669">
<rect width="20" height="20" fill="white"/>
</clipPath>
</defs>
</svg>
