<svg width="20" height="20" viewBox="0 0 20 20" fill="none" xmlns="http://www.w3.org/2000/svg">
<path d="M12.7498 13.918L13.9165 12.7513L10.8332 9.66797V5.83464H9.1665V10.3346L12.7498 13.918ZM9.99984 18.3346C8.84706 18.3346 7.76373 18.1159 6.74984 17.6784C5.73595 17.2409 4.854 16.6471 4.104 15.8971C3.354 15.1471 2.76025 14.2652 2.32275 13.2513C1.88525 12.2374 1.6665 11.1541 1.6665 10.0013C1.6665 8.84853 1.88525 7.76519 2.32275 6.7513C2.76025 5.73741 3.354 4.85547 4.104 4.10547C4.854 3.35547 5.73595 2.76172 6.74984 2.32422C7.76373 1.88672 8.84706 1.66797 9.99984 1.66797C11.1526 1.66797 12.2359 1.88672 13.2498 2.32422C14.2637 2.76172 15.1457 3.35547 15.8957 4.10547C16.6457 4.85547 17.2394 5.73741 17.6769 6.7513C18.1144 7.76519 18.3332 8.84853 18.3332 10.0013C18.3332 11.1541 18.1144 12.2374 17.6769 13.2513C17.2394 14.2652 16.6457 15.1471 15.8957 15.8971C15.1457 16.6471 14.2637 17.2409 13.2498 17.6784C12.2359 18.1159 11.1526 18.3346 9.99984 18.3346ZM9.99984 16.668C11.8471 16.668 13.42 16.0187 14.7186 14.7201C16.0172 13.4214 16.6665 11.8485 16.6665 10.0013C16.6665 8.15408 16.0172 6.58116 14.7186 5.28255C13.42 3.98394 11.8471 3.33464 9.99984 3.33464C8.15262 3.33464 6.5797 3.98394 5.28109 5.28255C3.98248 6.58116 3.33317 8.15408 3.33317 10.0013C3.33317 11.8485 3.98248 13.4214 5.28109 14.7201C6.5797 16.0187 8.15262 16.668 9.99984 16.668Z" fill="#47CEFF"/>
</svg>
