<svg width="24" height="24" viewBox="0 0 24 24" fill="none" xmlns="http://www.w3.org/2000/svg">
<g clip-path="url(#clip0_40000076_17083)">
<path d="M14.1709 12.4768L15.2784 11.3692C15.359 11.6707 15.4062 11.9859 15.4062 12.3125C15.4062 14.3287 13.7661 15.9688 11.75 15.9688C11.4234 15.9688 11.1082 15.9216 10.8067 15.841L11.9142 14.7334C13.1252 14.6509 14.0883 13.6877 14.1709 12.4768ZM21.4232 12.0165C21.3483 11.8817 20.2852 10.019 18.2072 8.44042L17.3204 9.32721C18.8357 10.4413 19.7957 11.7406 20.1737 12.3135C19.4514 13.4132 16.6181 17.1875 11.75 17.1875C11.02 17.1875 10.3411 17.0942 9.70235 16.9452L8.70099 17.9465C9.62161 18.2288 10.6335 18.4063 11.75 18.4063C18.1291 18.4063 21.2917 12.8451 21.4232 12.6085C21.5256 12.4244 21.5256 12.2007 21.4232 12.0165ZM18.884 6.04024L5.4777 19.4465C5.35872 19.5655 5.20272 19.625 5.04688 19.625C4.89103 19.625 4.73503 19.5655 4.61605 19.4465C4.37793 19.2084 4.37793 18.8228 4.61605 18.5848L6.32169 16.8792C3.56427 15.2145 2.16316 12.7641 2.07678 12.6085C1.97441 12.4244 1.97441 12.2006 2.07678 12.0164C2.20825 11.7799 5.37091 6.21879 11.75 6.21879C13.3994 6.21879 14.8281 6.59508 16.0494 7.15144L18.0223 5.17858C18.2604 4.94047 18.646 4.94047 18.884 5.17858C19.1219 5.4167 19.1221 5.80228 18.884 6.04024ZM7.23042 15.9705L8.7732 14.4277C8.3471 13.8299 8.09375 13.1009 8.09375 12.3125C8.09375 10.2964 9.73388 8.65629 11.75 8.65629C12.5384 8.65629 13.2673 8.90964 13.8651 9.33559L15.1127 8.08805C14.127 7.69332 13.007 7.43754 11.75 7.43754C6.88186 7.43754 4.04857 11.2119 3.32646 12.3116C3.78501 13.0066 5.10309 14.7659 7.23042 15.9705ZM9.65786 13.5429L12.9803 10.2204C12.6179 10.0064 12.2006 9.87504 11.75 9.87504C10.406 9.87504 9.3125 10.9686 9.3125 12.3125C9.3125 12.7632 9.44382 13.1804 9.65786 13.5429Z" fill="#3EE096" stroke="#3EE096" stroke-width="0.3"/>
</g>
<defs>
<clipPath id="clip0_40000076_17083">
<rect width="24" height="24" fill="white"/>
</clipPath>
</defs>
</svg>
