<svg width="24" height="24" viewBox="0 0 24 24" fill="none" xmlns="http://www.w3.org/2000/svg">
<g clip-path="url(#clip0_688_2697)">
<path d="M12.2751 12.4748L16.1751 8.5748C16.3584 8.39147 16.5918 8.2998 16.8751 8.2998C17.1584 8.2998 17.3918 8.39147 17.5751 8.5748C17.7584 8.75814 17.8501 8.99147 17.8501 9.2748C17.8501 9.55814 17.7584 9.79147 17.5751 9.9748L12.9751 14.5748C12.8751 14.6748 12.7668 14.7456 12.6501 14.7873C12.5334 14.829 12.4084 14.8498 12.2751 14.8498C12.1418 14.8498 12.0168 14.829 11.9001 14.7873C11.7834 14.7456 11.6751 14.6748 11.5751 14.5748L6.9751 9.9748C6.79176 9.79147 6.7001 9.55814 6.7001 9.2748C6.7001 8.99147 6.79176 8.75814 6.9751 8.5748C7.15843 8.39147 7.39176 8.2998 7.6751 8.2998C7.95843 8.2998 8.19176 8.39147 8.3751 8.5748L12.2751 12.4748Z" fill="black"/>
</g>
<defs>
<clipPath id="clip0_688_2697">
<rect width="24" height="24" fill="white"/>
</clipPath>
</defs>
</svg>
