<svg width="431" height="248" viewBox="0 0 431 248" fill="none" xmlns="http://www.w3.org/2000/svg">
<path d="M135.377 167.002C141.597 157.438 140.69 143.774 133.261 135.126C130.955 132.441 127.733 130.109 124.218 130.411C120.618 130.72 117.719 133.823 116.623 137.284C115.528 140.745 115.908 144.494 116.551 148.067C117.452 153.07 118.96 158.189 122.412 161.906C125.866 165.622 130.939 169.44 135.377 167.002Z" fill="#7EEAB9"/>
<path d="M131.937 213.035C134.28 207.541 132.581 200.585 127.974 196.805C126.544 195.632 124.674 194.723 122.889 195.199C121.063 195.686 119.848 197.549 119.596 199.432C119.344 201.314 119.878 203.212 120.531 204.994C121.447 207.489 122.685 209.99 124.798 211.59C126.913 213.191 129.871 214.696 131.937 213.035Z" fill="#7EEAB9"/>
<path d="M146.937 209.753C145.227 201.274 149.672 191.918 157.307 187.926C159.677 186.687 162.594 185.954 164.983 187.156C167.428 188.387 168.603 191.387 168.409 194.129C168.215 196.872 166.904 199.402 165.455 201.735C163.427 205.001 160.94 208.177 157.476 209.819C154.013 211.46 149.38 212.717 146.937 209.753Z" fill="#7EEAB9"/>
<path d="M145.859 186.825C142.881 177.164 147.931 165.451 156.346 159.908C158.958 158.188 162.265 156.99 165.184 158.108C168.172 159.252 169.889 162.603 169.983 165.816C170.078 169.029 168.847 172.126 167.434 175.01C165.456 179.048 162.934 183.035 159.096 185.353C155.258 187.671 149.047 189.986 145.859 186.825Z" fill="#7EEAB9"/>
<path d="M139.878 234.045C139.892 234.046 139.925 233.885 139.975 233.577C140.028 233.225 140.094 232.779 140.175 232.229C140.216 231.932 140.261 231.607 140.31 231.256C140.378 230.899 140.452 230.516 140.531 230.107C140.687 229.283 140.849 228.341 141.117 227.32C141.241 226.805 141.37 226.268 141.505 225.709C141.666 225.155 141.834 224.58 142.007 223.985C142.328 222.786 142.801 221.546 143.245 220.224C144.231 217.616 145.454 214.801 146.955 211.955C148.485 209.123 150.142 206.542 151.761 204.274C152.611 203.172 153.377 202.09 154.194 201.158C154.591 200.685 154.975 200.226 155.345 199.785C155.733 199.363 156.108 198.958 156.466 198.57C157.164 197.78 157.855 197.124 158.452 196.537C158.748 196.246 159.025 195.972 159.283 195.718C159.548 195.482 159.792 195.266 160.016 195.066C160.426 194.695 160.76 194.393 161.022 194.154C161.25 193.942 161.365 193.825 161.356 193.814C161.347 193.803 161.215 193.898 160.97 194.09C160.694 194.313 160.343 194.596 159.912 194.945C159.68 195.136 159.426 195.345 159.153 195.572C158.887 195.819 158.601 196.085 158.296 196.37C157.681 196.943 156.973 197.588 156.258 198.369C155.891 198.753 155.509 199.155 155.112 199.572C154.734 200.011 154.341 200.466 153.936 200.938C153.103 201.866 152.322 202.945 151.458 204.049C149.813 206.317 148.135 208.91 146.596 211.759C145.085 214.623 143.863 217.461 142.893 220.093C142.456 221.426 141.992 222.677 141.683 223.888C141.516 224.488 141.355 225.069 141.2 225.628C141.074 226.191 140.952 226.734 140.836 227.253C140.584 228.284 140.441 229.235 140.305 230.066C140.239 230.479 140.176 230.866 140.117 231.226C140.081 231.58 140.048 231.908 140.017 232.208C139.967 232.762 139.925 233.212 139.893 233.567C139.87 233.88 139.864 234.044 139.878 234.045Z" fill="#263238"/>
<path d="M140.098 235.781C140.105 235.781 140.104 235.715 140.098 235.588C140.087 235.438 140.073 235.254 140.056 235.029C140.008 234.504 139.943 233.788 139.86 232.882C139.814 232.413 139.763 231.897 139.708 231.333C139.665 230.766 139.65 230.147 139.615 229.484C139.566 228.157 139.439 226.647 139.485 224.975C139.489 224.139 139.493 223.264 139.498 222.352C139.508 221.44 139.593 220.494 139.639 219.512C139.704 217.547 139.971 215.463 140.206 213.267C140.802 208.891 141.735 204.116 143.154 199.219C144.62 194.334 146.428 189.818 148.301 185.822C149.295 183.852 150.202 181.959 151.214 180.276C151.707 179.428 152.149 178.587 152.636 177.817C153.126 177.051 153.598 176.315 154.047 175.611C154.915 174.183 155.84 172.988 156.601 171.902C156.989 171.366 157.337 170.855 157.681 170.403C158.032 169.961 158.356 169.555 158.648 169.187C159.209 168.474 159.653 167.909 159.978 167.496C160.114 167.316 160.225 167.169 160.316 167.05C160.39 166.948 160.426 166.893 160.42 166.888C160.415 166.883 160.369 166.929 160.284 167.022C160.185 167.135 160.063 167.273 159.915 167.443C159.576 167.845 159.112 168.394 158.526 169.088C158.223 169.45 157.891 169.848 157.528 170.284C157.175 170.729 156.816 171.234 156.418 171.767C155.638 172.842 154.695 174.03 153.808 175.453C153.349 176.154 152.869 176.889 152.368 177.652C151.873 178.42 151.423 179.261 150.921 180.107C149.893 181.79 148.971 183.685 147.963 185.66C146.064 189.664 144.236 194.196 142.763 199.104C141.337 204.023 140.412 208.823 139.834 213.221C139.608 215.428 139.353 217.522 139.302 219.496C139.263 220.481 139.185 221.431 139.184 222.347C139.189 223.261 139.194 224.14 139.198 224.979C139.17 226.658 139.317 228.17 139.387 229.5C139.432 230.164 139.459 230.784 139.513 231.352C139.581 231.914 139.644 232.432 139.701 232.901C139.816 233.804 139.907 234.518 139.974 235.041C140.007 235.265 140.034 235.447 140.055 235.596C140.077 235.718 140.091 235.782 140.098 235.781Z" fill="#263238"/>
<path d="M123.905 141.961C123.899 141.965 123.927 142.024 123.985 142.139C124.056 142.274 124.144 142.439 124.253 142.641C124.512 143.107 124.867 143.744 125.316 144.549C125.545 144.965 125.818 145.415 126.082 145.928C126.339 146.447 126.617 147.008 126.914 147.61C127.215 148.215 127.535 148.859 127.874 149.541C128.198 150.233 128.506 150.979 128.85 151.754C129.183 152.533 129.557 153.338 129.901 154.197C130.233 155.061 130.577 155.96 130.934 156.89C131.112 157.356 131.293 157.828 131.477 158.31C131.641 158.798 131.809 159.294 131.978 159.798C132.316 160.805 132.663 161.841 133.019 162.903C134.337 167.189 135.587 171.962 136.641 177.03C137.663 182.107 138.38 186.991 138.909 191.447C139.363 195.91 139.698 199.941 139.789 203.334C139.875 205.03 139.893 206.565 139.898 207.914C139.919 209.262 139.925 210.424 139.893 211.374C139.881 212.297 139.87 213.027 139.862 213.561C139.863 213.79 139.864 213.978 139.865 214.13C139.867 214.258 139.873 214.324 139.879 214.324C139.886 214.324 139.895 214.26 139.906 214.131C139.916 213.979 139.929 213.793 139.944 213.564C139.97 213.03 140.006 212.301 140.051 211.378C140.107 210.428 140.126 209.265 140.125 207.914C140.142 206.564 140.144 205.025 140.077 203.326C140.022 199.924 139.716 195.882 139.281 191.406C138.771 186.937 138.064 182.039 137.04 176.948C135.982 171.866 134.718 167.081 133.375 162.789C133.013 161.726 132.658 160.688 132.315 159.68C132.142 159.176 131.971 158.68 131.803 158.191C131.615 157.71 131.431 157.237 131.249 156.77C130.883 155.841 130.531 154.942 130.191 154.077C129.838 153.219 129.454 152.415 129.111 151.637C128.758 150.863 128.441 150.119 128.106 149.43C127.757 148.75 127.426 148.109 127.116 147.507C126.807 146.909 126.518 146.351 126.251 145.835C125.976 145.327 125.691 144.881 125.452 144.471C124.974 143.681 124.597 143.056 124.321 142.599C124.199 142.405 124.1 142.247 124.018 142.118C123.95 142.01 123.911 141.957 123.905 141.961Z" fill="#263238"/>
<path d="M126.019 200.645C125.996 200.661 126.232 201.076 126.68 201.812C127.135 202.543 127.76 203.623 128.492 204.975C129.23 206.325 130.033 207.973 130.848 209.835C131.643 211.707 132.437 213.799 133.135 216.04C133.817 218.287 134.335 220.465 134.729 222.462C135.102 224.462 135.363 226.278 135.511 227.811C135.666 229.343 135.756 230.589 135.79 231.45C135.834 232.311 135.871 232.789 135.899 232.789C135.926 232.789 135.943 232.311 135.949 231.446C135.963 230.581 135.916 229.329 135.798 227.785C135.686 226.241 135.453 224.409 135.098 222.392C134.723 220.379 134.212 218.182 133.525 215.92C132.823 213.663 132.012 211.559 131.193 209.684C130.354 207.818 129.519 206.173 128.745 204.834C127.977 203.493 127.312 202.432 126.815 201.725C126.323 201.014 126.042 200.629 126.019 200.645Z" fill="#263238"/>
<path d="M152.095 229.74H124.772L128.078 257.793H148.691L152.095 229.74Z" fill="#1A5E3F"/>
<path d="M125.837 237.991C125.837 238.104 131.507 238.196 138.5 238.196C145.495 238.196 151.164 238.104 151.164 237.991C151.164 237.878 145.495 237.786 138.5 237.786C131.507 237.786 125.837 237.878 125.837 237.991Z" fill="#FAFAFA"/>
<path d="M125.837 239.858C125.837 239.972 131.507 240.063 138.5 240.063C145.495 240.063 151.164 239.972 151.164 239.858C151.164 239.745 145.495 239.654 138.5 239.654C131.507 239.654 125.837 239.745 125.837 239.858Z" fill="#FAFAFA"/>
<path d="M126.178 241.667C126.178 241.78 131.649 241.872 138.397 241.872C145.148 241.872 150.618 241.78 150.618 241.667C150.618 241.554 145.148 241.462 138.397 241.462C131.649 241.462 126.178 241.554 126.178 241.667Z" fill="#FAFAFA"/>
<path d="M410.512 227.732L423.158 257.874L432.064 257.793L428.139 227.707L410.512 227.732Z" fill="#263238"/>
<path d="M362.078 227.831L374.558 257.834L383.464 257.753L379.57 227.795L362.078 227.831Z" fill="#263238"/>
<path d="M431.302 46.9822C426.414 39.612 329.905 38.5316 325.776 46.2104L290.519 113.574L237.489 111.124C237.488 111.104 230.362 110.783 223.383 117.491C219.941 120.799 220.115 141.667 221.085 149.728C221.731 155.096 229.863 228.101 229.863 228.101L429.659 227.693C429.659 227.693 436.19 54.3525 431.302 46.9822Z" fill="#6CD8FF"/>
<path d="M373.002 229.6C373.002 229.6 372.982 229.382 372.966 228.958C372.953 228.518 372.934 227.891 372.909 227.077C372.868 225.408 372.809 222.978 372.734 219.865C372.604 213.6 372.418 204.589 372.188 193.54L372.354 193.703C356.008 193.82 334.79 193.973 311.677 194.138C287.538 194.272 265.472 194.395 248.808 194.488L248.965 194.353C247.252 204.636 247.442 213.167 247.853 218.994C248.065 221.916 248.345 224.177 248.544 225.71C248.649 226.464 248.73 227.044 248.787 227.452C248.84 227.845 248.856 228.049 248.856 228.049C248.856 228.049 248.171 224.856 247.674 219.008C247.208 213.175 246.968 204.623 248.648 194.299L248.67 194.165L248.805 194.164C265.47 194.044 287.536 193.885 311.674 193.711C334.787 193.582 356.006 193.463 372.352 193.372L372.515 193.371L372.518 193.535C372.686 204.584 372.824 213.596 372.92 219.862C372.957 222.975 372.985 225.406 373.005 227.075C373.01 227.891 373.013 228.517 373.016 228.957C373.015 229.382 373.002 229.6 373.002 229.6Z" fill="#263238"/>
<path d="M366.873 116.556C366.873 116.556 367.009 116.548 367.279 116.548C367.548 116.554 367.951 116.533 368.477 116.61C369.526 116.715 371.094 117.049 372.908 118.004C374.712 118.955 376.737 120.56 378.483 122.95C380.251 125.323 381.583 128.536 382.273 132.25C382.998 135.968 383.1 140.159 383.084 144.664C383.079 149.177 382.929 154.04 382.63 159.206C382.036 169.539 380.762 181.065 379.388 193.498L379.369 193.673L379.194 193.675C363.645 193.781 346.564 193.897 328.674 194.019C293.202 194.228 260.922 194.418 237.044 194.56L236.896 194.56L236.888 194.415C236.497 187.618 236.88 181.442 237.787 176.109C238.721 170.792 240.313 166.295 242.528 163.175C243.621 161.614 244.852 160.404 246.086 159.61C246.236 159.505 246.384 159.403 246.528 159.303C246.685 159.221 246.837 159.141 246.987 159.062C247.286 158.907 247.574 158.758 247.848 158.615C248.433 158.415 248.949 158.189 249.434 158.068C249.921 157.964 250.351 157.873 250.725 157.794C251.101 157.747 251.42 157.736 251.675 157.715C252.185 157.679 252.447 157.672 252.447 157.672C252.447 157.672 252.186 157.709 251.679 157.76C251.426 157.79 251.109 157.808 250.736 157.861C250.366 157.946 249.94 158.044 249.458 158.155C248.979 158.282 248.47 158.513 247.894 158.717C247.624 158.861 247.341 159.012 247.046 159.17C246.899 159.249 246.749 159.33 246.595 159.412C246.453 159.513 246.308 159.616 246.159 159.721C244.948 160.517 243.74 161.723 242.669 163.276C240.498 166.381 238.937 170.854 238.031 176.153C237.15 181.462 236.791 187.633 237.198 194.391L237.042 194.247C260.92 194.076 293.2 193.846 328.67 193.593C346.561 193.482 363.642 193.376 379.191 193.279L378.997 193.455C380.386 181.023 381.681 169.508 382.299 159.187C382.611 154.027 382.775 149.171 382.796 144.664C382.827 140.16 382.741 135.99 382.038 132.295C381.368 128.603 380.066 125.421 378.333 123.06C376.619 120.682 374.626 119.077 372.847 118.118C371.06 117.154 369.509 116.801 368.469 116.675C367.425 116.542 366.872 116.589 366.873 116.556Z" fill="#263238"/>
<path d="M232.795 228.094L229.899 257.793L238.806 257.712L249.957 228.059L232.795 228.094Z" fill="#263238"/>
<path d="M249.433 158.068C249.439 158.096 249.754 158.061 250.319 157.974C250.971 157.864 251.767 157.731 252.705 157.574C254.717 157.233 257.493 156.737 260.582 156.402C263.672 156.07 266.487 156.014 268.525 156.026C269.474 156.039 270.281 156.049 270.94 156.058C271.511 156.065 271.828 156.055 271.83 156.027C271.832 155.998 271.518 155.953 270.949 155.897C270.38 155.835 269.554 155.781 268.531 155.733C266.488 155.646 263.649 155.656 260.537 155.99C257.428 156.328 254.651 156.871 252.65 157.287C251.65 157.499 250.844 157.68 250.288 157.817C249.732 157.951 249.428 158.039 249.433 158.068Z" fill="#263238"/>
<path d="M235.357 111.249C235.34 111.288 236 111.576 237.131 112.205C238.266 112.824 239.833 113.875 241.532 115.443C243.237 117.004 245 119.156 246.556 121.793C248.106 124.433 249.412 127.571 250.282 131.001C251.969 137.905 251.862 144.419 251.755 149.058C251.689 151.387 251.598 153.272 251.544 154.575C251.522 155.192 251.505 155.69 251.491 156.076C251.483 156.42 251.486 156.601 251.5 156.602C251.514 156.602 251.539 156.423 251.574 156.082C251.607 155.697 251.651 155.2 251.705 154.585C251.808 153.285 251.943 151.401 252.047 149.069C252.15 146.737 252.215 143.952 252.069 140.862C251.924 137.775 251.536 134.376 250.682 130.901C249.803 127.431 248.47 124.259 246.883 121.598C245.29 118.94 243.48 116.779 241.728 115.227C239.983 113.667 238.373 112.642 237.207 112.062C236.64 111.739 236.155 111.577 235.846 111.432C235.531 111.298 235.363 111.235 235.357 111.249Z" fill="#263238"/>
<g clip-path="url(#clip0_435_20691)">
<path d="M388.243 54.0974C388.243 54.0974 379.627 61.3837 380.349 71.4734C381.072 81.563 377.415 88.0156 378.86 95.2253C380.305 102.431 375.095 118.216 375.095 118.216C375.095 118.216 363.157 118.413 363.065 128.801C362.972 139.189 344.94 124.439 344.94 124.439L335.255 124.137C335.255 124.137 345.643 91.6204 356.474 85.1357C367.306 78.6509 365.538 65.3753 365.538 65.3753C365.538 65.3753 385.995 59.6155 388.239 54.1014L388.243 54.0974Z" fill="#7EEAB9" stroke="#231F20" stroke-width="0.3" stroke-miterlimit="10"/>
<path d="M373.813 29.0083C373.813 29.0083 365.499 23.2807 368.074 15.1808C370.649 7.0809 375.197 0.169189 375.197 0.169189L375.229 0.209468C381.807 8.08785 384.648 18.4313 382.961 28.5491C382.735 29.9024 382.461 31.3081 382.122 32.7622" fill="#FEC17F"/>
<path d="M373.813 29.0083C373.813 29.0083 365.499 23.2807 368.074 15.1808C370.649 7.0809 375.197 0.169189 375.197 0.169189L375.229 0.209468C381.807 8.08785 384.648 18.4313 382.961 28.5491C382.735 29.9024 382.461 31.3081 382.122 32.7622" stroke="#231F20" stroke-width="0.5" stroke-miterlimit="10"/>
<path d="M360.741 51.2861C360.657 51.9346 361.076 52.5186 361.67 52.5951C362.263 52.6717 362.816 52.2085 362.9 51.56C362.985 50.9115 362.565 50.3275 361.972 50.2509C361.379 50.1744 360.826 50.6376 360.741 51.2861Z" fill="url(#paint0_linear_435_20691)"/>
<path style="mix-blend-mode:multiply" d="M359.841 67.9854C359.373 70.3577 356.891 69.9268 352.303 70.8975C345.612 72.3152 343.098 71.6627 342.093 71.1391C341.576 70.8693 341.007 70.249 340.511 69.4474C340.821 69.8019 341.14 70.0718 341.443 70.2288C342.492 70.7686 344.914 71.3123 352.472 69.52C355.503 68.799 358.405 69.0366 359.841 67.9894V67.9854Z" fill="url(#paint1_linear_435_20691)"/>
<path style="mix-blend-mode:multiply" d="M341.172 65.3834C339.409 65.0652 337.617 61.9638 338.452 57.4849C337.883 57.8514 337.524 58.2542 337.439 58.7093C337.439 58.7979 337.439 58.8865 337.439 58.9711C337.52 62.6123 338.521 65.9352 340.285 66.2574C341.806 66.5353 353.138 65.5445 356.641 62.3223C352.347 64.9202 342.573 65.6412 341.172 65.3874V65.3834Z" fill="url(#paint2_linear_435_20691)"/>
<path style="mix-blend-mode:multiply" d="M355.285 61.2549C357.037 61.3395 357.25 62.6928 357.133 64.163C357.037 65.3673 358.203 63.4541 357.484 61.8711C356.823 60.4171 353.731 61.1784 355.285 61.2549Z" fill="url(#paint3_linear_435_20691)"/>
<path style="mix-blend-mode:multiply" d="M346.314 57.5211C346.378 57.1626 344.534 55.8697 342.988 57.5493C339.437 61.4079 336.547 60.9327 337.249 61.122C340.716 62.0564 346.16 58.3911 346.314 57.5211Z" fill="url(#paint4_linear_435_20691)"/>
<path d="M359.11 69.3105C359.11 69.3105 376.363 73.0645 381.403 62.6727C381.403 62.6727 392.073 56.913 388.429 41.0394C388.429 41.0394 400.024 42.3605 405.823 30.2932C411.622 18.2259 414.645 13.7349 414.645 13.7349C414.645 13.7349 402.542 13.2556 392.606 17.5814C382.67 21.9073 382.327 32.8267 382.327 32.8267C382.327 32.8267 374.704 25.7257 364.336 29.0728C353.969 32.4199 349.973 38.4052 349.973 38.4052C349.973 38.4052 348.412 41.3052 349.126 42.0826C349.84 42.86 347.193 50.2993 340.07 53.441C332.947 56.5827 336.918 60.6065 336.918 60.6065L337.257 61.122C337.257 61.122 338.561 65.2908 339.61 65.7057L340.486 69.226C340.486 69.226 340.316 69.9792 340.486 70.1967C340.655 70.4142 340.558 71.3607 342.576 71.6306C344.594 71.9004 356.023 70.8049 359.118 69.3186" fill="#FEC17F"/>
<path d="M359.11 69.3105C359.11 69.3105 376.363 73.0645 381.403 62.6727C381.403 62.6727 392.073 56.913 388.429 41.0394C388.429 41.0394 400.024 42.3605 405.823 30.2932C411.622 18.2259 414.645 13.7349 414.645 13.7349C414.645 13.7349 402.542 13.2556 392.606 17.5814C382.67 21.9073 382.327 32.8267 382.327 32.8267C382.327 32.8267 374.704 25.7257 364.336 29.0728C353.969 32.4199 349.973 38.4052 349.973 38.4052C349.973 38.4052 348.412 41.3052 349.126 42.0826C349.84 42.86 347.193 50.2993 340.07 53.441C332.947 56.5827 336.918 60.6065 336.918 60.6065L337.257 61.122C337.257 61.122 338.561 65.2908 339.61 65.7057L340.486 69.226C340.486 69.226 340.316 69.9792 340.486 70.1967C340.655 70.4142 340.558 71.3607 342.576 71.6306C344.594 71.9004 356.023 70.8049 359.118 69.3186" stroke="#231F20" stroke-width="0.5" stroke-miterlimit="10"/>
<path d="M407.187 14.3149C407.187 14.3149 400.54 19.1805 394.644 21.5528C388.748 23.9252 387.921 36.8343 387.921 36.8343C387.921 36.8343 391.848 38.6348 396.178 37.66C400.508 36.6853 412.006 14.8224 413.725 14.4317C415.444 14.041 407.187 14.3149 407.187 14.3149Z" fill="#FFF4EC" stroke="black" stroke-width="0.5" stroke-miterlimit="10"/>
<path d="M364.223 42.8841C364.445 42.6867 364.711 42.5095 364.998 42.3605C365.139 42.2799 365.296 42.2235 365.458 42.1792C365.619 42.1349 365.789 42.1027 365.954 42.0705C366.039 42.0664 366.128 42.0584 366.217 42.0544H366.281L366.313 42.0463H366.322H366.475C366.531 42.0503 366.568 42.0584 366.6 42.0664L366.705 42.0825C366.786 42.1067 366.866 42.1148 366.943 42.147C367.262 42.2517 367.573 42.441 367.855 42.6827C368.428 43.162 368.9 43.8226 369.268 44.4791C369.643 45.1356 369.909 45.8042 370.103 46.3883C370.293 46.9763 370.393 47.4879 370.442 47.8544C370.442 47.8906 370.45 47.9148 370.454 47.947C370.813 45.4901 368.739 41.9214 366.572 41.3938C364.695 40.9386 363.517 43.3231 363.178 44.1166C363.202 44.0803 363.222 44.0441 363.25 43.9998C363.456 43.6937 363.767 43.2707 364.219 42.876L364.223 42.8841Z" fill="black"/>
<path d="M361.903 57.5816C362.085 57.5816 362.258 57.5735 362.42 57.5695C362.585 57.5574 362.739 57.5292 362.88 57.5131C363.162 57.4849 363.388 57.3963 363.55 57.3641C363.562 57.3641 363.57 57.36 363.578 57.356C362.827 57.4406 359.833 57.6541 358.404 55.8174C358.404 55.8174 358.42 55.8617 358.449 55.9342C358.449 55.9382 358.453 55.9422 358.457 55.9463C358.562 56.0752 358.707 56.2685 358.925 56.4538C359.03 56.5504 359.155 56.6471 359.288 56.7438C359.425 56.8364 359.567 56.9371 359.732 57.0177C359.889 57.1063 360.063 57.1828 360.236 57.2513C360.414 57.3238 360.6 57.3681 360.785 57.4325C360.975 57.4688 361.165 57.5091 361.35 57.5373C361.54 57.5574 361.726 57.5735 361.903 57.5816Z" fill="black"/>
<path d="M337.249 61.122C337.249 61.122 345.252 60.5621 346.979 55.9664C348.706 51.3706 339.206 55.9664 339.206 55.9664L338.21 54.3875C338.21 54.3875 333.327 56.8605 337.245 61.122H337.249Z" fill="#302312" stroke="black" stroke-miterlimit="10"/>
<path d="M347.269 54.8145C347.269 54.8145 361.455 55.9422 359.114 69.3105C359.114 69.3105 339.247 74.8447 340.51 69.4434L339.763 66.1487C339.763 66.1487 337.297 63.7199 337.253 61.118C337.253 61.118 341.228 61.2469 343.855 59.2088C346.636 57.0499 347.269 54.8145 347.269 54.8145Z" fill="white" stroke="black" stroke-width="0.5" stroke-miterlimit="10"/>
<path d="M353.001 61.0172C353.001 61.0172 348.444 66.7891 340.034 66.9623L353.001 61.0172Z" fill="white"/>
<path d="M353.001 61.0172C353.001 61.0172 348.444 66.7891 340.034 66.9623" stroke="black" stroke-width="0.5" stroke-miterlimit="10"/>
<path d="M367.808 50.4096C368.225 47.9894 366.908 45.7428 364.865 45.3917C362.822 45.0407 360.828 46.7181 360.41 49.1383C359.993 51.5585 361.31 53.8051 363.353 54.1562C365.396 54.5072 367.39 52.8298 367.808 50.4096Z" fill="white" stroke="black" stroke-width="0.5" stroke-miterlimit="10"/>
<path d="M362.86 53.5658C364.095 53.5658 365.096 52.5127 365.096 51.2136C365.096 49.9145 364.095 48.8613 362.86 48.8613C361.625 48.8613 360.624 49.9145 360.624 51.2136C360.624 52.5127 361.625 53.5658 362.86 53.5658Z" fill="black" stroke="black" stroke-miterlimit="10"/>
<path d="M363.832 50.7625C364.3 50.7625 364.679 50.3441 364.679 49.828C364.679 49.3119 364.3 48.8936 363.832 48.8936C363.364 48.8936 362.984 49.3119 362.984 49.828C362.984 50.3441 363.364 50.7625 363.832 50.7625Z" fill="white"/>
<path d="M370.992 28.6176C370.992 28.6176 378.006 29.7453 380.233 38.9328C382.15 46.8474 386.081 59.7404 364.155 69.5884C364.155 69.5884 375.931 71.2116 381.404 62.6726C381.404 62.6726 391.65 56.067 388.43 41.0393C388.43 41.0393 384.773 30.0192 370.992 28.6135V28.6176Z" fill="#F9AA54"/>
<path d="M382.605 33.3744C382.605 33.3744 382.811 23.8849 390.677 18.9146L395.431 20.8922C395.431 20.8922 388.695 21.9636 387.622 37.0437C387.622 37.0437 392.432 39.5289 397.13 37.6076C397.13 37.6076 401.698 33.1488 403.026 30.7281L405.104 30.998C405.104 30.998 400.524 41.7321 387.961 40.8822L382.605 33.3703V33.3744Z" fill="#F9AA54"/>
<path d="M375.33 28.4081C375.33 28.4081 371.94 22.318 373.748 16.4536C375.556 10.5891 377.816 5.62682 377.138 3.14569C376.46 0.664561 387.17 15.3942 382.122 32.7621" fill="#FFF4EC"/>
<path d="M375.33 28.4081C375.33 28.4081 371.94 22.318 373.748 16.4536C375.556 10.5891 377.816 5.62682 377.138 3.14569C376.46 0.664561 387.17 15.3942 382.122 32.7621" stroke="black" stroke-width="0.5" stroke-miterlimit="10"/>
<path d="M359.11 69.3105C359.11 69.3105 360.054 76.5928 349.856 82.9527C339.658 89.3126 330.735 96.313 331.373 100.127C332.01 103.946 326.909 111.578 326.909 111.578L330.759 121.301L335.961 121.877C335.961 121.877 344.827 95.7168 354.077 86.4811C354.077 86.4811 363.137 83.5972 365.45 69.9389L359.106 69.3105H359.11Z" fill="white" stroke="#231F20" stroke-width="0.3" stroke-miterlimit="10"/>
<path d="M359.659 88.2009C359.659 88.2009 370.007 79.0739 374.434 87.1456" stroke="black" stroke-width="0.5" stroke-miterlimit="10"/>
<path d="M359.424 91.5802C359.424 91.5802 358.294 102.995 359.424 108.07C359.424 108.07 341.897 109.021 339.371 112.984L339.73 120.552L362.475 125.595" stroke="black" stroke-width="0.5" stroke-miterlimit="10"/>
<path d="M339.372 112.988C339.372 112.988 332.995 111.864 331.369 113.753C330.041 115.3 330.477 119.36 330.679 120.794C330.711 121.027 330.957 121.164 331.171 121.064C331.728 120.798 332.794 120.476 334.073 121.044C335.962 121.881 337.992 120.858 339.343 120.858C340.695 120.858 339.368 112.988 339.368 112.988H339.372Z" fill="#FEC17F" stroke="#231F20" stroke-width="0.5" stroke-miterlimit="10"/>
<path d="M296.267 119.388C296.267 119.388 286.497 123.118 284.039 143.362C284.039 143.362 275.128 153.484 270.213 154.096C270.213 154.096 271.916 171.991 271.21 172.346C270.503 172.7 274.741 175.516 281.444 164.596C281.444 164.596 287.445 159.312 289.564 158.961C291.683 158.611 286.916 168.121 285.77 169.003C284.624 169.885 276.153 180.276 272.094 180.099L281.093 195.071C281.093 195.071 290.976 180.45 311.623 180.276C311.623 180.276 332.447 194.193 351.156 188.731C369.865 183.269 379.268 141.416 375.095 118.22C375.095 118.22 363.331 119.859 363.804 125.498C364.276 131.133 361.217 133.091 358.686 132.37C358.686 132.37 348.436 128.616 344.941 124.443C344.941 124.443 344.388 126.38 343.742 126.437C343.097 126.493 296.263 119.396 296.263 119.396L296.267 119.388Z" fill="#263238"/>
<path d="M321.671 135.435C302.058 138.931 289.563 158.953 289.563 158.953L299.003 142.29" stroke="white" stroke-width="0.3" stroke-miterlimit="10"/>
<path d="M375.164 118.047C373.17 108.223 363.594 124.524 363.594 124.524C363.594 124.524 361.721 131.443 358.477 131.395C355.232 131.343 344.731 123.468 344.731 123.468L343.533 125.462L334.747 124.713L343.331 147.353L340.675 155.509L348.238 155.715L338.633 163.871C340.062 175.906 348.424 189.126 349.243 189.126C350.062 189.126 359.385 187.953 368.808 168.946C368.808 168.946 379.458 139.193 375.168 118.043L375.164 118.047Z" fill="#7EEAB9"/>
<path d="M281.092 195.067C281.092 195.067 278.171 201.334 273.852 200.794C269.53 200.254 270.232 196.009 270.232 196.009C270.232 196.009 234.347 172.41 231.983 150.136C231.983 150.136 223.33 141.271 226.115 135.6C226.115 135.6 226.115 131.202 228.552 131.085C230.99 130.968 245.716 127.496 253.371 150.994L281.096 195.067H281.092Z" fill="#FEC17F" stroke="#231F20" stroke-width="0.3" stroke-miterlimit="10"/>
<path d="M297.07 119.642L342.64 126.554C343.484 126.683 344.291 126.171 344.537 125.357C344.836 124.367 344.19 123.339 343.169 123.178L331.663 121.35C331.034 121.249 330.509 120.806 330.307 120.202L322.357 96.3451C322.147 95.7128 321.582 95.2576 320.916 95.1851L287.166 91.5319C285.871 91.3909 284.902 92.6879 285.403 93.8882L295.746 118.611C295.976 119.163 296.477 119.553 297.07 119.642Z" fill="#CECECE" stroke="#231F20" stroke-width="0.5" stroke-miterlimit="10"/>
<path d="M319.678 96.4095L328.253 120.838" stroke="#231F20" stroke-width="0.5" stroke-miterlimit="10"/>
<path d="M306.069 104.087C306.99 104.087 307.736 103.41 307.736 102.576C307.736 101.742 306.99 101.066 306.069 101.066C305.149 101.066 304.402 101.742 304.402 102.576C304.402 103.41 305.149 104.087 306.069 104.087Z" fill="white"/>
<path d="M270.213 154.096L253.634 126.252C253.634 126.252 248.291 106.439 231.107 111.772C231.107 111.772 230.28 114.837 230.885 115.485C230.885 115.485 228.626 116.992 230.801 121.084C232.98 125.18 235.155 128.02 235.155 128.02L235.575 129.691C235.575 129.691 244.954 131.363 251.153 142.898L258.772 157.608L263.042 163.541L271.25 170.062L270.209 154.092L270.213 154.096Z" fill="#FEC17F" stroke="#231F20" stroke-width="0.3" stroke-miterlimit="10"/>
<path d="M227.33 131.721C227.33 131.721 242.738 125.394 251.612 147.003C251.612 147.003 256.879 161.41 244.102 172.7C244.102 172.7 232.229 157.133 231.963 150.966C231.963 150.966 223.932 138.988 225.699 135.906C225.699 135.906 226.838 132.289 227.326 131.717L227.33 131.721Z" fill="white" stroke="#231F20" stroke-width="0.3" stroke-miterlimit="10"/>
<path d="M231.983 150.136C237.452 147.353 244.24 148.163 247.666 153.624C248.126 154.321 248.501 155.07 248.852 155.828C245.249 149.073 238.913 147.474 231.983 150.136Z" fill="#231F20"/>
<path d="M225.934 135.439C231.402 132.656 238.19 133.465 241.616 138.927C242.076 139.624 242.451 140.373 242.803 141.13C239.199 134.376 232.863 132.777 225.934 135.439Z" fill="#231F20"/>
<path d="M251.298 142.484C251.298 142.484 246.035 131.725 235.72 129.276C235.72 129.276 226.987 118.377 231.031 115.066C231.031 115.066 230.24 111.357 232.96 110.954C235.68 110.551 247.456 107.74 254.103 126.828C254.103 126.828 255.245 137.038 251.302 142.484H251.298Z" fill="white" stroke="#231F20" stroke-width="0.3" stroke-miterlimit="10"/>
<path d="M230.886 115.485C235.644 113.206 241.524 114.515 244.893 118.567C245.37 119.114 245.801 119.706 246.201 120.315C242.448 115.461 236.766 113.443 230.886 115.485Z" fill="#231F20"/>
<path d="M235.328 128.451C240.018 125.792 245.922 126.392 249.045 131.085C249.461 131.681 249.808 132.321 250.127 132.974C246.797 127.271 241.265 125.925 235.328 128.451Z" fill="#231F20"/>
</g>
<path d="M431.301 46.9821C431.301 46.9821 426.792 44.3462 425.719 51.6893C424.645 59.0333 417.238 112.874 417.238 112.874L371.197 112.437C371.197 112.437 361.471 112.064 354.869 131.993C350.251 145.934 345.539 193.371 345.539 193.371L346.41 227.706L429.659 227.692C429.659 227.692 432.231 155.728 432.66 123.728C433.089 91.7274 434.004 56.824 431.301 46.9821Z" fill="#6CD8FF"/>
<path d="M427.145 46.5015C427.149 46.507 427.064 46.5812 426.896 46.7239C426.734 46.8722 426.491 47.0947 426.215 47.4263C425.672 48.0785 424.956 49.2219 424.816 50.8978C424.414 54.2496 423.834 59.0829 423.113 65.0929C421.63 77.1529 419.567 93.9282 417.237 112.875L417.214 113.063L417.029 113.059C413.955 112.994 410.714 112.925 407.424 112.856C397.04 112.689 387.144 112.617 378.155 112.875C375.908 112.945 373.717 113.038 371.598 113.206C371.068 113.252 370.542 113.296 370.021 113.341C369.5 113.391 368.991 113.48 368.482 113.547C367.44 113.621 366.547 114.023 365.733 114.606C364.138 115.799 362.904 117.355 361.83 118.896C360.753 120.446 359.836 122.019 359.014 123.549C355.762 129.699 353.872 135.066 352.732 138.796C352.17 140.668 351.827 142.151 351.672 143.169C351.59 143.677 351.562 144.069 351.551 144.332C351.553 144.595 351.543 144.732 351.543 144.732C351.543 144.732 351.524 144.598 351.509 144.332C351.505 144.067 351.521 143.669 351.589 143.156C351.718 142.127 352.038 140.633 352.578 138.748C353.113 136.862 353.87 134.587 354.87 131.993C355.88 129.405 357.125 126.491 358.758 123.404C359.576 121.862 360.49 120.275 361.569 118.705C362.65 117.143 363.886 115.561 365.536 114.316L366.19 113.896C366.414 113.764 366.659 113.665 366.895 113.548C367.137 113.441 367.401 113.39 367.656 113.309C367.912 113.252 368.168 113.229 368.426 113.187C368.942 113.118 369.46 113.025 369.985 112.973C370.509 112.926 371.037 112.879 371.57 112.832C373.7 112.656 375.894 112.558 378.144 112.481C387.146 112.201 397.045 112.261 407.433 112.428C410.724 112.499 413.967 112.568 417.042 112.634L416.833 112.819C419.216 93.8787 421.327 77.1099 422.843 65.0547C423.617 59.0518 424.239 54.2241 424.671 50.8763C424.837 49.1732 425.592 48.0123 426.16 47.3721C426.743 46.7231 427.145 46.5015 427.145 46.5015Z" fill="#263238"/>
<path d="M366.872 116.556C366.871 116.565 366.975 116.574 367.174 116.609C367.374 116.64 367.671 116.687 368.056 116.775C368.825 116.936 369.957 117.228 371.327 117.826C372.706 118.394 374.321 119.308 375.915 120.706C376.75 121.366 377.472 122.25 378.263 123.152C378.604 123.648 378.953 124.159 379.313 124.683C379.401 124.815 379.496 124.944 379.581 125.08L379.801 125.514C379.949 125.805 380.099 126.099 380.251 126.397C380.402 126.694 380.556 126.995 380.712 127.3C380.853 127.611 380.95 127.946 381.074 128.273C381.301 128.935 381.571 129.6 381.778 130.299C382.072 131.731 382.526 133.194 382.622 134.775C382.699 135.56 382.821 136.354 382.866 137.167C382.874 137.983 382.881 138.811 382.889 139.653C382.948 141.331 382.798 143.071 382.746 144.85C382.432 151.969 381.917 159.788 381.294 167.989C380.574 177.235 379.787 185.98 379.01 193.655L379.194 193.487C369.232 193.572 360.828 193.643 354.889 193.694C351.949 193.732 349.621 193.762 348.002 193.784C347.222 193.801 346.615 193.813 346.178 193.823C345.986 193.83 345.833 193.836 345.71 193.84C345.604 193.846 345.551 193.852 345.551 193.856C345.551 193.862 345.604 193.866 345.71 193.871C345.833 193.874 345.985 193.878 346.178 193.883C346.614 193.888 347.222 193.895 348.002 193.903C349.621 193.907 351.949 193.911 354.889 193.918C360.828 193.904 369.232 193.884 379.194 193.862H379.361L379.378 193.694C380.183 186.017 380.985 177.272 381.705 168.022C382.329 159.818 382.832 151.993 383.125 144.868C383.172 143.084 383.316 141.353 383.251 139.654C383.24 138.807 383.228 137.971 383.218 137.149C383.168 136.329 383.043 135.526 382.961 134.734C382.856 133.139 382.39 131.658 382.084 130.212C381.869 129.505 381.593 128.832 381.358 128.163C381.23 127.832 381.129 127.495 380.984 127.18C380.824 126.871 380.666 126.566 380.511 126.265C380.355 125.964 380.201 125.666 380.049 125.373L379.822 124.935C379.735 124.797 379.638 124.666 379.547 124.533C379.178 124.005 378.818 123.49 378.469 122.988C377.659 122.078 376.918 121.189 376.065 120.53C374.435 119.129 372.79 118.227 371.389 117.677C369.996 117.098 368.85 116.828 368.071 116.693C367.682 116.619 367.382 116.586 367.18 116.568C366.977 116.546 366.872 116.556 366.872 116.556Z" fill="#263238"/>
<path d="M367.38 228.165C367.494 228.165 367.586 220.697 367.586 211.487C367.586 202.274 367.493 194.808 367.38 194.808C367.266 194.808 367.174 202.274 367.174 211.487C367.174 220.697 367.266 228.165 367.38 228.165Z" fill="#263238"/>
<path fill-rule="evenodd" clip-rule="evenodd" d="M125.041 121.39C127.416 121.39 129.342 119.526 129.342 117.227C129.342 114.927 127.417 113.063 125.041 113.063C122.666 113.063 120.74 114.927 120.74 117.227C120.74 117.625 120.798 118.01 120.906 118.375C121.332 117.06 122.553 116.104 123.411 115.872C123.918 115.736 124.444 115.756 124.9 115.775C125.654 115.804 126.219 115.827 126.201 115.12C126.201 115.12 125.509 115.039 125.251 114.275C125.234 114.221 125.266 114.166 125.323 114.154C125.57 114.097 126.22 114.014 126.591 114.559L127.226 114.499C127.26 114.496 127.294 114.51 127.314 114.537L127.488 114.767C127.503 114.786 127.524 114.8 127.549 114.805L128.028 114.89C128.086 114.9 128.121 114.958 128.103 115.011C128.051 115.162 127.86 115.417 127.153 115.426C127.153 115.426 127.151 116.57 126.661 117.327L127.143 117.569C127.175 117.585 127.197 117.619 127.196 117.655C127.19 117.804 127.129 118.191 126.642 118.322C126.192 118.444 125.969 118.155 125.884 117.996C125.857 117.945 125.882 117.884 125.937 117.864L126.126 117.796C126.172 117.779 126.224 117.799 126.247 117.841C126.301 117.945 126.427 118.1 126.662 117.955C126.995 117.751 125.556 117.441 125.556 117.441C125.556 117.441 125.283 117.746 124.867 118.026L124.859 118.015C124.848 118 124.837 117.986 124.825 117.97C124.685 117.782 124.504 117.613 124.301 117.49C124.07 117.349 123.818 117.285 123.548 117.286C123.589 117.286 123.642 117.307 123.687 117.324C123.699 117.328 123.71 117.332 123.721 117.336C123.793 117.361 123.861 117.396 123.926 117.435C124.057 117.514 124.171 117.619 124.266 117.737C124.43 117.943 124.565 118.213 124.613 118.47C124.692 118.897 124.783 119.773 124.383 120.499C124.201 120.831 124.088 121.071 124.039 121.276C124.361 121.35 124.696 121.39 125.041 121.39ZM121.692 119.649C122.142 120.19 122.73 120.619 123.404 120.888C123.497 120.514 123.558 120.05 123.467 119.602C123.357 119.063 123.048 118.908 122.73 118.748C122.462 118.613 122.187 118.475 122.018 118.104C122.018 118.104 121.616 118.625 121.692 119.649Z" fill="url(#paint5_linear_435_20691)"/>
<g clip-path="url(#clip1_435_20691)">
<path d="M141.435 118.541C141.435 118.54 141.435 118.54 141.436 118.54C142.012 118.429 142.445 117.911 142.445 117.326C142.445 116.741 142.013 116.235 141.419 116.13L141.294 116.107H141.258H139.523C138.845 116.107 138.333 116.589 138.305 117.251C138.293 117.563 138.104 117.787 137.817 117.835C137.781 117.841 137.746 117.844 137.711 117.844C137.553 117.844 137.405 117.785 137.294 117.677C137.184 117.568 137.124 117.423 137.125 117.268C137.131 116.523 137.438 115.909 138.037 115.441C138.455 115.115 138.947 114.951 139.5 114.951C140.058 114.951 140.616 114.951 141.175 114.951H141.265C142.577 114.984 143.641 116.051 143.641 117.327C143.641 118.603 142.579 119.664 141.275 119.702H141.26L139.148 119.702C139.148 119.702 140.089 119.037 140.221 118.541H141.435Z" fill="#6CCDC5"/>
<path d="M138.077 114.883L136.406 114.864C136.388 114.864 136.371 114.865 136.353 114.866C135.053 114.929 134.035 115.972 134.035 117.239C134.035 118.506 135.1 119.581 136.408 119.615V119.622H137.093C137.266 119.622 137.437 119.622 137.73 119.62C137.852 119.62 137.976 119.607 138.097 119.586C139.229 119.386 140.04 118.451 140.069 117.313C140.078 116.987 139.825 116.714 139.504 116.704H139.486C139.151 116.704 138.9 116.947 138.888 117.282C138.886 117.342 138.882 117.422 138.866 117.501C138.748 118.072 138.27 118.456 137.674 118.456H137.247H136.414H136.369L136.256 118.435C135.662 118.33 135.23 117.827 135.23 117.239C135.23 116.887 135.383 116.568 135.631 116.345C135.972 116.04 136.471 116.046 136.928 116.044C136.928 116.044 137.158 115.27 138.077 114.883Z" fill="#6CCDC5"/>
<path d="M134.774 114.918C134.151 115.144 133.783 115.967 133.783 115.967L133.507 115.963C132.77 115.971 132.329 116.327 132.329 117.05V119.65H131.202L131.202 117.05C131.202 115.67 132.093 114.966 133.507 114.958V114.956L133.804 114.944L134.25 114.928L134.774 114.918Z" fill="#6CCDC5"/>
</g>
<path d="M80.1388 81.7617L81.0454 78.3698L78.9144 76.0752L79.6904 74.5039L66.5366 79.7053C62.9835 81.1104 58.955 79.3797 57.5583 75.8478L56.6795 73.6246C55.2827 70.0927 57.038 66.0749 60.5912 64.6699L74.4426 59.1923L74.7377 59.0756L74.7275 59.0496L75.0383 58.894L75.8046 57.109L75.4618 55.4798L74.9804 55.1708L73.6791 54.8488L73.5601 53.1426L72.1073 52.425L57.9608 58.0193C50.7178 60.8837 47.1415 69.0703 49.9886 76.2698L50.8674 78.4925C53.7146 85.692 61.9231 89.2188 69.1661 86.3545L80.3167 81.9452L80.1388 81.7617Z" fill="url(#paint6_linear_435_20691)"/>
<path d="M0.588424 56.9401L1.24579 54.6419C3.37492 47.1988 11.1989 42.8858 18.6874 45.0275L33.3134 49.2107C40.8019 51.3523 45.1621 59.1503 43.0334 66.5939L42.3761 68.8922C40.2474 76.3358 32.423 80.6487 24.9344 78.5066L10.3085 74.3234C2.81993 72.1813 -1.54024 64.3833 0.588424 56.9401ZM36.1165 64.6154C37.1612 60.9635 35.0209 57.137 31.3473 56.0863L16.7213 51.9031C13.0477 50.8525 9.20778 52.9691 8.1636 56.6205L7.50624 58.9187C6.4616 62.5701 8.60138 66.3971 12.2755 67.4477L26.9014 71.6309C30.5755 72.6816 34.415 70.5654 35.4592 66.9136L36.1165 64.6154Z" fill="#E0E0E0"/>
<path d="M36.1182 64.6151C36.1233 64.6165 36.1094 64.6841 36.0779 64.8148C36.0404 64.9607 35.9908 65.1511 35.9288 65.3915C35.7787 65.8956 35.6272 66.6474 35.2913 67.5966C34.9235 68.5222 34.2592 69.6132 33.1288 70.4985C32.0235 71.3967 30.4146 72.0421 28.6037 71.9985C27.6962 71.9906 26.772 71.7215 25.8483 71.4537C24.9144 71.1897 23.9429 70.915 22.9372 70.6305C20.9248 70.0598 18.7762 69.4501 16.5155 68.8085C15.3847 68.487 14.2261 68.1572 13.0429 67.8209C11.8644 67.5258 10.602 67.0593 9.61668 66.1948C8.61326 65.3554 7.84101 64.213 7.42408 62.9275C7.21793 62.2831 7.11602 61.6053 7.09146 60.9216C7.08174 60.2355 7.18273 59.5489 7.35784 58.8777C7.54453 58.2254 7.72983 57.5769 7.91421 56.9329C7.99852 56.6119 8.1148 56.2881 8.22505 55.9661C8.36264 55.6562 8.48448 55.3365 8.66468 55.0503C9.32668 53.8694 10.3384 52.9253 11.4906 52.3124C12.0668 52.0006 12.6862 51.7968 13.3088 51.6449C13.9384 51.5249 14.5745 51.4586 15.2031 51.5012C15.5167 51.5147 15.8271 51.5656 16.1329 51.6143C16.4335 51.687 16.742 51.7482 17.0265 51.8371C17.6051 52.0034 18.1767 52.1679 18.7419 52.3305C23.2554 53.6345 27.3214 54.8089 30.7431 55.7975C31.5959 56.0203 32.4279 56.3182 33.1094 56.7569C33.8001 57.1849 34.3727 57.7056 34.8331 58.2518C35.2867 58.8068 35.6147 59.39 35.869 59.9455C36.0918 60.5139 36.2646 61.0485 36.3313 61.547C36.4925 62.5393 36.4092 63.3245 36.3193 63.8401C36.2739 64.0991 36.2099 64.2904 36.1789 64.4206C36.1437 64.5507 36.1233 64.6165 36.1182 64.6151C36.0427 64.6151 36.5403 63.5325 36.2127 61.5683C36.1381 61.0805 35.9598 60.5588 35.7337 60.0057C35.4766 59.4656 35.1491 58.9004 34.7002 58.3639C33.7982 57.2957 32.4224 56.3905 30.6828 56.0092C27.2557 55.0391 23.1836 53.8861 18.6632 52.6061C18.0975 52.4454 17.5254 52.2828 16.9463 52.1183C16.6559 52.0284 16.3687 51.9742 16.0777 51.9038C15.784 51.8584 15.4866 51.8102 15.1864 51.7977C14.5846 51.7579 13.9755 51.8237 13.3728 51.939C12.777 52.0863 12.184 52.2814 11.6332 52.5811C10.5311 53.1694 9.56526 54.0742 8.93384 55.2027C8.76151 55.476 8.64616 55.7817 8.51413 56.0778C8.40943 56.3858 8.29871 56.6902 8.21255 57.0177C8.02817 57.6621 7.84287 58.3102 7.65664 58.9625C7.4894 59.6041 7.39304 60.2596 7.40185 60.9151C7.42547 61.5687 7.52229 62.2164 7.71871 62.8325C8.11665 64.062 8.85416 65.1562 9.8131 65.9609C10.2949 66.3574 10.8151 66.7067 11.3803 66.9485C11.9334 67.2108 12.5306 67.3613 13.1245 67.5346C14.3067 67.8746 15.4644 68.2072 16.5943 68.5324C18.8522 69.1833 20.9984 69.8022 23.008 70.3817C24.0119 70.6722 24.9815 70.9525 25.9141 71.2221C26.8485 71.4991 27.731 71.7627 28.6102 71.7775C30.3636 71.8336 31.9341 71.2235 33.0218 70.36C34.1346 69.5099 34.8003 68.4527 35.1787 67.5503C35.5248 66.6298 35.7004 65.8664 35.8685 65.373C35.9431 65.1358 36.0019 64.9487 36.0473 64.8046C36.089 64.6781 36.1127 64.6133 36.1182 64.6151Z" fill="#263238"/>
<path d="M0.589478 56.9401C0.589478 56.9401 0.575117 57.0485 0.53296 57.2551C0.486171 57.4733 0.420852 57.7772 0.337003 58.1695C0.254543 58.5716 0.221651 59.0812 0.143361 59.6756C0.125294 59.9749 0.129 60.2987 0.120198 60.6433C0.119735 60.8161 0.108153 60.9945 0.116029 61.1779C0.130853 61.3609 0.146141 61.5499 0.161891 61.744C0.274926 63.2908 0.690468 65.1902 1.70917 67.1544C2.70147 69.1205 4.38263 71.1111 6.72902 72.5972C9.07496 74.1264 12.1598 74.6476 15.2946 75.6144C18.4587 76.5034 21.8368 77.4975 25.396 78.4658C28.9339 79.3927 33.0518 78.8313 36.4053 76.6609C38.0813 75.5917 39.5628 74.1366 40.6413 72.3855C40.8928 71.938 41.1893 71.5123 41.3839 71.0305C41.6044 70.5621 41.8263 70.0924 41.975 69.5916L42.2284 68.8509L42.4471 68.0874C42.593 67.5778 42.7389 67.0664 42.8858 66.5536C44.0564 62.476 43.1929 58.0496 40.8984 54.7956C39.7518 53.1668 38.2824 51.8155 36.6411 50.8306C35.0044 49.8147 33.1815 49.3084 31.3975 48.8104C27.8433 47.7889 24.4662 46.8174 21.304 45.9085C19.7201 45.4656 18.2081 44.9533 16.7117 44.7476C15.9636 44.6188 15.2205 44.6179 14.4951 44.5961C13.771 44.6471 13.0594 44.6702 12.3784 44.8134C11.6887 44.9005 11.0429 45.1196 10.4064 45.2896C9.78976 45.5254 9.17595 45.7246 8.62421 46.0229C7.48645 46.5487 6.52009 47.2436 5.66538 47.9385C3.98469 49.3788 2.89094 50.9835 2.19837 52.3719C2.03669 52.7258 1.87038 53.0547 1.73789 53.373C1.62393 53.6982 1.51738 54.0035 1.41778 54.287C1.21071 54.8503 1.09257 55.3488 0.966106 55.7402C0.848901 56.1247 0.758567 56.4231 0.693711 56.6366C0.629781 56.8386 0.589478 56.9401 0.589478 56.9401C0.589478 56.9401 0.608934 56.833 0.661746 56.6287C0.719653 56.4129 0.80026 56.1122 0.904492 55.724C1.02123 55.3288 1.12871 54.8308 1.32837 54.2601C1.42427 53.9729 1.52711 53.6644 1.63736 53.335C1.76661 53.0121 1.92968 52.6786 2.08858 52.3195C2.77003 50.9112 3.86054 49.2778 5.55142 47.8069C6.41123 47.0972 7.38592 46.3861 8.53619 45.846C9.09395 45.5402 9.71518 45.3341 10.3401 45.0918C10.985 44.9153 11.6395 44.6902 12.34 44.5975C13.0307 44.4483 13.7539 44.421 14.4895 44.3663C15.227 44.3844 15.983 44.3825 16.7442 44.5104C18.2766 44.7156 19.7929 45.2252 21.374 45.6611C24.5385 46.5617 27.9184 47.5234 31.4753 48.5352C32.3633 48.7979 33.2676 49.0179 34.171 49.3482C34.6305 49.4849 35.0678 49.6864 35.5056 49.8925C35.9545 50.0764 36.3724 50.3266 36.793 50.5768C38.4709 51.5797 39.9742 52.9588 41.1472 54.6219C43.495 57.9425 44.3812 62.4704 43.1836 66.6397C43.0368 67.1526 42.8909 67.664 42.7449 68.1736L42.5263 68.937L42.2673 69.694C42.1144 70.2059 41.8884 70.6863 41.6628 71.1653C41.4631 71.6573 41.1606 72.0932 40.9026 72.5504C39.7986 74.3405 38.2833 75.8266 36.5693 76.9175C33.1412 79.1319 28.9329 79.6976 25.3251 78.7442C21.7515 77.7635 18.3883 76.7637 15.2233 75.8627C13.6431 75.4078 12.1172 74.9682 10.65 74.5457C9.18475 74.1047 7.79035 73.5636 6.61136 72.7839C4.23531 71.2626 2.54396 69.2326 1.55398 67.235C0.538056 65.2388 0.136412 63.3149 0.0405179 61.7533C0.0270834 61.5573 0.0141122 61.3669 0.00114102 61.1821C-0.00395481 60.9973 0.00947991 60.8171 0.0127227 60.6433C0.0266204 60.2959 0.0280101 59.9698 0.0507097 59.6691C0.139192 59.0715 0.182275 58.5605 0.274926 58.1589C0.37221 57.7679 0.44772 57.4649 0.501922 57.2481C0.554733 57.0424 0.589478 56.9401 0.589478 56.9401Z" fill="#263238"/>
<path d="M0.5894 56.9401L1.24676 54.6419C3.37589 47.1988 11.1998 42.8858 18.6884 45.0275L33.3143 49.2107C40.8029 51.3523 45.1631 59.1503 43.0344 66.5939L42.377 68.8922C40.2484 76.3358 32.424 80.6487 24.9354 78.5066L10.3095 74.3234C2.82091 72.1813 -1.53927 64.3833 0.5894 56.9401ZM36.1175 64.6154C37.1622 60.9635 35.0219 57.137 31.3483 56.0863L16.7223 51.9031C13.0487 50.8525 9.20876 52.9691 8.16458 56.6205L7.50722 58.9187C6.46257 62.5701 8.60236 66.3971 12.2764 67.4477L26.9024 71.6309C30.5765 72.6816 34.416 70.5654 35.4601 66.9136L36.1175 64.6154Z" fill="url(#paint7_linear_435_20691)"/>
<path d="M29.7125 65.078C30.2285 63.1722 32.202 62.0478 34.1194 62.5667L60.6946 69.7625C62.6121 70.2818 63.7484 72.2483 63.2324 74.1541C62.7163 76.06 60.7428 77.1843 58.8254 76.665L32.2502 69.4692C30.3328 68.9504 29.1959 66.9838 29.7125 65.078Z" fill="url(#paint8_linear_435_20691)"/>
<path d="M29.7125 65.0779C29.7334 65.0821 29.6454 65.3443 29.6255 65.8571C29.6148 66.3607 29.6991 67.1543 30.2481 67.9608C30.5181 68.3587 30.9036 68.7516 31.4155 69.0379C31.9167 69.3432 32.5579 69.4594 33.2324 69.6457C34.5832 70.0042 36.1171 70.4119 37.8112 70.8617C41.2078 71.7715 45.2432 72.8523 49.7225 74.0522C51.9637 74.6562 54.3157 75.2895 56.7533 75.9464C57.363 76.1109 57.9777 76.2772 58.5975 76.4444C59.2081 76.6288 59.8242 76.6987 60.4432 76.5672C61.6726 76.3346 62.753 75.3636 63.0814 74.1152C63.4293 72.8713 62.9878 71.4871 62.0433 70.6653C61.5754 70.2391 61.0083 69.988 60.388 69.8393C59.7682 69.6711 59.1535 69.5039 58.5438 69.3385C56.1071 68.6756 53.756 68.0358 51.5162 67.4262C47.043 66.2018 43.0131 65.0993 39.6211 64.1709C37.9316 63.7048 36.402 63.2824 35.0548 62.9108C34.3785 62.7311 33.766 62.5083 33.1796 62.5189C32.5931 62.5078 32.0626 62.6523 31.6286 62.8599C30.7475 63.2791 30.2745 63.9217 30.0299 64.3617C29.7885 64.8144 29.7325 65.0854 29.7125 65.0779C29.7125 65.0779 29.7473 64.8028 29.9747 64.3326C30.2059 63.8758 30.6733 63.2017 31.5762 62.751C32.021 62.5282 32.5694 62.3684 33.1805 62.3707C33.8003 62.3526 34.4322 62.574 35.1011 62.7431C36.452 63.1017 37.9858 63.5094 39.68 63.9592C43.0766 64.869 47.1125 65.9498 51.5922 67.1501C53.8339 67.7542 56.1863 68.3879 58.6244 69.0448C59.2341 69.2093 59.8493 69.3756 60.4691 69.5428C61.0968 69.6901 61.7495 69.9736 62.2494 70.4346C63.2792 71.3287 63.7619 72.8398 63.3821 74.1972C63.024 75.5601 61.844 76.6195 60.5043 76.8711C59.84 77.0165 59.134 76.9308 58.5179 76.7418C57.8985 76.5737 57.2837 76.4064 56.6746 76.2415C54.2383 75.5786 51.8877 74.9388 49.6483 74.3296C45.1756 73.1057 41.1462 72.0027 37.7542 71.0743C36.0647 70.6083 34.5346 70.1858 33.1874 69.8138C32.525 69.622 31.8676 69.4946 31.3414 69.1667C30.8123 68.8604 30.4195 68.4458 30.148 68.0289C29.5963 67.1844 29.5323 66.3663 29.5629 65.8553C29.6032 65.3337 29.7125 65.0779 29.7125 65.0779Z" fill="#263238"/>
<path opacity="0.3" d="M31.7588 71.2523C31.7588 71.2523 33.2407 70.4824 33.7313 69.8468C33.7313 69.8468 41.5103 71.8425 41.3811 71.868C41.2514 71.8935 39.7458 74.3557 38.6729 75.1265L31.7588 71.2523Z" fill="black"/>
<path opacity="0.3" d="M59.2152 78.2975C59.2152 78.2975 58.0329 76.8725 57.8286 76.5181C57.8286 76.5181 49.1921 74.0536 49.2899 74.1416C49.3876 74.2301 50.4503 77.5391 50.9738 78.7519L59.2152 78.2975Z" fill="black"/>
<path opacity="0.3" d="M87.5882 58.1145L88.4804 53.563L83.3271 53.9901L87.5882 58.1145Z" fill="#47CEFF"/>
<path d="M87.4702 57.0495L88.4806 53.563L83.2578 53.9387L87.4702 57.0495Z" fill="url(#paint9_linear_435_20691)"/>
<path d="M85.2391 73.8771L84.6025 76.2874L88.1817 75.9432L85.2391 73.8771Z" fill="url(#paint10_linear_435_20691)"/>
<path opacity="0.3" d="M77.5244 96.3254H81.5737V91.3796L78.4667 92.0764L77.5244 96.3254Z" fill="#47CEFF"/>
<path d="M81.574 90.9091L81.2321 95.9238L77.3982 96.1114L75.1787 92.2618L81.574 90.9091Z" fill="url(#paint11_linear_435_20691)"/>
<path d="M199.159 58.3572L196.129 60.1808L196.068 63.3335L194.407 63.9292L207.575 69.3599C211.133 70.8271 212.841 74.8983 211.383 78.4341L210.465 80.6593C209.007 84.195 204.926 85.8787 201.368 84.412L187.501 78.6934L187.206 78.5717L187.195 78.5973L186.861 78.4924L185.058 79.2495L184.166 80.6696L184.299 81.2299L185.016 82.3733L183.909 83.6931L184.46 85.2288L198.623 91.0691C205.874 94.0595 214.191 90.6287 217.163 83.4211L218.081 81.1958C221.053 73.9882 217.572 65.6922 210.321 62.7018L199.158 58.0983L199.159 58.3572Z" fill="url(#paint12_linear_435_20691)"/>
<path d="M268.354 70.4016L268.68 72.7869C269.736 80.511 264.273 87.6594 256.502 88.7221L241.323 90.7976C233.552 91.8603 226.37 86.4404 225.314 78.7163L224.988 76.3315C223.932 68.607 229.395 61.4586 237.166 60.3959L252.344 58.3203C260.117 57.2581 267.298 62.6776 268.354 70.4016ZM232.493 77.7348C233.011 81.5242 236.535 84.1838 240.348 83.6627L255.526 81.5872C259.338 81.0661 262.019 77.558 261.501 73.7685L261.175 71.3836C260.657 67.5942 257.133 64.9346 253.32 65.4561L238.142 67.5312C234.329 68.0527 231.649 71.5605 232.167 75.3499L232.493 77.7348Z" fill="#E0E0E0"/>
<path d="M232.494 77.7347C232.489 77.7357 232.474 77.6676 232.451 77.5341C232.426 77.3844 232.394 77.1889 232.354 76.9421C232.288 76.4168 232.123 75.662 232.048 74.6511C232.011 73.649 232.181 72.3736 232.864 71.099C233.519 69.8231 234.74 68.5757 236.427 67.881C237.266 67.5204 238.228 67.3935 239.187 67.2657C240.155 67.1304 241.162 66.9895 242.205 66.844C244.291 66.5543 246.519 66.2445 248.863 65.9193C250.035 65.7575 251.237 65.5914 252.464 65.4216C253.67 65.2158 255.022 65.1342 256.282 65.5312C257.547 65.8979 258.722 66.6378 259.627 67.6538C260.079 68.1642 260.448 68.7474 260.747 69.3678C261.034 69.9967 261.22 70.6703 261.331 71.3598C261.423 72.0367 261.515 72.7095 261.607 73.378C261.659 73.7083 261.683 74.0539 261.712 74.395C261.711 74.7365 261.728 75.0803 261.678 75.4171C261.547 76.7737 260.998 78.0548 260.184 79.0867C259.779 79.6078 259.291 80.0468 258.778 80.4391C258.247 80.8053 257.687 81.1244 257.091 81.3395C256.796 81.4543 256.489 81.5331 256.188 81.6124C255.881 81.667 255.572 81.736 255.273 81.7691C254.673 81.8503 254.079 81.9306 253.492 82.0099C248.803 82.6383 244.579 83.2046 241.024 83.6809C240.147 83.8213 239.259 83.8843 238.453 83.756C237.643 83.6417 236.904 83.394 236.258 83.0773C235.615 82.7498 235.076 82.3453 234.616 81.9362C234.18 81.5028 233.804 81.0796 233.54 80.6476C232.989 79.7986 232.748 79.0405 232.621 78.5287C232.558 78.2717 232.54 78.0697 232.516 77.9367C232.496 77.8042 232.489 77.7352 232.494 77.7347C232.564 77.7039 232.544 78.9038 233.643 80.5814C233.909 81.0008 234.285 81.4095 234.718 81.8275C235.174 82.2212 235.706 82.6093 236.336 82.9214C237.601 83.54 239.237 83.8167 240.994 83.4626C244.547 82.9672 248.768 82.3784 253.454 81.7253C254.04 81.6441 254.634 81.562 255.234 81.479C255.539 81.444 255.825 81.3773 256.122 81.3246C256.411 81.2471 256.705 81.1711 256.986 81.0605C257.557 80.8529 258.092 80.5455 258.601 80.1947C259.09 79.8173 259.558 79.3969 259.944 78.8973C260.721 77.9078 261.245 76.6827 261.369 75.3863C261.417 75.0644 261.4 74.7355 261.402 74.4094C261.373 74.0829 261.352 73.7572 261.298 73.4209C261.207 72.7524 261.115 72.0797 261.022 71.4027C260.915 70.7436 260.739 70.0998 260.465 69.4994C260.178 68.9064 259.826 68.3485 259.395 67.8605C258.53 66.8883 257.406 66.1787 256.196 65.826C255.592 65.6558 254.97 65.5447 254.351 65.5513C253.735 65.534 253.124 65.6371 252.506 65.7183C251.278 65.8844 250.076 66.0467 248.903 66.2053C246.558 66.5207 244.328 66.8207 242.24 67.1015C241.197 67.241 240.19 67.3758 239.221 67.505C238.247 67.6287 237.327 67.7434 236.51 68.0863C234.871 68.7455 233.671 69.9449 233.019 71.1821C232.338 72.417 232.153 73.6611 232.17 74.6464C232.224 75.6354 232.372 76.4103 232.417 76.9333C232.445 77.1819 232.466 77.3788 232.483 77.5295C232.495 77.6643 232.5 77.7338 232.494 77.7347Z" fill="#263238"/>
<path d="M268.354 70.4016C268.354 70.4016 268.323 70.2962 268.278 70.0886C268.233 69.8684 268.17 69.5619 268.088 69.1659C268.001 68.7619 267.824 68.2785 267.656 67.6991C267.551 67.416 267.417 67.1193 267.285 66.7974C267.216 66.6378 267.154 66.4689 267.072 66.3029C266.984 66.14 266.894 65.9721 266.8 65.8C266.069 64.42 264.915 62.8376 263.18 61.4399C261.469 60.0301 259.112 58.8769 256.346 58.4589C253.563 58.0003 250.508 58.771 247.227 59.1512C243.95 59.6149 240.433 60.0684 236.759 60.6193C233.122 61.1997 229.554 63.3871 227.344 66.7479C226.232 68.4134 225.457 70.355 225.173 72.4067C225.123 72.9213 225.022 73.434 225.038 73.9569C225.025 74.478 225.011 75.001 225.077 75.523L225.144 76.3082L225.252 77.1003C225.324 77.6293 225.397 78.1598 225.47 78.6921C226.044 82.9252 228.635 86.655 232.07 88.724C233.787 89.7601 235.69 90.4099 237.602 90.6521C239.522 90.9245 241.408 90.6521 243.255 90.388C246.945 89.8884 250.452 89.4139 253.735 88.9693C255.374 88.7352 256.976 88.5947 258.439 88.1772C259.18 87.9925 259.866 87.692 260.544 87.4177C261.19 87.0772 261.837 86.7674 262.406 86.3592C263.007 85.9991 263.513 85.5353 264.031 85.1206C264.503 84.6532 264.989 84.2207 265.376 83.722C266.212 82.7759 266.821 81.7435 267.327 80.7564C268.292 78.7471 268.649 76.8246 268.724 75.2641C268.73 74.8722 268.75 74.5018 268.743 74.1547C268.716 73.8086 268.69 73.4844 268.667 73.1825C268.63 72.5793 268.536 72.0718 268.494 71.6598C268.446 71.2577 268.409 70.9465 268.382 70.7231C268.358 70.5113 268.354 70.4016 268.354 70.4016C268.354 70.4016 268.379 70.508 268.413 70.7179C268.447 70.9405 268.495 71.2502 268.556 71.6505C268.609 72.062 268.712 72.5649 268.759 73.1718C268.787 73.4755 268.818 73.8016 268.85 74.1501C268.862 74.5 268.847 74.8736 268.846 75.2688C268.789 76.8433 268.446 78.791 267.484 80.8324C266.979 81.8354 266.369 82.8856 265.528 83.8503C265.137 84.3583 264.648 84.8001 264.171 85.2769C263.648 85.7014 263.136 86.174 262.528 86.5435C261.952 86.961 261.297 87.2796 260.641 87.6281C259.953 87.9104 259.257 88.2187 258.504 88.41C257.008 88.842 255.404 88.9875 253.769 89.2269C250.487 89.6803 246.982 90.1646 243.293 90.674C242.368 90.792 241.445 90.9558 240.478 91.0178C239.999 91.078 239.515 91.0701 239.027 91.0575C238.539 91.0696 238.052 91.0085 237.563 90.9488C235.61 90.7048 233.665 90.0433 231.909 88.9861C228.399 86.8775 225.745 83.0633 225.159 78.7345C225.086 78.2022 225.013 77.6718 224.941 77.1428L224.833 76.3502L224.764 75.5473C224.698 75.0136 224.712 74.479 224.725 73.9458C224.71 73.4116 224.812 72.8868 224.864 72.361C225.156 70.2631 225.95 68.279 227.088 66.5786C229.349 63.1474 232.999 60.9193 236.711 60.3352C240.403 59.7899 243.909 59.3476 247.191 58.8946C248.832 58.6735 250.417 58.4598 251.941 58.2541C253.47 58.0666 254.975 57.9994 256.378 58.2401C259.185 58.6791 261.567 59.864 263.289 61.3042C265.036 62.7322 266.186 64.3426 266.907 65.7435C266.999 65.9185 267.088 66.0887 267.175 66.2539C267.255 66.4223 267.315 66.5935 267.383 66.7549C267.511 67.081 267.643 67.3819 267.743 67.6688C267.904 68.2557 268.071 68.7437 268.149 69.1519C268.218 69.5517 268.271 69.8614 268.309 70.0835C268.345 70.2934 268.354 70.4016 268.354 70.4016Z" fill="#263238"/>
<path d="M268.354 70.4016L268.68 72.7869C269.736 80.511 264.273 87.6594 256.502 88.7221L241.323 90.7976C233.552 91.8603 226.37 86.4404 225.314 78.7163L224.988 76.3315C223.932 68.607 229.395 61.4586 237.166 60.3959L252.344 58.3203C260.117 57.2581 267.298 62.6776 268.354 70.4016ZM232.493 77.7348C233.011 81.5242 236.535 84.1838 240.348 83.6627L255.526 81.5872C259.338 81.0661 262.019 77.558 261.501 73.7685L261.175 71.3836C260.657 67.5942 257.133 64.9346 253.32 65.4561L238.142 67.5312C234.329 68.0527 231.649 71.5605 232.167 75.3499L232.493 77.7348Z" fill="url(#paint13_linear_435_20691)"/>
<path d="M238.207 74.7126C238.504 76.6785 237.141 78.5156 235.163 78.8142L207.749 82.9587C205.771 83.2577 203.926 81.9058 203.629 79.9399C203.331 77.974 204.695 76.1368 206.672 75.8383L234.086 71.6938C236.064 71.3947 237.909 72.7467 238.207 74.7126Z" fill="url(#paint14_linear_435_20691)"/>
<path d="M238.207 74.7124C238.186 74.7171 238.161 74.4395 237.972 73.959C237.777 73.4906 237.378 72.7932 236.545 72.2725C236.134 72.015 235.619 71.8093 235.032 71.7533C234.446 71.6754 233.807 71.828 233.11 71.9301C231.719 72.1475 230.14 72.3938 228.396 72.6663C224.897 73.2051 220.739 73.8452 216.123 74.5557C213.812 74.9079 211.387 75.2778 208.874 75.6608C208.245 75.7565 207.611 75.8526 206.972 75.9496C206.335 76.027 205.738 76.2127 205.221 76.585C204.182 77.2978 203.58 78.6311 203.784 79.915C203.967 81.2025 204.935 82.2993 206.139 82.6739C206.744 82.8773 207.368 82.8787 208 82.7644C208.64 82.6683 209.274 82.5727 209.903 82.478C212.418 82.1011 214.845 81.7372 217.157 81.3906C221.777 80.7052 225.938 80.0871 229.441 79.5674C231.187 79.3122 232.769 79.0808 234.161 78.8774C234.857 78.7687 235.512 78.7258 236.049 78.4781C236.593 78.2504 237.024 77.902 237.34 77.5348C237.982 76.7912 238.157 76.007 238.204 75.5022C238.244 74.9867 238.186 74.7143 238.207 74.7124C238.207 74.7124 238.287 74.9802 238.268 75.5059C238.24 76.021 238.082 76.8313 237.433 77.6132C237.114 77.999 236.673 78.3689 236.109 78.6143C235.545 78.8826 234.872 78.9344 234.188 79.0501C232.797 79.2674 231.218 79.5138 229.474 79.7862C225.974 80.325 221.816 80.9651 217.2 81.6756C214.888 82.0278 212.463 82.3978 209.949 82.7812C209.32 82.8769 208.686 82.973 208.047 83.07C207.408 83.1885 206.692 83.1922 206.044 82.9702C204.732 82.5638 203.674 81.3663 203.474 79.9612C203.251 78.5597 203.909 77.1042 205.042 76.3293C205.596 75.9263 206.281 75.7187 206.926 75.6431C207.565 75.547 208.199 75.4514 208.828 75.3567C211.343 74.9797 213.768 74.6163 216.08 74.2697C220.699 73.5844 224.861 72.9667 228.364 72.4466C230.11 72.1914 231.692 71.96 233.084 71.7566C233.773 71.6647 234.43 71.5154 235.048 71.6045C235.66 71.6721 236.19 71.8951 236.61 72.1694C237.461 72.7241 237.852 73.4524 238.03 73.9357C238.204 74.433 238.207 74.7124 238.207 74.7124Z" fill="#263238"/>
<path d="M184.194 68.1031L184.893 65.6917L181.281 65.952L184.194 68.1031Z" fill="url(#paint15_linear_435_20691)"/>
<path d="M185.822 56.5066L182.413 59.7726L178.282 58.5751L181.666 51.5331L185.822 56.5066Z" fill="url(#paint16_linear_435_20691)"/>
<path opacity="0.3" d="M181.822 94.5551L181.271 93.1682L185.767 90.74L185.224 97.2213L181.822 94.5551Z" fill="#47CEFF"/>
<path d="M181.138 93.1368L182.908 90.5332L185.768 90.7399L184.54 95.8029L181.138 93.1368Z" fill="url(#paint17_linear_435_20691)"/>
<path opacity="0.3" d="M207.445 84.1369L216.331 85.0149C217.024 84.199 217.449 82.7281 218.028 81.3687L209.092 82.7775L207.445 84.1369Z" fill="black"/>
<path opacity="0.3" d="M225.645 80.3627C225.645 80.3627 225.986 82.267 226.909 83.4921L233.945 81.0951C233.945 81.0951 233.014 79.7828 232.892 79.0471L225.645 80.3627Z" fill="black"/>
<path d="M92.2129 83.9538V88.3171H96.5762V83.9538V79.5835H92.2129V83.9538Z" fill="#263238"/>
<path d="M96.5762 57.7671H92.2129V62.1304H96.5762V57.7671Z" fill="#263238"/>
<path d="M123.545 105.812H119.182V110.176H123.545V105.812Z" fill="#263238"/>
<path d="M96.5762 66.4935V70.8568H92.2129V75.2201H96.5762V79.5834H100.939H105.31V83.9537H109.673V79.5834H114.036V75.2201V70.8568H109.673V75.2201H105.31H100.939V70.8568V66.4935V62.1302H96.5762V66.4935Z" fill="#263238"/>
<path d="M105.31 57.7671H100.939V62.1304H105.31H109.673V57.7671H105.31Z" fill="#263238"/>
<path d="M124.948 92.8496H127.288V88.4863H124.948H122.601V92.8496H124.948Z" fill="#263238"/>
<path d="M114.036 62.1302H109.673V66.4935H114.036V62.1302Z" fill="#263238"/>
<path d="M144.586 79.5835H140.223V83.9468H144.586V79.5835Z" fill="#263238"/>
<path d="M148.949 31.5803H144.586V35.9436H148.949V31.5803Z" fill="#263238"/>
<path d="M122.763 66.4938V62.1305H127.126V57.7672H122.763V53.4039H118.399V57.7672H114.036V62.1305H118.399V66.4938V70.8571V75.2204V79.5836H122.763V75.2204V70.8571H127.126V66.4938H122.763Z" fill="#263238"/>
<path d="M144.586 110.134H148.949V105.77H144.586H140.223V110.134H144.586Z" fill="#263238"/>
<path d="M140.224 31.5803H135.86V35.9436H140.224V31.5803Z" fill="#263238"/>
<path d="M139.13 66.4937V62.1304H134.767V57.7671H130.403V62.1304V66.4937H126.04V70.857H130.403H134.767V66.4937H139.13Z" fill="#263238"/>
<path d="M163.76 57.7671H159.396V62.1304H163.76V57.7671Z" fill="#263238"/>
<path d="M118.526 79.5835H114.163V83.9468H118.526V79.5835Z" fill="#263238"/>
<path d="M135.86 53.4037V49.0404H140.223V44.67H144.586H148.949V40.3068H144.586V35.9435H140.223V40.3068H135.86V44.67H131.489V49.0404H127.126V53.4037H131.489H135.86Z" fill="#263238"/>
<path d="M135.86 83.954V79.5836H140.223V75.2203H135.86H131.489V79.5836H127.126V83.954H131.489H135.86Z" fill="#263238"/>
<path d="M148.949 101.407V97.0364H144.586H140.223V92.6731H135.86V97.0364H131.489V101.407H127.126H122.763V105.77H127.126H131.489H135.86V101.407H140.223V105.77H144.586V101.407H148.949Z" fill="#263238"/>
<path d="M131.489 35.9436V31.5803H127.126H122.763V35.9436H118.399V40.3069H122.763H127.126V35.9436H131.489Z" fill="#263238"/>
<path d="M131.489 40.3066H127.126V44.6699H131.489V40.3066Z" fill="#263238"/>
<path d="M142.401 57.7667H138.038V62.13V66.4933V70.8566H142.401H146.765V66.4933H142.401V62.13H146.765V57.7667H151.128V53.4034H146.765V49.0402H142.401V53.4034V57.7667Z" fill="#263238"/>
<path d="M127.126 44.6699H122.763V49.0332H127.126V44.6699Z" fill="#263238"/>
<path d="M140.223 88.3171V92.6804H144.586H148.949V88.3171H153.313H157.676V83.9539H153.313H148.949H144.586V88.3171H140.223Z" fill="#263238"/>
<path d="M163.76 70.8567H159.396V75.22H163.76V70.8567Z" fill="#263238"/>
<path d="M148.949 75.2203H144.586V79.5836H148.949V75.2203Z" fill="#263238"/>
<path d="M159.862 62.1302H155.498H151.128V66.4935H155.498V70.8568H159.862V66.4935V62.1302Z" fill="#263238"/>
<path d="M157.676 75.2203H153.312V79.5836H157.676V75.2203Z" fill="#263238"/>
<path d="M109.673 101.492H122.77V83.9468H105.225V88.3171H100.946V92.6804H105.225V97.0437H100.946V101.407H105.225V101.492H105.31V105.77H100.946V114.497H105.31V110.119H109.673V101.492ZM119.407 87.3021V98.2138H108.496V87.3021H119.407Z" fill="#263238"/>
<path d="M166.403 83.9538H170.767V79.5835H166.403H162.04H157.677V83.9538H162.04H166.403Z" fill="#263238"/>
<path d="M166.403 66.4937H170.767V62.1304V57.7671H166.403V62.1304V66.4937Z" fill="#263238"/>
<path d="M131.658 88.4863H127.288V92.8496V97.2129H131.658V92.8496V88.4863Z" fill="#263238"/>
<path d="M175.129 83.9539H170.766V88.3171H175.129V83.9539Z" fill="#263238"/>
<path d="M175.136 75.22V70.8567H170.766V75.22V79.5833H175.136V75.22Z" fill="#263238"/>
<path d="M96.5762 105.77H92.2129V110.134V114.497H96.5762V110.134V105.77Z" fill="#263238"/>
<path d="M175.136 53.4036V31.5519H153.284V53.4036H175.136ZM156.583 50.1258V34.8508H171.858V50.1258H156.583Z" fill="#263238"/>
<path d="M168.588 38.1289H159.861V46.8555H168.588V38.1289Z" fill="#263238"/>
<path d="M175.136 92.6802H153.284V114.497H175.136V92.6802ZM156.583 111.226V95.9509H171.858V111.226H156.583Z" fill="#263238"/>
<path d="M168.588 99.2217H159.861V107.948H168.588V99.2217Z" fill="#263238"/>
<path d="M92.1631 31.5803V53.432H113.965V31.5803H92.1631ZM110.709 34.851V50.1261H95.4338V34.851H110.709Z" fill="#263238"/>
<path d="M107.432 38.1289H98.7051V46.8555H107.432V38.1289Z" fill="#263238"/>
<path d="M85.939 46.7917V31.284C85.8398 29.8611 86.2774 28.4527 87.1655 27.3366C87.6973 26.7496 88.3521 26.2872 89.0832 25.9826C89.8143 25.678 90.6037 25.5386 91.3949 25.5744H107.692C107.821 25.5744 107.945 25.5231 108.036 25.4319C108.127 25.3407 108.178 25.217 108.178 25.088C108.178 24.959 108.127 24.8353 108.036 24.7441C107.945 24.6529 107.821 24.6016 107.692 24.6016H91.5923C90.2288 24.5332 88.8761 24.8744 87.7083 25.5814C86.8689 26.1404 86.1794 26.8966 85.7002 27.7838C85.2209 28.6711 84.9665 29.6623 84.9592 30.6707C84.9169 33.2225 84.9592 35.7812 84.9592 38.3259V46.7846C84.9736 46.9044 85.0314 47.0148 85.1217 47.0949C85.212 47.1749 85.3285 47.2192 85.4491 47.2192C85.5698 47.2192 85.6863 47.1749 85.7766 47.0949C85.8668 47.0148 85.9246 46.9044 85.939 46.7846V46.7917Z" fill="#AAE8FF"/>
<path d="M106.282 121.87H90.7748C89.3523 121.966 87.9451 121.529 86.8274 120.643C86.2411 120.111 85.7793 119.456 85.4747 118.725C85.1702 117.994 85.0303 117.205 85.0651 116.414V100.096C85.0651 99.9669 85.0139 99.8432 84.9227 99.752C84.8315 99.6607 84.7078 99.6095 84.5788 99.6095C84.4498 99.6095 84.3261 99.6607 84.2348 99.752C84.1436 99.8432 84.0924 99.9669 84.0924 100.096V116.217C84.0248 117.58 84.366 118.933 85.0722 120.101C85.631 120.94 86.3874 121.628 87.2748 122.107C88.1622 122.585 89.1535 122.837 90.1615 122.843C92.7132 122.885 95.2649 122.843 97.8167 122.843H106.275C106.404 122.843 106.528 122.792 106.619 122.7C106.711 122.609 106.762 122.485 106.762 122.356C106.762 122.227 106.711 122.104 106.619 122.012C106.528 121.921 106.404 121.87 106.275 121.87H106.282Z" fill="#AAE8FF"/>
<path d="M180.888 99.9409V115.449C180.988 116.871 180.55 118.28 179.662 119.396C179.131 119.983 178.476 120.446 177.745 120.751C177.013 121.055 176.224 121.194 175.433 121.158H159.114C158.985 121.158 158.862 121.209 158.77 121.301C158.679 121.392 158.628 121.516 158.628 121.645C158.628 121.774 158.679 121.897 158.77 121.988C158.862 122.08 158.985 122.131 159.114 122.131H175.235C176.599 122.199 177.951 121.858 179.119 121.151C179.958 120.592 180.647 119.836 181.125 118.948C181.603 118.061 181.856 117.07 181.861 116.062C181.911 113.51 181.861 110.958 181.861 108.407V99.9479C181.861 99.8189 181.81 99.6952 181.719 99.604C181.628 99.5128 181.504 99.4615 181.375 99.4615C181.246 99.4615 181.122 99.5128 181.031 99.604C180.94 99.6952 180.888 99.8189 180.888 99.9479V99.9409Z" fill="#AAE8FF"/>
<path d="M159.396 25.5816H174.904C176.328 25.4844 177.736 25.9246 178.851 26.8152C179.44 27.3454 179.904 27.9999 180.209 28.7314C180.514 29.4629 180.652 30.253 180.614 31.0446V47.384C180.614 47.513 180.665 47.6367 180.756 47.7279C180.847 47.8191 180.971 47.8703 181.1 47.8703C181.229 47.8703 181.353 47.8191 181.444 47.7279C181.535 47.6367 181.586 47.513 181.586 47.384V31.2419C181.655 29.8763 181.314 28.5213 180.607 27.3509C180.048 26.512 179.291 25.8232 178.404 25.3451C177.517 24.8669 176.525 24.6141 175.517 24.6089C172.966 24.5666 170.414 24.6089 167.862 24.6089H159.403C159.274 24.6089 159.151 24.6601 159.059 24.7513C158.968 24.8425 158.917 24.9663 158.917 25.0953C158.917 25.2243 158.968 25.348 159.059 25.4392C159.151 25.5304 159.274 25.5816 159.403 25.5816H159.396Z" fill="#AAE8FF"/>
<defs>
<linearGradient id="paint0_linear_435_20691" x1="362.579" y1="50.6079" x2="361.359" y2="51.8603" gradientUnits="userSpaceOnUse">
<stop stop-color="#FFE6CD"/>
<stop offset="1" stop-color="#FFF5EB"/>
</linearGradient>
<linearGradient id="paint1_linear_435_20691" x1="340.545" y1="69.557" x2="359.844" y2="69.9215" gradientUnits="userSpaceOnUse">
<stop stop-color="#FFC78F"/>
<stop offset="1" stop-color="#FFD6AD"/>
</linearGradient>
<linearGradient id="paint2_linear_435_20691" x1="331.855" y1="61.6708" x2="351.06" y2="62.0336" gradientUnits="userSpaceOnUse">
<stop stop-color="#FFC78F"/>
<stop offset="1" stop-color="#FFD6AD"/>
</linearGradient>
<linearGradient id="paint3_linear_435_20691" x1="355.72" y1="63.4365" x2="356.426" y2="61.5497" gradientUnits="userSpaceOnUse">
<stop stop-color="#FFC78F"/>
<stop offset="1" stop-color="#FFD6AD"/>
</linearGradient>
<linearGradient id="paint4_linear_435_20691" x1="341.796" y1="53.0797" x2="341.767" y2="59.7705" gradientUnits="userSpaceOnUse">
<stop stop-color="#CC8B69"/>
<stop offset="1" stop-color="#6D4A38"/>
</linearGradient>
<linearGradient id="paint5_linear_435_20691" x1="121.19" y1="113.705" x2="130.062" y2="114.661" gradientUnits="userSpaceOnUse">
<stop stop-color="#47CEFF"/>
<stop offset="1" stop-color="#3EE096"/>
</linearGradient>
<linearGradient id="paint6_linear_435_20691" x1="50.6836" y1="55.1162" x2="86.8606" y2="59.8172" gradientUnits="userSpaceOnUse">
<stop stop-color="#08AEEA"/>
<stop offset="1" stop-color="#58CB96"/>
</linearGradient>
<linearGradient id="paint7_linear_435_20691" x1="2.32384" y1="47.1427" x2="50.7642" y2="55.7804" gradientUnits="userSpaceOnUse">
<stop stop-color="#08AEEA"/>
<stop offset="1" stop-color="#58CB96"/>
</linearGradient>
<linearGradient id="paint8_linear_435_20691" x1="31.3522" y1="63.546" x2="66.2526" y2="75.1795" gradientUnits="userSpaceOnUse">
<stop stop-color="#08AEEA"/>
<stop offset="1" stop-color="#58CB96"/>
</linearGradient>
<linearGradient id="paint9_linear_435_20691" x1="83.5307" y1="53.8316" x2="89.2698" y2="55.0495" gradientUnits="userSpaceOnUse">
<stop stop-color="#08AEEA"/>
<stop offset="1" stop-color="#58CB96"/>
</linearGradient>
<linearGradient id="paint10_linear_435_20691" x1="84.7895" y1="74.0628" x2="88.7254" y2="74.8908" gradientUnits="userSpaceOnUse">
<stop stop-color="#08AEEA"/>
<stop offset="1" stop-color="#58CB96"/>
</linearGradient>
<linearGradient id="paint11_linear_435_20691" x1="75.5128" y1="91.3099" x2="82.6406" y2="92.5512" gradientUnits="userSpaceOnUse">
<stop stop-color="#08AEEA"/>
<stop offset="1" stop-color="#58CB96"/>
</linearGradient>
<linearGradient id="paint12_linear_435_20691" x1="185.75" y1="60.7221" x2="225.359" y2="66.5281" gradientUnits="userSpaceOnUse">
<stop stop-color="#08AEEA"/>
<stop offset="1" stop-color="#58CB96"/>
</linearGradient>
<linearGradient id="paint13_linear_435_20691" x1="227.154" y1="60.7104" x2="275.866" y2="69.9736" gradientUnits="userSpaceOnUse">
<stop stop-color="#08AEEA"/>
<stop offset="1" stop-color="#58CB96"/>
</linearGradient>
<linearGradient id="paint14_linear_435_20691" x1="205.399" y1="72.5267" x2="238.923" y2="87.0322" gradientUnits="userSpaceOnUse">
<stop stop-color="#08AEEA"/>
<stop offset="1" stop-color="#58CB96"/>
</linearGradient>
<linearGradient id="paint15_linear_435_20691" x1="181.47" y1="65.8775" x2="185.439" y2="66.7196" gradientUnits="userSpaceOnUse">
<stop stop-color="#08AEEA"/>
<stop offset="1" stop-color="#58CB96"/>
</linearGradient>
<linearGradient id="paint16_linear_435_20691" x1="178.676" y1="52.168" x2="187.192" y2="53.272" gradientUnits="userSpaceOnUse">
<stop stop-color="#08AEEA"/>
<stop offset="1" stop-color="#58CB96"/>
</linearGradient>
<linearGradient id="paint17_linear_435_20691" x1="181.38" y1="90.9393" x2="186.616" y2="91.5911" gradientUnits="userSpaceOnUse">
<stop stop-color="#08AEEA"/>
<stop offset="1" stop-color="#58CB96"/>
</linearGradient>
<clipPath id="clip0_435_20691">
<rect width="189.437" height="200.887" fill="white" transform="translate(225.389)"/>
</clipPath>
<clipPath id="clip1_435_20691">
<rect width="12.4375" height="4.83861" fill="white" transform="translate(131.202 114.864)"/>
</clipPath>
</defs>
</svg>
