<svg width="21" height="21" viewBox="0 0 21 21" fill="none" xmlns="http://www.w3.org/2000/svg">
<g clip-path="url(#clip0_40000096_504)">
<path d="M20.3052 10.7305C20.3052 10.0507 20.2501 9.36724 20.1325 8.69849H10.7002V12.5493H16.1016C15.8775 13.7913 15.1573 14.8899 14.1027 15.5881V18.0867H17.3252C19.2176 16.345 20.3052 13.7729 20.3052 10.7305Z" fill="#4285F4"/>
<path d="M10.6999 20.5008C13.397 20.5008 15.6714 19.6152 17.3286 18.0867L14.1061 15.588C13.2096 16.198 12.0521 16.5434 10.7036 16.5434C8.09474 16.5434 5.88272 14.7833 5.08904 12.417H1.76367V14.9928C3.46127 18.3696 6.91892 20.5008 10.6999 20.5008Z" fill="#34A853"/>
<path d="M5.08564 12.417C4.66676 11.175 4.66676 9.8302 5.08564 8.58824V6.01245H1.76395C0.345612 8.8381 0.345612 12.1671 1.76395 14.9928L5.08564 12.417Z" fill="#FBBC04"/>
<path d="M10.6999 4.45805C12.1256 4.436 13.5035 4.97247 14.536 5.95722L17.3911 3.10218C15.5833 1.40459 13.1838 0.471278 10.6999 0.500674C6.91892 0.500674 3.46127 2.63185 1.76367 6.01234L5.08537 8.58812C5.87538 6.21811 8.09107 4.45805 10.6999 4.45805Z" fill="#EA4335"/>
</g>
<defs>
<clipPath id="clip0_40000096_504">
<rect width="20" height="20" fill="white" transform="translate(0.5 0.5)"/>
</clipPath>
</defs>
</svg>
