<svg width="14" height="14" viewBox="0 0 14 14" fill="none" xmlns="http://www.w3.org/2000/svg">
<g clip-path="url(#clip0_463_10576)">
<path d="M3.50016 13.418C3.17933 13.418 2.90468 13.3037 2.6762 13.0753C2.44773 12.8468 2.3335 12.5721 2.3335 12.2513V6.41797C2.3335 6.09714 2.44773 5.82248 2.6762 5.59401C2.90468 5.36554 3.17933 5.2513 3.50016 5.2513H4.0835V4.08464C4.0835 3.27769 4.36787 2.58984 4.93662 2.02109C5.50537 1.45234 6.19322 1.16797 7.00016 1.16797C7.80711 1.16797 8.49496 1.45234 9.0637 2.02109C9.63245 2.58984 9.91683 3.27769 9.91683 4.08464V5.2513H10.5002C10.821 5.2513 11.0956 5.36554 11.3241 5.59401C11.5526 5.82248 11.6668 6.09714 11.6668 6.41797V12.2513C11.6668 12.5721 11.5526 12.8468 11.3241 13.0753C11.0956 13.3037 10.821 13.418 10.5002 13.418H3.50016ZM3.50016 12.2513H10.5002V6.41797H3.50016V12.2513ZM7.00016 10.5013C7.321 10.5013 7.59565 10.3871 7.82412 10.1586C8.05259 9.93012 8.16683 9.65547 8.16683 9.33464C8.16683 9.0138 8.05259 8.73915 7.82412 8.51068C7.59565 8.28221 7.321 8.16797 7.00016 8.16797C6.67933 8.16797 6.40468 8.28221 6.1762 8.51068C5.94773 8.73915 5.8335 9.0138 5.8335 9.33464C5.8335 9.65547 5.94773 9.93012 6.1762 10.1586C6.40468 10.3871 6.67933 10.5013 7.00016 10.5013ZM5.25016 5.2513H8.75016V4.08464C8.75016 3.59852 8.58002 3.18533 8.23975 2.84505C7.89947 2.50477 7.48627 2.33464 7.00016 2.33464C6.51405 2.33464 6.10086 2.50477 5.76058 2.84505C5.4203 3.18533 5.25016 3.59852 5.25016 4.08464V5.2513Z" fill="#41BBE8"/>
</g>
<defs>
<clipPath id="clip0_463_10576">
<rect width="14" height="14" fill="white"/>
</clipPath>
</defs>
</svg>
