<svg width="159" height="60" viewBox="0 0 159 60" fill="none" xmlns="http://www.w3.org/2000/svg">
<path fill-rule="evenodd" clip-rule="evenodd" d="M29.8646 59.9966C46.3543 59.9966 59.7259 46.567 59.7259 29.9983C59.7259 13.4296 46.3576 0 29.8646 0C13.3716 0 0 13.4296 0 29.9983C0 32.8677 0.40276 35.6426 1.15122 38.2726C4.1115 28.798 12.5862 21.9062 18.5471 20.2405C22.0679 19.2548 25.7168 19.4052 28.8856 19.5358C34.1175 19.7514 38.0411 19.9131 37.9198 14.8188C37.9198 14.8188 33.1102 14.2321 31.3213 8.72942C31.2004 8.34504 31.4253 7.94718 31.818 7.85951C33.5331 7.45153 38.0507 6.84799 40.625 10.7761L45.0319 10.3479C45.2735 10.3243 45.5051 10.4254 45.6461 10.621L46.851 12.2765C46.9551 12.4147 47.1061 12.5125 47.2739 12.5462L50.6 13.1599C51.0061 13.2341 51.2512 13.6488 51.1203 14.0365C50.7645 15.1189 49.4387 16.9598 44.5251 17.0273C44.5251 17.0273 44.5116 25.2644 41.1083 30.7199L44.4546 32.4631C44.6828 32.5811 44.8305 32.8238 44.8238 33.0835C44.7869 34.1624 44.3573 36.9475 40.9774 37.8915C37.8527 38.7682 36.3054 36.6878 35.7181 35.5448C35.5301 35.1773 35.7046 34.7356 36.0805 34.594L37.3962 34.1017C37.7184 33.9803 38.0776 34.122 38.2387 34.4288C38.6112 35.1739 39.4839 36.29 41.115 35.2481C43.4276 33.7747 33.4358 31.5426 33.4358 31.5426C33.4358 31.5426 31.5461 33.7376 28.653 35.7572C28.6343 35.7313 28.6157 35.7057 28.5972 35.6801C28.5194 35.5727 28.443 35.467 28.3643 35.3526C27.391 34.0006 26.1357 32.78 24.7227 31.8932C23.1218 30.8783 21.3698 30.4164 19.4936 30.4299C19.7827 30.4299 20.1515 30.5752 20.4625 30.6978C20.545 30.7303 20.6234 30.7612 20.6951 30.7873C21.1952 30.9694 21.6718 31.2155 22.1216 31.5021C23.0311 32.0719 23.8232 32.8272 24.4811 33.6735C25.6222 35.1571 26.5553 37.1059 26.8876 38.9604C27.4414 42.032 28.069 48.3439 25.2933 53.5769C24.028 55.9674 23.2426 57.7005 22.9069 59.1773C25.1389 59.7134 27.4682 59.9966 29.8646 59.9966ZM6.60857 47.4511C9.73667 51.3522 13.818 54.4441 18.4933 56.3795C19.1411 53.6854 19.564 50.3441 18.933 47.1173C18.1724 43.2324 16.0267 42.1142 13.813 40.9606C11.9535 39.9915 10.0459 38.9974 8.87074 36.3176C8.87074 36.3176 6.08163 40.0771 6.60857 47.4511Z" fill="url(#paint0_linear_72_353)"/>
<g clip-path="url(#clip0_72_353)">
<path d="M143.691 39.4678C143.691 39.4635 143.694 39.4598 143.698 39.459C147.701 38.6602 150.703 34.9266 150.703 30.7147C150.703 26.5003 147.704 22.8532 143.581 22.0943L142.713 21.9322H142.465H130.418C125.711 21.9322 122.15 25.4025 121.96 30.1769C121.873 32.4241 120.567 34.0377 118.567 34.3839C118.319 34.4282 118.078 34.4503 117.837 34.4503C116.736 34.4503 115.707 34.0229 114.941 33.2419C114.174 32.4609 113.758 31.4147 113.766 30.2948C113.81 24.9309 115.94 20.5028 120.1 17.1357C123.004 14.7854 126.419 13.5991 130.257 13.5991C134.132 13.5991 138.006 13.5991 141.888 13.5991H142.509C151.623 13.8423 159.007 21.527 159.007 30.7221C159.007 39.9172 151.637 47.5577 142.582 47.8377H142.48L127.815 47.8377C127.815 47.8377 134.343 43.0412 135.263 39.4678H143.691Z" fill="#6CCDC5"/>
<path d="M120.377 13.1129L108.775 12.9729C108.651 12.9729 108.534 12.9803 108.41 12.9876C99.3833 13.4444 92.3125 20.9597 92.3125 30.0885C92.3125 39.2173 99.7044 46.961 108.789 47.2115V47.2557H113.547C114.744 47.2557 115.933 47.2557 117.969 47.241C118.815 47.241 119.676 47.1525 120.516 46.9978C128.374 45.5611 134.008 38.8195 134.212 30.619C134.27 28.2686 132.512 26.3014 130.286 26.2351H130.162C127.834 26.2351 126.09 27.9813 126.01 30.398C125.996 30.8327 125.966 31.4074 125.857 31.9747C125.04 36.0933 121.72 38.8563 117.582 38.8563H114.612H108.833H108.519L107.731 38.7089C103.608 37.9501 100.609 34.3251 100.609 30.0885C100.609 26.1113 103.207 22.7315 106.894 21.6742C107.378 21.5357 107.882 21.4964 108.385 21.4941L112.401 21.4754C112.401 21.4754 113.999 15.898 120.377 13.1129Z" fill="#6CCDC5"/>
<path d="M97.4423 13.3633C93.1151 14.9916 90.5612 20.9227 90.5612 20.9227L88.642 20.8933C83.5268 20.9522 80.4621 23.5162 80.4621 28.7253V47.463H72.6396L72.6396 28.7253C72.6396 18.7787 78.8275 13.7096 88.642 13.6506V13.6359L90.7071 13.5475L93.8011 13.437L97.4423 13.3633Z" fill="#6CCDC5"/>
</g>
<defs>
<linearGradient id="paint0_linear_72_353" x1="3.12054" y1="4.62304" x2="64.7769" y2="11.0236" gradientUnits="userSpaceOnUse">
<stop stop-color="#47CEFF"/>
<stop offset="1" stop-color="#3EE096"/>
</linearGradient>
<clipPath id="clip0_72_353">
<rect width="86.3604" height="34.8649" fill="white" transform="translate(72.6396 12.9729)"/>
</clipPath>
</defs>
</svg>
