<svg width="24" height="25" viewBox="0 0 24 25" fill="none" xmlns="http://www.w3.org/2000/svg">
<path d="M22.707 11.7929L15.707 4.79292C15.5184 4.61076 15.2658 4.50997 15.0036 4.51224C14.7414 4.51452 14.4906 4.61969 14.3052 4.8051C14.1198 4.99051 14.0146 5.24132 14.0123 5.50352C14.01 5.76571 14.1108 6.01832 14.293 6.20692L19.586 11.4999H2C1.73478 11.4999 1.48043 11.6053 1.29289 11.7928C1.10536 11.9803 1 12.2347 1 12.4999C1 12.7651 1.10536 13.0195 1.29289 13.207C1.48043 13.3946 1.73478 13.4999 2 13.4999H19.586L14.293 18.7929C14.1975 18.8852 14.1213 18.9955 14.0689 19.1175C14.0165 19.2395 13.9889 19.3707 13.9877 19.5035C13.9866 19.6363 14.0119 19.768 14.0622 19.8909C14.1125 20.0138 14.1867 20.1254 14.2806 20.2193C14.3745 20.3132 14.4861 20.3875 14.609 20.4377C14.7319 20.488 14.8636 20.5133 14.9964 20.5122C15.1292 20.511 15.2604 20.4834 15.3824 20.431C15.5044 20.3786 15.6148 20.3024 15.707 20.2069L22.707 13.2069C22.8945 13.0194 22.9998 12.7651 22.9998 12.4999C22.9998 12.2348 22.8945 11.9804 22.707 11.7929Z" fill="white"/>
</svg>
