<svg width="24" height="24" viewBox="0 0 24 24" fill="none" xmlns="http://www.w3.org/2000/svg">
<g clip-path="url(#clip0_40000267_1316)">
<path d="M7 18C5.61667 18 4.4375 17.5125 3.4625 16.5375C2.4875 15.5625 2 14.3833 2 13C2 11.6167 2.4875 10.4375 3.4625 9.4625C4.4375 8.4875 5.61667 8 7 8H10C10.2833 8 10.5208 8.09583 10.7125 8.2875C10.9042 8.47917 11 8.71667 11 9C11 9.28333 10.9042 9.52083 10.7125 9.7125C10.5208 9.90417 10.2833 10 10 10H7C6.16667 10 5.45833 10.2917 4.875 10.875C4.29167 11.4583 4 12.1667 4 13C4 13.8333 4.29167 14.5417 4.875 15.125C5.45833 15.7083 6.16667 16 7 16H10C10.2833 16 10.5208 16.0958 10.7125 16.2875C10.9042 16.4792 11 16.7167 11 17C11 17.2833 10.9042 17.5208 10.7125 17.7125C10.5208 17.9042 10.2833 18 10 18H7ZM9 14C8.71667 14 8.47917 13.9042 8.2875 13.7125C8.09583 13.5208 8 13.2833 8 13C8 12.7167 8.09583 12.4792 8.2875 12.2875C8.47917 12.0958 8.71667 12 9 12H15C15.2833 12 15.5208 12.0958 15.7125 12.2875C15.9042 12.4792 16 12.7167 16 13C16 13.2833 15.9042 13.5208 15.7125 13.7125C15.5208 13.9042 15.2833 14 15 14H9ZM14 18C13.7167 18 13.4792 17.9042 13.2875 17.7125C13.0958 17.5208 13 17.2833 13 17C13 16.7167 13.0958 16.4792 13.2875 16.2875C13.4792 16.0958 13.7167 16 14 16H17C17.8333 16 18.5417 15.7083 19.125 15.125C19.7083 14.5417 20 13.8333 20 13C20 12.1667 19.7083 11.4583 19.125 10.875C18.5417 10.2917 17.8333 10 17 10H14C13.7167 10 13.4792 9.90417 13.2875 9.7125C13.0958 9.52083 13 9.28333 13 9C13 8.71667 13.0958 8.47917 13.2875 8.2875C13.4792 8.09583 13.7167 8 14 8H17C18.3833 8 19.5625 8.4875 20.5375 9.4625C21.5125 10.4375 22 11.6167 22 13C22 14.3833 21.5125 15.5625 20.5375 16.5375C19.5625 17.5125 18.3833 18 17 18H14Z" fill="#8F8F8F"/>
</g>
<defs>
<clipPath id="clip0_40000267_1316">
<rect width="24" height="24" fill="white"/>
</clipPath>
</defs>
</svg>
