<svg width="100" height="100" viewBox="0 0 100 100" fill="none" xmlns="http://www.w3.org/2000/svg">
<path d="M90.1561 20.272C76.7113 29.307 56.8724 50.7638 49.0647 67.6118C42.6433 58.4898 36.7045 50.4078 27.3629 42.7661C22.8602 39.0827 17.3083 45.9011 21.8087 49.5828C31.9061 57.8431 39.3711 65.8498 45.7371 75.7835C47.7158 78.8696 52.3345 78.4655 53.7577 75.0939C60.4799 59.1615 77.5204 36.6984 90.0586 26.1504C98.2339 39.9341 99.4624 57.8398 90.1657 73.6795C71.9954 104.638 27.6207 104.437 9.69926 73.3332C-8.22649 42.2221 14.181 3.33329 50.0331 3.33329C62.0983 3.33329 72.6405 7.7373 80.6358 14.767C81.3058 15.356 82.3194 15.308 82.9272 14.6547L82.9498 14.6303C83.5826 13.9503 83.5343 12.8773 82.8371 12.264C74.1205 4.59362 62.575 -0.163059 49.3588 0.00427482C11.0679 0.48861 -12.3286 41.7701 6.81904 75.0002C26.0256 108.333 74.0417 108.333 93.2482 74.9999C103.609 57.0175 101.629 35.8901 90.1561 20.272Z" fill="#3EE096"/>
</svg>
